NewsreaderCaption-BoldItalic.ufo
<glyph name="exclam" format="2">
	<unicode hex="0021"/>
	<advance width="705.688"/>
	<outline>
		<contour>
			<point x="819.36" y="1339.992" type="line" smooth="yes"/>
			<point x="840.376" y="1399.504"/>
			<point x="822.968" y="1432.352"/>
			<point x="629.584" y="1432.352" type="curve" smooth="yes"/>
			<point x="438.552" y="1432.352"/>
			<point x="401.184" y="1399.504"/>
			<point x="385.704" y="1339.992" type="curve" smooth="yes"/>
			<point x="364.056" y="1258.92" type="line" smooth="yes"/>
			<point x="339.8" y="1163.304"/>
			<point x="293.88" y="762.392"/>
			<point x="241.48" y="514.52" type="curve"/>
			<point x="458.456" y="514.52" type="line"/>
			<point x="558.016" y="762.392"/>
			<point x="757.144" y="1163.304"/>
			<point x="791.176" y="1258.92" type="curve" smooth="yes"/>
		</contour>
		<contour>
			<point x="301.448" y="356.256" type="curve" smooth="yes"/>
			<point x="107.224" y="356.256"/>
			<point x="27.024" y="244.096"/>
			<point x="27.024" y="112.752" type="curve" smooth="yes"/>
			<point x="27.024" y="24.776"/>
			<point x="81.576" y="-25.776"/>
			<point x="188.568" y="-25.776" type="curve" smooth="yes"/>
			<point x="382.792" y="-25.776"/>
			<point x="462.992" y="86.384"/>
			<point x="462.992" y="217.376" type="curve" smooth="yes"/>
			<point x="462.992" y="305.704"/>
			<point x="408.44" y="356.256"/>
		</contour>
	</outline>
</glyph>
<glyph name="ampersand" format="2">
	<unicode hex="0026"/>
	<advance width="1704.584"/>
	<outline>
		<contour>
			<point x="1196.232" y="268.672" type="line"/>
			<point x="1318.528" y="382.488"/>
			<point x="1442.952" y="512.752"/>
			<point x="1600.8" y="737.984" type="curve"/>
			<point x="1741.024" y="764.464" type="line"/>
			<point x="1771.672" y="864" type="line"/>
			<point x="1238.424" y="864" type="line"/>
			<point x="1207.128" y="764.464" type="line"/>
			<point x="1340.744" y="737.984" type="line"/>
			<point x="1277.256" y="491.816"/>
			<point x="1217.712" y="389.76"/>
			<point x="1149.224" y="316.624" type="curve"/>
			<point x="984.856" y="217.208" type="line"/>
			<point x="905.808" y="174.048"/>
			<point x="833.376" y="160.008"/>
			<point x="751.72" y="160.008" type="curve" smooth="yes"/>
			<point x="543.184" y="160.008"/>
			<point x="471.328" y="249.008"/>
			<point x="471.328" y="436.616" type="curve" smooth="yes"/>
			<point x="471.328" y="542.568"/>
			<point x="496.296" y="624.128"/>
			<point x="621.128" y="711.76" type="curve"/>
			<point x="912.072" y="844.296" type="line"/>
			<point x="1315.344" y="899.312"/>
			<point x="1433.576" y="1005.536"/>
			<point x="1433.576" y="1187.312" type="curve" smooth="yes"/>
			<point x="1433.576" y="1340.44"/>
			<point x="1325.04" y="1440.48"/>
			<point x="1007.616" y="1440.48" type="curve" smooth="yes"/>
			<point x="605.456" y="1440.48"/>
			<point x="458.016" y="1287.872"/>
			<point x="458.016" y="1073.52" type="curve" smooth="yes"/>
			<point x="458.016" y="967.872"/>
			<point x="486.464" y="895.072"/>
			<point x="592.144" y="713.304" type="curve" smooth="yes"/>
			<point x="1008.688" y="0" type="line"/>
			<point x="1490.656" y="0" type="line"/>
			<point x="1521.6" y="101.592" type="line"/>
			<point x="1355.696" y="155.44" type="line"/>
			<point x="903.848" y="915.08" type="line" smooth="yes"/>
			<point x="842.032" y="1018.304"/>
			<point x="821.048" y="1075.328"/>
			<point x="821.048" y="1141.128" type="curve" smooth="yes"/>
			<point x="821.048" y="1237"/>
			<point x="870.032" y="1287.856"/>
			<point x="978.36" y="1287.856" type="curve" smooth="yes"/>
			<point x="1060.056" y="1287.856"/>
			<point x="1102.912" y="1256.816"/>
			<point x="1102.912" y="1186.088" type="curve" smooth="yes"/>
			<point x="1102.912" y="1065.992"/>
			<point x="1051.688" y="980.088"/>
			<point x="881.72" y="891.64" type="curve"/>
			<point x="612.624" y="770.936" type="line"/>
			<point x="179.48" y="682"/>
			<point x="72.376" y="552.256"/>
			<point x="72.376" y="320.816" type="curve" smooth="yes"/>
			<point x="72.376" y="101.136"/>
			<point x="204.392" y="-26.48"/>
			<point x="523.44" y="-26.48" type="curve" smooth="yes"/>
			<point x="693.528" y="-26.48"/>
			<point x="840.832" y="15.776"/>
			<point x="1038.232" y="165.608" type="curve"/>
		</contour>
	</outline>
</glyph>
<glyph name="quotesingle" format="2">
  <advance width="525"/>
  <unicode hex="0027"/>
  <outline>
    <contour>
      <point x="257.24800000000005" y="848.2239999999999" type="line"/>
      <point x="455.56" y="848.2239999999999" type="line"/>
      <point x="667.832" y="1350.7839999999999" type="line"/>
      <point x="687.2560000000001" y="1414.0" type="line"/>
      <point x="372.336" y="1414.0" type="line"/>
      <point x="352.912" y="1350.7839999999999" type="line"/>
    </contour>
  </outline>
</glyph>
<glyph name="parenleft" format="2">
	<unicode hex="0028"/>
	<advance width="755.632"/>
	<outline>
		<contour>
			<point x="951.8" y="1365.416" type="curve"/>
			<point x="863.232" y="1491.536" type="line"/>
			<point x="222.632" y="1101.12"/>
			<point x="104.872" y="774.048"/>
			<point x="104.872" y="434.04" type="curve" smooth="yes"/>
			<point x="104.872" y="232.248"/>
			<point x="177.776" y="22.864"/>
			<point x="348.176" y="-246.592" type="curve"/>
			<point x="507.792" y="-164.264" type="line"/>
			<point x="428.104" y="16.088"/>
			<point x="397.4" y="158.776"/>
			<point x="397.4" y="361.808" type="curve" smooth="yes"/>
			<point x="397.4" y="680.696"/>
			<point x="504.928" y="1037.744"/>
		</contour>
	</outline>
</glyph>
<glyph name="parenright" format="2">
	<unicode hex="0029"/>
	<advance width="755.632"/>
	<outline>
		<contour>
			<point x="-132.816" y="-120.472" type="curve"/>
			<point x="-44.248" y="-246.592" type="line"/>
			<point x="596.352" y="143.824"/>
			<point x="714.112" y="470.896"/>
			<point x="714.112" y="810.904" type="curve" smooth="yes"/>
			<point x="714.112" y="1012.696"/>
			<point x="641.208" y="1222.08"/>
			<point x="470.808" y="1491.536" type="curve"/>
			<point x="311.192" y="1409.208" type="line"/>
			<point x="390.88" y="1228.856"/>
			<point x="421.584" y="1086.168"/>
			<point x="421.584" y="883.136" type="curve" smooth="yes"/>
			<point x="421.584" y="564.248"/>
			<point x="314.056" y="207.2"/>
		</contour>
	</outline>
</glyph>
<glyph name="asterisk" format="2">
	<unicode hex="002A"/>
	<advance width="974.024"/>
	<outline>
		<contour>
			<point x="857.32" y="747.952" type="line"/>
			<point x="785.744" y="976.048" type="line"/>
			<point x="1021.248" y="1010.472" type="line"/>
			<point x="1009.712" y="1166.96" type="line"/>
			<point x="769.912" y="1168.2" type="line"/>
			<point x="810.304" y="1403.24" type="line"/>
			<point x="658.112" y="1440.256" type="line"/>
			<point x="584.408" y="1213.456" type="line"/>
			<point x="371.48" y="1323.256" type="line"/>
			<point x="289.912" y="1191.248" type="line"/>
			<point x="482.36" y="1049.376" type="line"/>
			<point x="312.152" y="882.616" type="line"/>
			<point x="412.144" y="763.44" type="line"/>
			<point x="607.776" y="901.776" type="line"/>
			<point x="713.72" y="688.568" type="line"/>
		</contour>
	</outline>
</glyph>
<glyph name="plus" format="2">
	<unicode hex="002B"/>
	<advance width="1200"/>
	<outline>
		<contour>
			<point x="359.048" y="71.856" type="line"/>
			<point x="567.232" y="71.856" type="line"/>
			<point x="841.192" y="967.216" type="line"/>
			<point x="632.656" y="967.216" type="line"/>
		</contour>
		<contour>
			<point x="202.888" y="628.192" type="line"/>
			<point x="136.376" y="410.88" type="line"/>
			<point x="997.352" y="410.88" type="line"/>
			<point x="1063.864" y="628.192" type="line"/>
		</contour>
	</outline>
</glyph>
<glyph name="comma" format="2">
	<unicode hex="002C"/>
	<advance width="616.648"/>
	<outline>
		<contour>
			<point x="-154.056" y="-269.592" type="curve"/>
			<point x="-86.504" y="-386.344" type="line"/>
			<point x="324.776" y="-159.032"/>
			<point x="425.4" y="2.664"/>
			<point x="425.4" y="199.56" type="curve" smooth="yes"/>
			<point x="425.4" y="313.256"/>
			<point x="358.904" y="372.936"/>
			<point x="240.784" y="372.936" type="curve" smooth="yes"/>
			<point x="102.144" y="372.936"/>
			<point x="11.52" y="267.776"/>
			<point x="11.52" y="171.376" type="curve" smooth="yes"/>
			<point x="11.52" y="125.36"/>
			<point x="119.216" y="94.12"/>
			<point x="119.216" y="1.144" type="curve" smooth="yes"/>
			<point x="119.216" y="-69.984"/>
			<point x="68.512" y="-140.296"/>
		</contour>
	</outline>
</glyph>
<glyph name="hyphen" format="2">
  <advance width="860.8720000000001"/>
  <unicode hex="002D"/>
  <outline>
    <contour>
      <point x="174.056" y="647.6" type="line"/>
      <point x="98.248" y="396.4" type="line"/>
      <point x="688.168" y="396.4" type="line"/>
      <point x="764.976" y="647.6" type="line"/>
    </contour>
  </outline>
</glyph>
<glyph name="period" format="2">
	<unicode hex="002E"/>
	<advance width="626.216"/>
	<outline>
		<contour>
			<point x="286.72" y="389.952" type="curve" smooth="yes"/>
			<point x="108.048" y="389.952"/>
			<point x="5.168" y="268.72"/>
			<point x="5.168" y="121.824" type="curve" smooth="yes"/>
			<point x="5.168" y="28.016"/>
			<point x="61.016" y="-25.776"/>
			<point x="171.248" y="-25.776" type="curve" smooth="yes"/>
			<point x="349.92" y="-25.776"/>
			<point x="452.8" y="95.456"/>
			<point x="452.8" y="242" type="curve" smooth="yes"/>
			<point x="452.8" y="336.16"/>
			<point x="396.952" y="389.952"/>
		</contour>
	</outline>
</glyph>
<glyph name="slash" format="2">
  <advance width="963"/>
  <unicode hex="002F"/>
  <outline>
    <contour>
      <point x="-85.536" y="0.0" type="line"/>
      <point x="184.936" y="0.0" type="line"/>
      <point x="1166.344" y="1414.0" type="line"/>
      <point x="896.2239999999999" y="1414.0" type="line"/>
    </contour>
  </outline>
</glyph>
<glyph name="zero" format="2">
	<unicode hex="0030"/>
	<advance width="1462"/>
	<outline>
		<contour>
			<point x="488.128" y="404.832" type="curve" smooth="yes"/>
			<point x="488.128" y="751.064"/>
			<point x="664.176" y="1217.832"/>
			<point x="931.616" y="1217.832" type="curve" smooth="yes"/>
			<point x="1037.664" y="1217.832"/>
			<point x="1087.928" y="1159.696"/>
			<point x="1087.928" y="1009.52" type="curve" smooth="yes"/>
			<point x="1087.928" y="663.288"/>
			<point x="911.88" y="196.52"/>
			<point x="644.44" y="196.52" type="curve" smooth="yes"/>
			<point x="538.392" y="196.52"/>
			<point x="488.128" y="254.656"/>
		</contour>
		<contour>
			<point x="947.968" y="1440.48" type="curve" smooth="yes"/>
			<point x="319.0152112676" y="1440.48"/>
			<point x="116.704" y="818.976"/>
			<point x="116.704" y="463.136" type="curve" smooth="yes"/>
			<point x="116.704" y="174.048"/>
			<point x="262.9994653938" y="-26.128"/>
			<point x="628.088" y="-26.128" type="curve" smooth="yes"/>
			<point x="1257.0407887324" y="-26.128"/>
			<point x="1459.352" y="595.376"/>
			<point x="1459.352" y="951.216" type="curve" smooth="yes"/>
			<point x="1459.352" y="1240.304"/>
			<point x="1313.0565346062" y="1440.48"/>
		</contour>
	</outline>
</glyph>
<glyph name="one" format="2">
	<unicode hex="0031"/>
	<advance width="1462"/>
	<outline>
		<contour>
			<point x="505.272" y="178.456" type="line"/>
			<point x="200.432" y="106.312" type="line"/>
			<point x="164.952" y="0" type="line"/>
			<point x="1123.368" y="0" type="line"/>
			<point x="1157.848" y="106.312" type="line"/>
			<point x="900.264" y="179.104" type="line"/>
			<point x="1280.656" y="1421.04" type="line"/>
			<point x="974.36" y="1421.04" type="line"/>
			<point x="379.648" y="1178.496" type="line"/>
			<point x="422.128" y="1004.56" type="line"/>
			<point x="931.512" y="1142.52" type="line"/>
			<point x="849.664" y="1304.04" type="line"/>
		</contour>
	</outline>
</glyph>
<glyph name="colon" format="2">
	<unicode hex="003A"/>
	<advance width="681.592"/>
	<outline>
		<contour>
			<point x="282.152" y="375.048" type="curve" smooth="yes"/>
			<point x="102.184" y="375.048"/>
			<point x="14.856" y="254.464"/>
			<point x="14.856" y="127.656" type="curve" smooth="yes"/>
			<point x="14.856" y="35.144"/>
			<point x="75.888" y="-25.776"/>
			<point x="190.656" y="-25.776" type="curve" smooth="yes"/>
			<point x="370.624" y="-25.776"/>
			<point x="457.952" y="94.808"/>
			<point x="457.952" y="221.264" type="curve" smooth="yes"/>
			<point x="457.952" y="314.128"/>
			<point x="396.92" y="375.048"/>
		</contour>
		<contour>
			<point x="490.528" y="1063.44" type="curve" smooth="yes"/>
			<point x="310.56" y="1063.44"/>
			<point x="223.232" y="942.856"/>
			<point x="223.232" y="816.048" type="curve" smooth="yes"/>
			<point x="223.232" y="723.536"/>
			<point x="284.264" y="662.616"/>
			<point x="399.032" y="662.616" type="curve" smooth="yes"/>
			<point x="579" y="662.616"/>
			<point x="666.328" y="783.2"/>
			<point x="666.328" y="909.656" type="curve" smooth="yes"/>
			<point x="666.328" y="1002.52"/>
			<point x="605.296" y="1063.44"/>
		</contour>
	</outline>
</glyph>
<glyph name="semicolon" format="2">
	<unicode hex="003B"/>
	<advance width="679.448"/>
	<outline>
		<contour>
			<point x="-141.888" y="-269.592" type="curve"/>
			<point x="-74.336" y="-386.344" type="line"/>
			<point x="336.944" y="-159.032"/>
			<point x="437.568" y="2.664"/>
			<point x="437.568" y="199.56" type="curve" smooth="yes"/>
			<point x="437.568" y="313.256"/>
			<point x="371.072" y="372.936"/>
			<point x="252.952" y="372.936" type="curve" smooth="yes"/>
			<point x="114.312" y="372.936"/>
			<point x="23.688" y="267.776"/>
			<point x="23.688" y="171.376" type="curve" smooth="yes"/>
			<point x="23.688" y="125.36"/>
			<point x="131.384" y="94.12"/>
			<point x="131.384" y="1.144" type="curve" smooth="yes"/>
			<point x="131.384" y="-69.984"/>
			<point x="80.68" y="-140.296"/>
		</contour>
		<contour>
			<point x="490.328" y="1063.44" type="curve" smooth="yes"/>
			<point x="310.36" y="1063.44"/>
			<point x="223.032" y="942.856"/>
			<point x="223.032" y="816.048" type="curve" smooth="yes"/>
			<point x="223.032" y="723.536"/>
			<point x="284.064" y="662.616"/>
			<point x="398.832" y="662.616" type="curve" smooth="yes"/>
			<point x="578.8" y="662.616"/>
			<point x="666.128" y="783.2"/>
			<point x="666.128" y="909.656" type="curve" smooth="yes"/>
			<point x="666.128" y="1002.52"/>
			<point x="605.096" y="1063.44"/>
		</contour>
	</outline>
</glyph>
<glyph name="less" format="2">
	<unicode hex="003C"/>
	<advance width="1200"/>
	<outline>
		<contour>
			<point x="246.848" y="434.416" type="line"/>
			<point x="1108.184" y="776.248" type="line"/>
			<point x="1186.88" y="1032.816" type="line"/>
			<point x="179.944" y="622.952" type="line"/>
			<point x="116.376" y="415.12" type="line"/>
			<point x="873.816" y="6.256" type="line"/>
			<point x="938.032" y="218.976" type="line"/>
			<point x="285.936" y="561.568" type="line"/>
		</contour>
	</outline>
</glyph>
<glyph name="greater" format="2">
	<unicode hex="003E"/>
	<advance width="1200"/>
	<outline>
		<contour>
			<point x="953.096" y="603.656" type="line"/>
			<point x="91.76" y="262.176" type="line"/>
			<point x="13.064" y="5.608" type="line"/>
			<point x="1020" y="415.12" type="line"/>
			<point x="1083.568" y="622.952" type="line"/>
			<point x="326.48" y="1032.168" type="line"/>
			<point x="262.264" y="819.096" type="line"/>
			<point x="914.008" y="476.856" type="line"/>
		</contour>
	</outline>
</glyph>
<glyph name="question" format="2">
  <advance width="1374.872"/>
  <unicode hex="003F"/>
  <outline>
    <contour>
      <point x="611.336" y="356.256" type="curve" smooth="yes"/>
      <point x="417.112" y="356.256"/>
      <point x="336.912" y="244.09600000000003"/>
      <point x="336.912" y="112.75200000000001" type="curve" smooth="yes"/>
      <point x="336.912" y="24.776000000000003"/>
      <point x="391.464" y="-25.776"/>
      <point x="498.456" y="-25.776" type="curve" smooth="yes"/>
      <point x="692.68" y="-25.776"/>
      <point x="772.8800000000001" y="86.384"/>
      <point x="772.8800000000001" y="217.376" type="curve" smooth="yes"/>
      <point x="772.8800000000001" y="305.70399999999995"/>
      <point x="718.328" y="356.256"/>
    </contour>
    <contour>
      <point x="780.416" y="1440.48" type="curve" smooth="yes"/>
      <point x="404.27200000000005" y="1440.48"/>
      <point x="273.264" y="1340.5040000000001"/>
      <point x="273.264" y="1198.1280000000002" type="curve" smooth="yes"/>
      <point x="273.264" y="1111.136"/>
      <point x="337.24" y="1050.2160000000001"/>
      <point x="431.88" y="1050.2160000000001" type="curve" smooth="yes"/>
      <point x="470.23199999999997" y="1050.2160000000001"/>
      <point x="551.1519999999999" y="1225.096"/>
      <point x="780.256" y="1225.096" type="curve" smooth="yes"/>
      <point x="949.04" y="1225.096"/>
      <point x="1029.84" y="1142.512"/>
      <point x="1029.84" y="1021.376" type="curve" smooth="yes"/>
      <point x="1029.84" y="877.144"/>
      <point x="942.616" y="814.5840000000001"/>
      <point x="599.2959999999999" y="838.64" type="curve"/>
      <point x="521.8879999999999" y="492.67199999999997" type="line"/>
      <point x="763.2479999999999" y="492.67199999999997" type="line"/>
      <point x="887.2080000000001" y="721.168" type="line"/>
      <point x="744.72" y="633.52" type="line"/>
      <point x="1224.4479999999999" y="599.56"/>
      <point x="1403.664" y="749.1519999999999"/>
      <point x="1403.664" y="1006.8" type="curve" smooth="yes"/>
      <point x="1403.664" y="1239.3600000000001"/>
      <point x="1205.528" y="1440.48"/>
    </contour>
  </outline>
</glyph>
<glyph name="at" format="2">
	<unicode hex="0040"/>
	<advance width="1957.768"/>
	<outline>
		<contour>
			<point x="1492.504" y="306.52" type="curve" smooth="yes"/>
			<point x="1420.856" y="306.52"/>
			<point x="1388.8" y="336.408"/>
			<point x="1388.8" y="404.112" type="curve" smooth="yes"/>
			<point x="1388.8" y="434.408"/>
			<point x="1393.8" y="469.352"/>
			<point x="1408.744" y="516.184" type="curve" smooth="yes"/>
			<point x="1556.856" y="1016.96" type="line"/>
			<point x="1310.448" y="1016.96" type="line"/>
			<point x="1205.936" y="854.168" type="line"/>
			<point x="1161.344" y="734.76" type="line" smooth="yes"/>
			<point x="1087.288" y="531.424"/>
			<point x="980.576" y="384.584"/>
			<point x="898.032" y="384.584" type="curve" smooth="yes"/>
			<point x="850.952" y="384.584"/>
			<point x="828.728" y="408.512"/>
			<point x="828.728" y="461.72" type="curve" smooth="yes"/>
			<point x="828.728" y="618.928"/>
			<point x="988.36" y="866.064"/>
			<point x="1113.296" y="866.064" type="curve" smooth="yes"/>
			<point x="1171.04" y="866.064"/>
			<point x="1196.304" y="840.192"/>
			<point x="1227.176" y="771.376" type="curve"/>
			<point x="1247.064" y="810.504" type="line"/>
			<point x="1200.768" y="962.072"/>
			<point x="1123.936" y="1038.552"/>
			<point x="1007.992" y="1038.552" type="curve" smooth="yes"/>
			<point x="746.712" y="1038.552"/>
			<point x="494.328" y="713.624"/>
			<point x="494.328" y="428.056" type="curve" smooth="yes"/>
			<point x="494.328" y="277.264"/>
			<point x="588.824" y="173.544"/>
			<point x="743.416" y="173.544" type="curve" smooth="yes"/>
			<point x="896.024" y="173.544"/>
			<point x="985.064" y="254.544"/>
			<point x="1143.008" y="537.632" type="curve"/>
			<point x="1167.136" y="537.632" type="line"/>
			<point x="1149.432" y="487.576" type="line" smooth="yes"/>
			<point x="1136.376" y="447.52"/>
			<point x="1129.024" y="409.464"/>
			<point x="1129.024" y="375.464" type="curve" smooth="yes"/>
			<point x="1129.024" y="240.024"/>
			<point x="1221.448" y="160.712"/>
			<point x="1417.976" y="160.712" type="curve" smooth="yes"/>
			<point x="1731.44" y="160.712"/>
			<point x="1956.264" y="439.232"/>
			<point x="1956.264" y="840.632" type="curve" smooth="yes"/>
			<point x="1956.264" y="1218.616"/>
			<point x="1679.728" y="1440.48"/>
			<point x="1220.032" y="1440.48" type="curve" smooth="yes"/>
			<point x="478.704" y="1440.48"/>
			<point x="104.152" y="978.328"/>
			<point x="104.152" y="402" type="curve" smooth="yes"/>
			<point x="104.152" y="-27.76"/>
			<point x="378.136" y="-261.44"/>
			<point x="893.832" y="-261.44" type="curve" smooth="yes"/>
			<point x="1155.296" y="-261.44"/>
			<point x="1376.96" y="-200.976"/>
			<point x="1601.512" y="-80.624" type="curve"/>
			<point x="1553.16" y="21.376" type="line"/>
			<point x="1342.792" y="-85.328"/>
			<point x="1134.312" y="-140.088"/>
			<point x="946.512" y="-140.088" type="curve" smooth="yes"/>
			<point x="484.704" y="-140.088"/>
			<point x="256.688" y="59.336"/>
			<point x="256.688" y="428.296" type="curve" smooth="yes"/>
			<point x="256.688" y="937.176"/>
			<point x="583.808" y="1326.72"/>
			<point x="1196.256" y="1326.72" type="curve" smooth="yes"/>
			<point x="1599.208" y="1326.72"/>
			<point x="1814.728" y="1146.264"/>
			<point x="1814.728" y="823.912" type="curve" smooth="yes"/>
			<point x="1814.728" y="512.656"/>
			<point x="1664.36" y="306.52"/>
		</contour>
	</outline>
</glyph>
<glyph name="A" format="2">
	<unicode hex="0041"/>
	<advance width="1752.088"/>
	<outline>
		<contour>
			<point x="384.248" y="418.272" type="line"/>
			<point x="1087.632" y="418.272" type="line"/>
			<point x="1154.424" y="614.168" type="line"/>
			<point x="450.688" y="614.168" type="line"/>
		</contour>
		<contour>
			<point x="1471.16" y="157.96" type="line"/>
			<point x="1351.904" y="1421.04" type="line"/>
			<point x="891.264" y="1421.04" type="line"/>
			<point x="66.04" y="156.016" type="line"/>
			<point x="-94" y="105.184" type="line"/>
			<point x="-127.592" y="0" type="line"/>
			<point x="432.048" y="0" type="line"/>
			<point x="464.64" y="105.184" type="line"/>
			<point x="313.304" y="156.016" type="line"/>
			<point x="1042.048" y="1302.304" type="line"/>
			<point x="983.592" y="1295.176" type="line"/>
			<point x="1069.888" y="156.664" type="line"/>
			<point x="894.144" y="105.184" type="line"/>
			<point x="859.904" y="0" type="line"/>
			<point x="1604.456" y="0" type="line"/>
			<point x="1638.048" y="105.184" type="line"/>
		</contour>
	</outline>
	<anchor name="UCtop" x="1101.512" y="1414"/>
	<anchor name="bottom" x="648.288" y="0"/>
	<anchor name="right" x="1437.824" y="0"/>
</glyph>
<glyph name="B" format="2">
	<unicode hex="0042"/>
	<advance width="1622.624"/>
	<outline>
		<contour>
			<point x="717.576" y="1210.328" type="line"/>
			<point x="1053.984" y="1210.328" type="line" smooth="yes"/>
			<point x="1166.4" y="1210.328"/>
			<point x="1208.424" y="1171.472"/>
			<point x="1208.424" y="1093.744" type="curve" smooth="yes"/>
			<point x="1208.424" y="964.864"/>
			<point x="1150.952" y="838.608"/>
			<point x="1002.792" y="838.608" type="curve" smooth="yes"/>
			<point x="605.368" y="838.608" type="line"/>
			<point x="542.944" y="645.952" type="line"/>
			<point x="937.832" y="645.952" type="line" smooth="yes"/>
			<point x="1054.88" y="645.952"/>
			<point x="1095.496" y="597.224"/>
			<point x="1095.496" y="517.92" type="curve" smooth="yes"/>
			<point x="1095.496" y="348.296"/>
			<point x="1021.336" y="217.928"/>
			<point x="834.6" y="217.928" type="curve" smooth="yes"/>
			<point x="413.808" y="217.928" type="line"/>
			<point x="348.128" y="0" type="line"/>
			<point x="889.464" y="0" type="line" smooth="yes"/>
			<point x="1295.232" y="0"/>
			<point x="1492.36" y="187.688"/>
			<point x="1492.36" y="485.608" type="curve" smooth="yes"/>
			<point x="1492.36" y="660.088"/>
			<point x="1398.416" y="754.888"/>
			<point x="1146.944" y="768.536" type="curve"/>
			<point x="1129.928" y="749.536" type="line"/>
			<point x="1433.808" y="753.056"/>
			<point x="1608.064" y="879.688"/>
			<point x="1608.064" y="1128.464" type="curve" smooth="yes"/>
			<point x="1608.064" y="1301.608"/>
			<point x="1498.864" y="1414"/>
			<point x="1181.912" y="1414" type="curve" smooth="yes"/>
			<point x="779.776" y="1414" type="line"/>
		</contour>
		<contour>
			<point x="493.6" y="1256.04" type="line"/>
			<point x="154.784" y="160.552" type="line"/>
			<point x="-21.664" y="105.184" type="line"/>
			<point x="-53.96" y="0" type="line"/>
			<point x="510.888" y="0" type="line"/>
			<point x="946.128" y="1414" type="line"/>
			<point x="361.744" y="1414" type="line"/>
			<point x="330.096" y="1308.816" type="line"/>
		</contour>
	</outline>
	<anchor name="UCtop" x="1007.088" y="1414"/>
	<anchor name="bottom" x="694.648" y="0"/>
</glyph>
<glyph name="C" format="2">
	<unicode hex="0043"/>
	<advance width="1573.32"/>
	<outline>
		<contour>
			<point x="1231.976" y="235.808" type="line"/>
			<point x="1132.712" y="203.472"/>
			<point x="1023.04" y="182.84"/>
			<point x="946.048" y="182.84" type="curve" smooth="yes"/>
			<point x="693.56" y="182.84"/>
			<point x="552.296" y="300.864"/>
			<point x="552.296" y="571.608" type="curve" smooth="yes"/>
			<point x="552.296" y="960.648"/>
			<point x="740.024" y="1215.792"/>
			<point x="1151.8" y="1215.792" type="curve" smooth="yes"/>
			<point x="1252.656" y="1215.792"/>
			<point x="1342.472" y="1195.904"/>
			<point x="1407.96" y="1150.216" type="curve"/>
			<point x="1324.808" y="1317.472" type="line"/>
			<point x="1365.552" y="918.528" type="line"/>
			<point x="1552.616" y="918.528" type="line"/>
			<point x="1647.168" y="1502.144" type="line"/>
			<point x="1510.896" y="1502.144" type="line"/>
			<point x="1356.44" y="1363.872" type="line"/>
			<point x="1550.464" y="1374.648" type="line"/>
			<point x="1442.856" y="1415.48"/>
			<point x="1323.024" y="1440.48"/>
			<point x="1170.472" y="1440.48" type="curve" smooth="yes"/>
			<point x="475.712" y="1440.48"/>
			<point x="156.448" y="1060.888"/>
			<point x="156.448" y="556.608" type="curve" smooth="yes"/>
			<point x="156.448" y="213.68"/>
			<point x="356.04" y="-26.48"/>
			<point x="828.416" y="-26.48" type="curve" smooth="yes"/>
			<point x="1032.04" y="-26.48"/>
			<point x="1178.672" y="0.28"/>
			<point x="1305.688" y="38.208" type="curve"/>
			<point x="1488.848" y="480.008" type="line"/>
			<point x="1308.208" y="480.008" type="line"/>
			<point x="998.704" y="90.648" type="line"/>
		</contour>
	</outline>
	<anchor name="UCtop" x="1052.728" y="1414"/>
	<anchor name="bottom" x="783.968" y="0"/>
	<anchor name="right" x="1305.424" y="0"/>
</glyph>
<glyph name="D" format="2">
	<unicode hex="0044"/>
	<advance width="1705.24"/>
	<outline>
		<contour>
			<point x="735.568" y="203.024" type="curve" smooth="yes"/>
			<point x="391.936" y="203.024" type="line"/>
			<point x="297.928" y="0" type="line"/>
			<point x="708.856" y="0" type="line" smooth="yes"/>
			<point x="1291.728" y="0"/>
			<point x="1673.328" y="340.32"/>
			<point x="1673.328" y="910.48" type="curve" smooth="yes"/>
			<point x="1673.328" y="1208.728"/>
			<point x="1515.472" y="1414"/>
			<point x="1034.88" y="1414" type="curve" smooth="yes"/>
			<point x="729.928" y="1414" type="line"/>
			<point x="703.312" y="1210.976" type="line"/>
			<point x="977.56" y="1210.976" type="line" smooth="yes"/>
			<point x="1190.16" y="1210.976"/>
			<point x="1279.128" y="1112.856"/>
			<point x="1279.128" y="943.88" type="curve" smooth="yes"/>
			<point x="1279.128" y="634.992"/>
			<point x="1098.336" y="203.024"/>
		</contour>
		<contour>
			<point x="493.6" y="1256.04" type="line"/>
			<point x="154.784" y="160.552" type="line"/>
			<point x="-21.664" y="105.184" type="line"/>
			<point x="-53.96" y="0" type="line"/>
			<point x="510.888" y="0" type="line"/>
			<point x="946.128" y="1414" type="line"/>
			<point x="361.744" y="1414" type="line"/>
			<point x="330.096" y="1308.816" type="line"/>
		</contour>
	</outline>
	<anchor name="UCtop" x="1078.144" y="1414"/>
	<anchor name="bottom" x="742.184" y="0"/>
</glyph>
<glyph name="F" format="2">
	<unicode hex="0046"/>
	<advance width="1462.824"/>
	<outline>
		<contour>
			<point x="1203.552" y="904.928" type="line"/>
			<point x="1048.448" y="904.928" type="line"/>
			<point x="982.632" y="743.72" type="line"/>
			<point x="518.464" y="743.72" type="line"/>
			<point x="461.448" y="560.136" type="line"/>
			<point x="927.264" y="560.136" type="line"/>
			<point x="892.448" y="394.928" type="line"/>
			<point x="1047.552" y="394.928" type="line"/>
			<point x="1125.552" y="649.928" type="line"/>
		</contour>
		<contour>
			<point x="1542.952" y="973.88" type="line"/>
			<point x="1683.136" y="1502.144" type="line"/>
			<point x="1558.696" y="1502.144" type="line"/>
			<point x="1434.664" y="1414" type="line"/>
			<point x="746.776" y="1414" type="line"/>
			<point x="687.112" y="1210.976" type="line"/>
			<point x="1439.608" y="1210.976" type="line"/>
			<point x="1390.424" y="1330.76" type="line"/>
			<point x="1370.424" y="973.88" type="line"/>
		</contour>
		<contour>
			<point x="558.776" y="157.96" type="line"/>
			<point x="946.128" y="1414" type="line"/>
			<point x="361.744" y="1414" type="line"/>
			<point x="330.096" y="1308.816" type="line"/>
			<point x="493.6" y="1256.04" type="line"/>
			<point x="154.784" y="160.552" type="line"/>
			<point x="-21.664" y="105.184" type="line"/>
			<point x="-53.96" y="0" type="line"/>
			<point x="690.632" y="0" type="line"/>
			<point x="721.28" y="105.184" type="line"/>
		</contour>
	</outline>
	<anchor name="UCtop" x="993.248" y="1414"/>
	<anchor name="bottom" x="308.392" y="0"/>
</glyph>
<glyph name="G" format="2">
	<unicode hex="0047"/>
	<advance width="1747.144"/>
	<outline>
		<contour>
			<point x="942.512" y="182.84" type="curve" smooth="yes"/>
			<point x="703.632" y="182.84"/>
			<point x="548.76" y="302.16"/>
			<point x="548.76" y="578.648" type="curve" smooth="yes"/>
			<point x="548.76" y="957.336"/>
			<point x="741.04" y="1215.792"/>
			<point x="1130.376" y="1215.792" type="curve" smooth="yes"/>
			<point x="1247.008" y="1215.792"/>
			<point x="1354.544" y="1200.2"/>
			<point x="1425.976" y="1150.216" type="curve"/>
			<point x="1366.8" y="1317.472" type="line"/>
			<point x="1407.544" y="918.528" type="line"/>
			<point x="1594.608" y="918.528" type="line"/>
			<point x="1689.16" y="1502.144" type="line"/>
			<point x="1552.888" y="1502.144" type="line"/>
			<point x="1398.432" y="1363.872" type="line"/>
			<point x="1568.48" y="1374.648" type="line"/>
			<point x="1451.744" y="1419.072"/>
			<point x="1319.84" y="1440.48"/>
			<point x="1153.272" y="1440.48" type="curve" smooth="yes"/>
			<point x="501.24" y="1440.48"/>
			<point x="154.856" y="1071.904"/>
			<point x="154.856" y="551.424" type="curve" smooth="yes"/>
			<point x="154.856" y="203.832"/>
			<point x="389.896" y="-26.48"/>
			<point x="880.448" y="-26.48" type="curve" smooth="yes"/>
			<point x="1141.824" y="-26.48"/>
			<point x="1330.72" y="9.024"/>
			<point x="1524.088" y="77.824" type="curve"/>
			<point x="1583.896" y="223.424" type="line"/>
			<point x="1445.544" y="223.424" type="line"/>
			<point x="1534.768" y="515.8" type="line"/>
			<point x="1689.64" y="570.52" type="line"/>
			<point x="1721.936" y="676.352" type="line"/>
			<point x="977.344" y="676.352" type="line"/>
			<point x="946.696" y="570.52" type="line"/>
			<point x="1131.424" y="518.392" type="line"/>
			<point x="996" y="78.36" type="line"/>
			<point x="1214.008" y="238.976" type="line"/>
			<point x="1114.04" y="199.6"/>
			<point x="1012.816" y="182.84"/>
		</contour>
	</outline>
	<anchor name="UCtop" x="1068.096" y="1414"/>
	<anchor name="bottom" x="822.296" y="0"/>
</glyph>
<glyph name="H" format="2">
	<unicode hex="0048"/>
	<advance width="1871.392"/>
	<outline>
		<contour>
			<point x="493.336" y="620.432" type="line"/>
			<point x="1449.336" y="620.432" type="line"/>
			<point x="1502.056" y="823.456" type="line"/>
			<point x="547.056" y="823.456" type="line"/>
		</contour>
		<contour>
			<point x="493.6" y="1256.04" type="line"/>
			<point x="154.784" y="160.552" type="line"/>
			<point x="-21.664" y="105.184" type="line"/>
			<point x="-53.96" y="0" type="line"/>
			<point x="690.632" y="0" type="line"/>
			<point x="721.28" y="105.184" type="line"/>
			<point x="558.776" y="157.96" type="line"/>
			<point x="897.592" y="1253.448" type="line"/>
			<point x="1074.04" y="1308.816" type="line"/>
			<point x="1104.688" y="1414" type="line"/>
			<point x="361.744" y="1414" type="line"/>
			<point x="330.096" y="1308.816" type="line"/>
		</contour>
		<contour>
			<point x="1427.32" y="1256.04" type="line"/>
			<point x="1089.152" y="160.552" type="line"/>
			<point x="912.056" y="105.184" type="line"/>
			<point x="881.408" y="0" type="line"/>
			<point x="1624.352" y="0" type="line"/>
			<point x="1656.648" y="105.184" type="line"/>
			<point x="1492.496" y="157.96" type="line"/>
			<point x="1831.312" y="1253.448" type="line"/>
			<point x="2007.76" y="1308.816" type="line"/>
			<point x="2039.056" y="1414" type="line"/>
			<point x="1295.464" y="1414" type="line"/>
			<point x="1264.816" y="1308.816" type="line"/>
		</contour>
	</outline>
	<anchor name="UCtop" x="1187.752" y="1414"/>
	<anchor name="bottom" x="789.952" y="0"/>
</glyph>
<glyph name="I" format="2">
	<unicode hex="0049"/>
	<advance width="937.672"/>
	<outline>
		<contour>
			<point x="493.6" y="1256.04" type="line"/>
			<point x="154.784" y="160.552" type="line"/>
			<point x="-21.664" y="105.184" type="line"/>
			<point x="-53.96" y="0" type="line"/>
			<point x="690.632" y="0" type="line"/>
			<point x="721.28" y="105.184" type="line"/>
			<point x="558.776" y="157.96" type="line"/>
			<point x="897.592" y="1253.448" type="line"/>
			<point x="1074.04" y="1308.816" type="line"/>
			<point x="1104.688" y="1414" type="line"/>
			<point x="361.744" y="1414" type="line"/>
			<point x="330.096" y="1308.816" type="line"/>
		</contour>
	</outline>
	<anchor name="UCtop" x="733.072" y="1414"/>
	<anchor name="right" x="496.272" y="0"/>
	<anchor name="bottom" x="317.952" y="0"/>
</glyph>
<glyph name="J" format="2">
	<unicode hex="004A"/>
	<advance width="1236.792"/>
	<outline>
		<contour>
			<point x="967.224" y="385.448" type="curve" smooth="yes"/>
			<point x="1236.84" y="1253.448" type="line"/>
			<point x="1413.288" y="1308.816" type="line"/>
			<point x="1443.936" y="1414" type="line"/>
			<point x="700.992" y="1414" type="line"/>
			<point x="669.344" y="1308.816" type="line"/>
			<point x="832.848" y="1256.04" type="line"/>
			<point x="576.4" y="428.304" type="line" smooth="yes"/>
			<point x="522.992" y="256.024"/>
			<point x="451.472" y="202.376"/>
			<point x="319.136" y="202.376" type="curve" smooth="yes"/>
			<point x="168.816" y="202.376"/>
			<point x="138.152" y="354.112"/>
			<point x="70.048" y="354.112" type="curve" smooth="yes"/>
			<point x="-18.112" y="354.112"/>
			<point x="-72.832" y="286.784"/>
			<point x="-72.832" y="194.864" type="curve" smooth="yes"/>
			<point x="-72.832" y="63.48"/>
			<point x="30.792" y="-22.48"/>
			<point x="296.416" y="-22.48" type="curve" smooth="yes"/>
			<point x="667.832" y="-22.48"/>
			<point x="892.984" y="147.264"/>
		</contour>
	</outline>
	<anchor name="UCtop" x="1070.152" y="1414"/>
	<anchor name="bottom" x="377.168" y="0"/>
</glyph>
<glyph name="K" format="2">
	<unicode hex="004B"/>
	<advance width="1778.032"/>
	<outline>
		<contour>
			<point x="1519.928" y="154.496" type="line"/>
			<point x="1161.264" y="900.944" type="line"/>
			<point x="1110.68" y="730.16" type="line"/>
			<point x="1741.272" y="1259.928" type="line"/>
			<point x="1912.032" y="1308.816" type="line"/>
			<point x="1945.272" y="1414" type="line"/>
			<point x="1363.232" y="1414" type="line"/>
			<point x="1329.64" y="1308.816" type="line"/>
			<point x="1464.456" y="1261.392" type="line"/>
			<point x="957.16" y="833.16" type="line"/>
			<point x="629.68" y="833.16" type="line"/>
			<point x="572.72" y="630.136" type="line"/>
			<point x="857.08" y="630.136" type="line"/>
			<point x="1095.048" y="109.24" type="line"/>
			<point x="1090.824" y="95.16" type="line"/>
			<point x="1061.752" y="0" type="line"/>
			<point x="1614.416" y="0" type="line"/>
			<point x="1649.008" y="111.184" type="line"/>
		</contour>
		<contour>
			<point x="493.6" y="1256.04" type="line"/>
			<point x="154.784" y="160.552" type="line"/>
			<point x="-21.664" y="105.184" type="line"/>
			<point x="-53.96" y="0" type="line"/>
			<point x="690.632" y="0" type="line"/>
			<point x="721.28" y="105.184" type="line"/>
			<point x="558.776" y="157.96" type="line"/>
			<point x="897.592" y="1253.448" type="line"/>
			<point x="1074.04" y="1308.816" type="line"/>
			<point x="1104.688" y="1414" type="line"/>
			<point x="361.744" y="1414" type="line"/>
			<point x="330.096" y="1308.816" type="line"/>
		</contour>
	</outline>
	<anchor name="UCtop" x="1156.016" y="1414"/>
	<anchor name="bottom" x="849.496" y="0"/>
</glyph>
<glyph name="L" format="2">
	<unicode hex="004C"/>
	<advance width="1439.8"/>
	<outline>
		<contour>
			<point x="897.592" y="1253.448" type="line"/>
			<point x="1074.04" y="1308.816" type="line"/>
			<point x="1104.688" y="1414" type="line"/>
			<point x="361.744" y="1414" type="line"/>
			<point x="330.096" y="1308.816" type="line"/>
			<point x="493.6" y="1256.04" type="line"/>
			<point x="154.784" y="160.552" type="line"/>
			<point x="-21.664" y="105.184" type="line"/>
			<point x="-53.96" y="0" type="line"/>
			<point x="510.888" y="0" type="line"/>
		</contour>
		<contour>
			<point x="871.784" y="102.4" type="line"/>
			<point x="1029.608" y="203.024" type="line"/>
			<point x="225.696" y="203.024" type="line"/>
			<point x="164.736" y="0" type="line"/>
			<point x="927.832" y="0" type="line"/>
			<point x="989.16" y="-92.088" type="line"/>
			<point x="1133.488" y="-92.088" type="line"/>
			<point x="1398.848" y="526.8" type="line"/>
			<point x="1223.672" y="526.8" type="line"/>
		</contour>
	</outline>
	<anchor name="UCtop" x="741.816" y="1414"/>
	<anchor name="right" x="1149.384" y="1414"/>
	<anchor name="bottom" x="567.432" y="0"/>
	<anchor name="mid" x="1302.256" y="825.136"/>
</glyph>
<glyph name="M" format="2">
	<unicode hex="004D"/>
	<advance width="2290.696"/>
	<outline>
		<contour>
			<point x="771.176" y="1324.736" type="line"/>
			<point x="714.256" y="1291.52" type="line"/>
			<point x="688.344" y="0" type="line"/>
			<point x="1111.208" y="0" type="line"/>
			<point x="1889.384" y="1376.52" type="line"/>
			<point x="1899.68" y="1414" type="line"/>
			<point x="1684.344" y="1414" type="line"/>
			<point x="935.816" y="56" type="line"/>
			<point x="1076.744" y="102.008" type="line"/>
			<point x="1102.952" y="1414" type="line"/>
			<point x="385.896" y="1414" type="line"/>
			<point x="354.248" y="1308.816" type="line"/>
			<point x="527.6" y="1233.264" type="line"/>
			<point x="124.208" y="156.664" type="line"/>
			<point x="-49.144" y="105.184" type="line"/>
			<point x="-79.144" y="0" type="line"/>
			<point x="465.12" y="0" type="line"/>
			<point x="495.768" y="105.184" type="line"/>
			<point x="337.304" y="158.608" type="line"/>
		</contour>
		<contour>
			<point x="1826.608" y="1414" type="line"/>
			<point x="1547.232" y="160.552" type="line"/>
			<point x="1380.208" y="105.184" type="line"/>
			<point x="1348.912" y="0" type="line"/>
			<point x="2062.136" y="0" type="line"/>
			<point x="2093.784" y="105.184" type="line"/>
			<point x="1948.28" y="157.96" type="line"/>
			<point x="2199.432" y="1247.336" type="line"/>
			<point x="2381.992" y="1308.816" type="line"/>
			<point x="2413.288" y="1414" type="line"/>
		</contour>
	</outline>
	<anchor name="UCtop" x="1341.688" y="1414"/>
	<anchor name="bottom" x="922.768" y="0"/>
</glyph>
<glyph name="N" format="2">
  <advance width="1760"/>
  <unicode hex="004E"/>
  <anchor x="1152.744" y="1414.0" name="UCtop"/>
  <anchor x="757.344" y="0.0" name="bottom"/>
  <outline>
    <contour>
      <point x="1248.776" y="80.872" type="line"/>
      <point x="1006.5519999999999" y="1414.0" type="line"/>
      <point x="362.024" y="1414.0" type="line"/>
      <point x="332.024" y="1314.648" type="line"/>
      <point x="489.304" y="1242.432" type="line"/>
      <point x="154.32" y="156.66400000000002" type="line"/>
      <point x="-25.368" y="105.18400000000001" type="line"/>
      <point x="-55.01599999999999" y="0.0" type="line"/>
      <point x="516.992" y="0.0" type="line"/>
      <point x="547.288" y="105.18400000000001" type="line"/>
      <point x="373.064" y="159.256" type="line"/>
      <point x="719.12" y="1286.4240000000002" type="line"/>
      <point x="662.72" y="1253.288" type="line"/>
      <point x="893.4079999999999" y="0.0" type="line"/>
      <point x="1357.768" y="0.0" type="line"/>
      <point x="1744.528" y="1257.336" type="line"/>
      <point x="1924.216" y="1308.816" type="line"/>
      <point x="1953.864" y="1414.0" type="line"/>
      <point x="1381.856" y="1414.0" type="line"/>
      <point x="1351.56" y="1308.816" type="line"/>
      <point x="1525.7839999999999" y="1254.7440000000001" type="line"/>
      <point x="1163.528" y="72.496" type="line"/>
    </contour>
  </outline>
</glyph>
<glyph name="O" format="2">
	<unicode hex="004F"/>
	<advance width="1745.92"/>
	<outline>
		<contour>
			<point x="535" y="497.56" type="curve" smooth="yes"/>
			<point x="535" y="857.088"/>
			<point x="711.792" y="1210.256"/>
			<point x="1044.176" y="1210.256" type="curve" smooth="yes"/>
			<point x="1234.544" y="1210.256"/>
			<point x="1325.976" y="1110.208"/>
			<point x="1325.976" y="916.44" type="curve" smooth="yes"/>
			<point x="1325.976" y="556.912"/>
			<point x="1149.184" y="203.744"/>
			<point x="816.8" y="203.744" type="curve" smooth="yes"/>
			<point x="626.432" y="203.744"/>
			<point x="535" y="303.792"/>
		</contour>
		<contour>
			<point x="1710.696" y="883.152" type="curve" smooth="yes"/>
			<point x="1710.696" y="1235.312"/>
			<point x="1496.976" y="1440.48"/>
			<point x="1055.064" y="1440.48" type="curve" smooth="yes"/>
			<point x="495.248" y="1440.48"/>
			<point x="150.28" y="1040.12"/>
			<point x="150.28" y="530.848" type="curve" smooth="yes"/>
			<point x="150.28" y="178.688"/>
			<point x="364" y="-26.48"/>
			<point x="805.912" y="-26.48" type="curve" smooth="yes"/>
			<point x="1365.728" y="-26.48"/>
			<point x="1710.696" y="373.88"/>
		</contour>
	</outline>
	<anchor name="UCtop" x="1098.608" y="1414"/>
	<anchor name="bottom" x="734.424" y="0"/>
	<anchor name="right" x="951.896" y="0"/>
	<anchor name="horn" x="1448.672" y="1414"/>
</glyph>
<glyph name="P" format="2">
	<unicode hex="0050"/>
	<advance width="1520.72"/>
	<outline>
		<contour>
			<point x="945.456" y="726.96" type="curve" smooth="yes"/>
			<point x="529.88" y="726.96" type="line"/>
			<point x="429.688" y="523.936" type="line"/>
			<point x="970.424" y="523.936" type="line" smooth="yes"/>
			<point x="1409.752" y="523.936"/>
			<point x="1597.736" y="781.296"/>
			<point x="1597.736" y="1069.616" type="curve" smooth="yes"/>
			<point x="1597.736" y="1287.984"/>
			<point x="1464.736" y="1414"/>
			<point x="1100.36" y="1414" type="curve" smooth="yes"/>
			<point x="709.776" y="1414" type="line"/>
			<point x="696.12" y="1210.976" type="line"/>
			<point x="999.368" y="1210.976" type="line" smooth="yes"/>
			<point x="1157.272" y="1210.976"/>
			<point x="1217.368" y="1163.304"/>
			<point x="1217.368" y="1066.984" type="curve" smooth="yes"/>
			<point x="1217.368" y="902.656"/>
			<point x="1133.952" y="726.96"/>
		</contour>
		<contour>
			<point x="558.776" y="157.96" type="line"/>
			<point x="946.128" y="1414" type="line"/>
			<point x="361.744" y="1414" type="line"/>
			<point x="330.096" y="1308.816" type="line"/>
			<point x="493.6" y="1256.04" type="line"/>
			<point x="154.784" y="160.552" type="line"/>
			<point x="-21.664" y="105.184" type="line"/>
			<point x="-53.96" y="0" type="line"/>
			<point x="690.632" y="0" type="line"/>
			<point x="721.28" y="105.184" type="line"/>
		</contour>
	</outline>
	<anchor name="UCtop" x="1000.024" y="1414"/>
	<anchor name="bottom" x="308.392" y="0"/>
</glyph>
<glyph name="Q" format="2">
	<unicode hex="0051"/>
	<advance width="1741.088"/>
	<outline>
		<contour>
			<point x="525.176" y="-209.344" type="line" smooth="yes"/>
			<point x="648.16" y="-390.744"/>
			<point x="759.488" y="-465"/>
			<point x="1026.424" y="-465" type="curve" smooth="yes"/>
			<point x="1143.472" y="-465"/>
			<point x="1217.56" y="-453.464"/>
			<point x="1288.56" y="-438.52" type="curve"/>
			<point x="1331.576" y="-273.344" type="line"/>
			<point x="1095.544" y="-279.568"/>
			<point x="1031.2801855561" y="-267.6873019619"/>
			<point x="893.192" y="-122.68" type="curve" smooth="yes"/>
			<point x="636.336" y="147.576" type="line"/>
			<point x="682.216" y="48.664" type="line"/>
			<point x="1332.632" y="-62.752"/>
			<point x="1708.104" y="364.688"/>
			<point x="1708.104" y="883.152" type="curve" smooth="yes"/>
			<point x="1708.104" y="1237.256"/>
			<point x="1483.368" y="1440.48"/>
			<point x="1055.064" y="1440.48" type="curve" smooth="yes"/>
			<point x="503.672" y="1440.48"/>
			<point x="147.688" y="1028.456"/>
			<point x="147.688" y="530.848" type="curve" smooth="yes"/>
			<point x="147.688" y="393.048"/>
			<point x="183.968" y="281.064"/>
			<point x="290.704" y="117.024" type="curve" smooth="yes"/>
		</contour>
		<contour>
			<point x="532.408" y="491.08" type="curve" smooth="yes"/>
			<point x="532.408" y="831.816"/>
			<point x="726.048" y="1210.256"/>
			<point x="1053.248" y="1210.256" type="curve" smooth="yes"/>
			<point x="1237.136" y="1210.256"/>
			<point x="1323.384" y="1111.504"/>
			<point x="1323.384" y="922.92" type="curve" smooth="yes"/>
			<point x="1323.384" y="582.184"/>
			<point x="1129.744" y="203.744"/>
			<point x="802.544" y="203.744" type="curve" smooth="yes"/>
			<point x="618.656" y="203.744"/>
			<point x="532.408" y="302.496"/>
		</contour>
	</outline>
	<anchor name="UCtop" x="1096.016" y="1414"/>
	<anchor name="bottom" x="501.752" y="-329.048"/>
</glyph>
<glyph name="R" format="2">
  <advance width="1704.392"/>
  <unicode hex="0052"/>
  <anchor x="1062.824" y="1414.0" name="UCtop"/>
  <anchor x="820.944" y="0.0" name="bottom"/>
  <outline>
    <contour>
      <point x="1011.024" y="779.352" type="curve" smooth="yes"/>
      <point x="524.3679999999999" y="779.352" type="line"/>
      <point x="480.368" y="597.064" type="line"/>
      <point x="881.392" y="597.064" type="line" smooth="yes"/>
      <point x="1013.4639999999999" y="597.064"/>
      <point x="1027.632" y="559.976"/>
      <point x="1039.8" y="398.08000000000004" type="curve" smooth="yes"/>
      <point x="1052.0240000000001" y="234.624" type="line" smooth="yes"/>
      <point x="1066.7839999999999" y="20.48"/>
      <point x="1117.488" y="-27.848"/>
      <point x="1529.672" y="0.0" type="curve"/>
      <point x="1566.152" y="141.104" type="line"/>
      <point x="1469.968" y="141.104"/>
      <point x="1448.392" y="157.64"/>
      <point x="1437.576" y="283.624" type="curve" smooth="yes"/>
      <point x="1425.0" y="420.912" type="line" smooth="yes"/>
      <point x="1409.184" y="600.968"/>
      <point x="1364.112" y="676.984"/>
      <point x="1186.4160000000002" y="696.224" type="curve"/>
      <point x="1186.4160000000002" y="689.52" type="line"/>
      <point x="1530.9599999999998" y="708.872"/>
      <point x="1678.536" y="875.336"/>
      <point x="1678.536" y="1116.632" type="curve" smooth="yes"/>
      <point x="1678.536" y="1292.1119999999999"/>
      <point x="1561.224" y="1414.0"/>
      <point x="1244.5279999999998" y="1414.0" type="curve" smooth="yes"/>
      <point x="740.048" y="1414.0" type="line"/>
      <point x="669.1279999999999" y="1210.9759999999999" type="line"/>
      <point x="1145.28" y="1210.9759999999999" type="line" smooth="yes"/>
      <point x="1239.072" y="1210.9759999999999"/>
      <point x="1280.4479999999999" y="1170.712"/>
      <point x="1280.4479999999999" y="1088.928" type="curve" smooth="yes"/>
      <point x="1280.4479999999999" y="936.8480000000001"/>
      <point x="1210.76" y="779.352"/>
    </contour>
    <contour>
      <point x="558.7760000000001" y="157.96" type="line"/>
      <point x="946.128" y="1414.0" type="line"/>
      <point x="361.744" y="1414.0" type="line"/>
      <point x="330.096" y="1308.816" type="line"/>
      <point x="493.6" y="1256.0400000000002" type="line"/>
      <point x="154.784" y="160.552" type="line"/>
      <point x="-21.664" y="105.18400000000001" type="line"/>
      <point x="-53.96" y="0.0" type="line"/>
      <point x="690.6320000000001" y="0.0" type="line"/>
      <point x="721.28" y="105.18400000000001" type="line"/>
    </contour>
  </outline>
</glyph>
<glyph name="S" format="2">
	<unicode hex="0053"/>
	<advance width="1383.048"/>
	<outline>
		<contour>
			<point x="1209.056" y="1172.512" type="curve"/>
			<point x="1144.896" y="1287.016" type="line"/>
			<point x="1184.368" y="971.984" type="line"/>
			<point x="1361.432" y="971.984" type="line"/>
			<point x="1454.256" y="1502.144" type="line"/>
			<point x="1317.984" y="1502.144" type="line"/>
			<point x="1189.136" y="1367.112" type="line"/>
			<point x="1357.976" y="1352.536" type="line"/>
			<point x="1268.64" y="1410.944"/>
			<point x="1116.536" y="1440.48"/>
			<point x="955.984" y="1440.48" type="curve" smooth="yes"/>
			<point x="512.032" y="1440.48"/>
			<point x="273.008" y="1256"/>
			<point x="273.008" y="947.752" type="curve" smooth="yes"/>
			<point x="273.008" y="759.192"/>
			<point x="380.312" y="689.064"/>
			<point x="549.032" y="623.808" type="curve" smooth="yes"/>
			<point x="717.752" y="558.552"/>
			<point x="891.728" y="535.64"/>
			<point x="891.728" y="408.632" type="curve" smooth="yes"/>
			<point x="891.728" y="266.976"/>
			<point x="776.352" y="184.264"/>
			<point x="515.272" y="184.264" type="curve" smooth="yes"/>
			<point x="382.52" y="184.264"/>
			<point x="265.992" y="213.056"/>
			<point x="167.648" y="249.44" type="curve"/>
			<point x="393.024" y="26.392" type="line"/>
			<point x="252.64" y="481.952" type="line"/>
			<point x="86.832" y="481.952" type="line"/>
			<point x="79.504" y="27.464" type="line"/>
			<point x="177.912" y="0.296"/>
			<point x="312.368" y="-26.48"/>
			<point x="483.944" y="-26.48" type="curve" smooth="yes"/>
			<point x="1002.864" y="-26.48"/>
			<point x="1260.744" y="183.664"/>
			<point x="1260.744" y="528.616" type="curve" smooth="yes"/>
			<point x="1260.744" y="749.304"/>
			<point x="1089.096" y="825.136"/>
			<point x="922.152" y="878.544" type="curve" smooth="yes"/>
			<point x="755.208" y="931.952"/>
			<point x="628.952" y="958.472"/>
			<point x="628.952" y="1067.072" type="curve" smooth="yes"/>
			<point x="628.952" y="1170.488"/>
			<point x="697.328" y="1233.44"/>
			<point x="938.888" y="1233.44" type="curve" smooth="yes"/>
			<point x="1037.912" y="1233.44"/>
			<point x="1152.168" y="1208.976"/>
		</contour>
	</outline>
	<anchor name="UCtop" x="878.12" y="1414"/>
	<anchor name="bottom" x="624.56" y="0"/>
</glyph>
<glyph name="T" format="2">
  <advance width="1631"/>
  <unicode hex="0054"/>
  <anchor x="1087.144" y="1414.0" name="UCtop"/>
  <anchor x="669.208" y="0.0" name="bottom"/>
  <outline>
    <contour>
      <point x="1561.84" y="1207.4560000000001" type="line"/>
      <point x="1490.6080000000002" y="1277.856" type="line"/>
      <point x="1540.528" y="890.3839999999999" type="line"/>
      <point x="1707.224" y="890.3839999999999" type="line"/>
      <point x="1787.816" y="1510.48" type="line"/>
      <point x="1641.288" y="1510.48" type="line"/>
      <point x="1502.776" y="1379.984" type="line"/>
      <point x="1666.36" y="1414.0" type="line"/>
      <point x="470.552" y="1414.0" type="line"/>
      <point x="617.432" y="1379.984" type="line"/>
      <point x="561.992" y="1510.48" type="line"/>
      <point x="412.224" y="1510.48" type="line"/>
      <point x="165.896" y="890.384" type="line"/>
      <point x="346.42400000000004" y="890.384" type="line"/>
      <point x="626.856" y="1259.712" type="line"/>
      <point x="481.592" y="1207.4560000000001" type="line"/>
    </contour>
    <contour>
      <point x="862.32" y="1317.6000000000001" type="line"/>
      <point x="504.98400000000004" y="160.552" type="line"/>
      <point x="325.944" y="105.18400000000001" type="line"/>
      <point x="294.296" y="0.0" type="line"/>
      <point x="1038.24" y="0.0" type="line"/>
      <point x="1068.888" y="105.18400000000001" type="line"/>
      <point x="908.976" y="157.96" type="line"/>
      <point x="1266.96" y="1317.6000000000001" type="line"/>
    </contour>
  </outline>
</glyph>
<glyph name="V" format="2">
	<unicode hex="0056"/>
	<advance width="1685.744"/>
	<outline>
		<contour>
			<point x="393.872" y="1256.04" type="line"/>
			<point x="487.208" y="-7.04" type="line"/>
			<point x="947.848" y="-7.04" type="line"/>
			<point x="1736.592" y="1257.984" type="line"/>
			<point x="1890.152" y="1308.816" type="line"/>
			<point x="1923.744" y="1414" type="line"/>
			<point x="1364.104" y="1414" type="line"/>
			<point x="1331.512" y="1308.816" type="line"/>
			<point x="1489.328" y="1257.984" type="line"/>
			<point x="797.064" y="111.696" type="line"/>
			<point x="855.52" y="118.824" type="line"/>
			<point x="795.144" y="1257.336" type="line"/>
			<point x="970.888" y="1308.816" type="line"/>
			<point x="1005.128" y="1414" type="line"/>
			<point x="260.576" y="1414" type="line"/>
			<point x="226.984" y="1308.816" type="line"/>
		</contour>
	</outline>
	<anchor name="UCtop" x="1144.544" y="1414"/>
	<anchor name="bottom" x="743.224" y="0"/>
</glyph>
<glyph name="W" format="2">
  <advance width="2349"/>
  <unicode hex="0057"/>
  <anchor x="1515.864" y="1414.0" name="UCtop"/>
  <anchor x="1093.424" y="0.0" name="bottom"/>
  <outline>
    <contour>
      <point x="2163.992" y="1257.9840000000002" type="line"/>
      <point x="1607.0240000000001" y="118.08799999999998" type="line"/>
      <point x="1668.024" y="92.168" type="line"/>
      <point x="1777.024" y="1414.0" type="line"/>
      <point x="1294.04" y="1414.0" type="line"/>
      <point x="653.232" y="132.344" type="line"/>
      <point x="710.4159999999999" y="131.696" type="line"/>
      <point x="814.1279999999999" y="1250.208" type="line"/>
      <point x="976.912" y="1307.52" type="line"/>
      <point x="1010.152" y="1414.0" type="line"/>
      <point x="272.56" y="1414.0" type="line"/>
      <point x="239.968" y="1307.52" type="line"/>
      <point x="407.152" y="1248.264" type="line"/>
      <point x="312.752" y="0.0" type="line"/>
      <point x="806.6479999999999" y="0.0" type="line"/>
      <point x="1393.1599999999999" y="1138.424" type="line"/>
      <point x="1335.592" y="1107.32" type="line"/>
      <point x="1251.752" y="0.0" type="line"/>
      <point x="1758.568" y="0.0" type="line"/>
      <point x="2400.68" y="1257.9840000000002" type="line"/>
      <point x="2554.24" y="1308.816" type="line"/>
      <point x="2587.48" y="1414.0" type="line"/>
      <point x="2039.12" y="1414.0" type="line"/>
      <point x="2006.176" y="1308.816" type="line"/>
    </contour>
  </outline>
</glyph>
<glyph name="X" format="2">
	<unicode hex="0058"/>
	<advance width="1752.04"/>
	<outline>
		<contour>
			<point x="837.296" y="623.208" type="line"/>
			<point x="1051.4" y="639.312" type="line"/>
			<point x="1713.32" y="1252.152" type="line"/>
			<point x="1877.248" y="1308.816" type="line"/>
			<point x="1909.192" y="1414" type="line"/>
			<point x="1334.816" y="1414" type="line"/>
			<point x="1302.872" y="1308.816" type="line"/>
			<point x="1447.632" y="1255.392" type="line"/>
			<point x="979.904" y="809.448" type="line"/>
			<point x="765.8" y="792.992" type="line"/>
			<point x="84.168" y="161.848" type="line"/>
			<point x="-79.76" y="105.184" type="line"/>
			<point x="-111.704" y="0" type="line"/>
			<point x="462.672" y="0" type="line"/>
			<point x="494.616" y="105.184" type="line"/>
			<point x="349.856" y="158.608" type="line"/>
		</contour>
		<contour>
			<point x="1014.008" y="163.792" type="line"/>
			<point x="838.824" y="105.184" type="line"/>
			<point x="805.88" y="0" type="line"/>
			<point x="1593.2" y="0" type="line"/>
			<point x="1626.792" y="105.184" type="line"/>
			<point x="1472.512" y="177.4" type="line"/>
			<point x="1135.424" y="809.216" type="line"/>
			<point x="1108.776" y="858.272" type="line"/>
			<point x="895.312" y="1257.984" type="line"/>
			<point x="1048.816" y="1306.872" type="line"/>
			<point x="1081.408" y="1414" type="line"/>
			<point x="314.824" y="1414" type="line"/>
			<point x="282.88" y="1308.816" type="line"/>
			<point x="435.864" y="1248.264" type="line"/>
			<point x="731.176" y="694.872" type="line"/>
			<point x="758.712" y="643.04" type="line"/>
		</contour>
	</outline>
	<anchor name="UCtop" x="1135.76" y="1414"/>
	<anchor name="bottom" x="709.8" y="0"/>
</glyph>
<glyph name="Y" format="2">
	<unicode hex="0059"/>
	<advance width="1655.296"/>
	<outline>
		<contour>
			<point x="1439.976" y="1251.504" type="line"/>
			<point x="915.488" y="686.368" type="line"/>
			<point x="1004.352" y="686.368" type="line"/>
			<point x="796.184" y="1245.672" type="line"/>
			<point x="960.352" y="1308.816" type="line"/>
			<point x="992.944" y="1414" type="line"/>
			<point x="269.984" y="1414" type="line"/>
			<point x="238.04" y="1308.816" type="line"/>
			<point x="402.04" y="1243.728" type="line"/>
			<point x="665.112" y="593.96" type="line"/>
			<point x="530.464" y="160.552" type="line"/>
			<point x="354.016" y="105.184" type="line"/>
			<point x="321.72" y="0" type="line"/>
			<point x="1066.312" y="0" type="line"/>
			<point x="1096.96" y="105.184" type="line"/>
			<point x="934.456" y="157.96" type="line"/>
			<point x="1071.456" y="598.128" type="line"/>
			<point x="1705.96" y="1257.984" type="line"/>
			<point x="1857.408" y="1308.816" type="line"/>
			<point x="1891" y="1414" type="line"/>
			<point x="1319.752" y="1414" type="line"/>
			<point x="1287.16" y="1308.816" type="line"/>
		</contour>
	</outline>
	<anchor name="UCtop" x="1094.496" y="1414"/>
	<anchor name="bottom" x="693.632" y="0"/>
</glyph>
<glyph name="Z" format="2">
  <advance width="1467.432"/>
  <unicode hex="005A"/>
  <anchor x="1025.1280000000002" y="1414.0" name="UCtop"/>
  <anchor x="585.088" y="0.0" name="bottom"/>
  <outline>
    <contour>
      <point x="1582.3039999999999" y="1414.0" type="line"/>
      <point x="603.2" y="1414.0" type="line"/>
      <point x="535.0" y="1497.608" type="line"/>
      <point x="416.392" y="1497.608" type="line"/>
      <point x="243.472" y="958.5840000000001" type="line"/>
      <point x="414.056" y="958.584" type="line"/>
      <point x="578.624" y="1210.9759999999999" type="line"/>
      <point x="1349.936" y="1210.9759999999999" type="line"/>
      <point x="1129.3519999999999" y="1307.264" type="line"/>
      <point x="52.712" y="196.912" type="line"/>
      <point x="-5.783999999999999" y="0.0" type="line"/>
      <point x="945.8480000000001" y="0.0" type="line"/>
      <point x="989.12" y="-92.73599999999999" type="line"/>
      <point x="1127.616" y="-92.73599999999999" type="line"/>
      <point x="1380.1840000000002" y="491.616" type="line"/>
      <point x="1213.656" y="491.61600000000004" type="line"/>
      <point x="981.1999999999999" y="203.024" type="line"/>
      <point x="257.928" y="203.024" type="line"/>
      <point x="443.224" y="105.736" type="line"/>
      <point x="1520.864" y="1217.088" type="line"/>
    </contour>
  </outline>
</glyph>
<glyph name="bracketleft" format="2">
	<unicode hex="005B"/>
	<advance width="840.664"/>
	<outline>
		<contour>
			<point x="-26.328" y="-218.408" type="line"/>
			<point x="555.608" y="-218.408" type="line"/>
			<point x="611.752" y="-34.848" type="line"/>
			<point x="314.088" y="-34.848" type="line"/>
			<point x="716.504" y="1280.44" type="line"/>
			<point x="1014.168" y="1280.44" type="line"/>
			<point x="1070.312" y="1464" type="line"/>
			<point x="488.024" y="1464" type="line"/>
		</contour>
	</outline>
</glyph>
<glyph name="backslash" format="2">
	<unicode hex="005C"/>
	<advance width="915.312"/>
	<outline>
		<contour>
			<point x="707.272" y="0" type="line"/>
			<point x="556.904" y="1414" type="line"/>
			<point x="320.744" y="1414" type="line"/>
			<point x="471.112" y="0" type="line"/>
		</contour>
	</outline>
</glyph>
<glyph name="bracketright" format="2">
	<unicode hex="005D"/>
	<advance width="840.664"/>
	<outline>
		<contour>
			<point x="930.344" y="1464" type="line"/>
			<point x="348.408" y="1464" type="line"/>
			<point x="292.264" y="1280.44" type="line"/>
			<point x="589.928" y="1280.44" type="line"/>
			<point x="187.512" y="-34.848" type="line"/>
			<point x="-110.152" y="-34.848" type="line"/>
			<point x="-166.296" y="-218.408" type="line"/>
			<point x="415.992" y="-218.408" type="line"/>
		</contour>
	</outline>
</glyph>
<glyph name="asciicircum" format="2">
  <advance width="1200.0"/>
  <unicode hex="005E"/>
  <outline>
    <contour>
      <point x="797.768" y="1273.696" type="line"/>
      <point x="890.456" y="648.944" type="line"/>
      <point x="1096.936" y="648.944" type="line"/>
      <point x="979.7679999999999" y="1414.0" type="line"/>
      <point x="773.64" y="1414.0" type="line"/>
      <point x="188.472" y="648.944" type="line"/>
      <point x="435.208" y="648.944" type="line"/>
      <point x="910.384" y="1273.696" type="line"/>
    </contour>
  </outline>
</glyph>
<glyph name="a" format="2">
  <advance width="1461.688"/>
  <unicode hex="0061"/>
  <anchor x="942.8480000000001" y="1036.96" name="top"/>
  <anchor x="1300.2240000000002" y="0.0" name="right"/>
  <anchor x="549.04" y="0.0" name="bottom"/>
  <outline>
    <contour>
      <point x="784.976" y="136.712" type="line" smooth="yes"/>
      <point x="735.536" y="15.296000000000001"/>
      <point x="776.1999999999999" y="-26.48"/>
      <point x="912.152" y="-26.48" type="curve" smooth="yes"/>
      <point x="1051.0079999999998" y="-26.48"/>
      <point x="1227.592" y="24.072000000000003"/>
      <point x="1448.608" y="214.45600000000002" type="curve"/>
      <point x="1395.24" y="298.768" type="line"/>
      <point x="1249.072" y="203.008"/>
      <point x="1136.696" y="182.488"/>
      <point x="987.968" y="190.248" type="curve"/>
      <point x="1061.7759999999998" y="76.0" type="line"/>
      <point x="1403.6080000000002" y="1036.96" type="line"/>
      <point x="1124.088" y="1036.96" type="line"/>
      <point x="985.5920000000001" y="845.5920000000001" type="line"/>
      <point x="929.32" y="713.344" type="line" smooth="yes"/>
      <point x="833.408" y="479.512"/>
      <point x="626.5360000000001" y="195.112"/>
      <point x="499.64" y="195.112" type="curve" smooth="yes"/>
      <point x="434.208" y="195.112"/>
      <point x="396.59200000000004" y="226.264"/>
      <point x="396.59200000000004" y="291.512" type="curve" smooth="yes"/>
      <point x="396.59200000000004" y="494.336"/>
      <point x="631.6479999999999" y="869.624"/>
      <point x="827.1519999999999" y="869.624" type="curve" smooth="yes"/>
      <point x="894.176" y="869.624"/>
      <point x="947.904" y="841.936"/>
      <point x="992.592" y="737.304" type="curve"/>
      <point x="1013.088" y="792.176" type="line"/>
      <point x="969.776" y="973.48"/>
      <point x="882.24" y="1063.44"/>
      <point x="733.2239999999999" y="1063.44" type="curve" smooth="yes"/>
      <point x="382.992" y="1063.44"/>
      <point x="33.928" y="615.448"/>
      <point x="33.928" y="254.21599999999998" type="curve" smooth="yes"/>
      <point x="33.928" y="64.408"/>
      <point x="173.736" y="-26.48"/>
      <point x="326.55199999999996" y="-26.48" type="curve" smooth="yes"/>
      <point x="493.88" y="-26.48"/>
      <point x="625.6239999999999" y="43.8"/>
      <point x="882.928" y="458.7679999999999" type="curve"/>
      <point x="913.76" y="458.7679999999999" type="line"/>
    </contour>
  </outline>
</glyph>
<glyph name="b" format="2">
  <advance width="1302"/>
  <unicode hex="0062"/>
  <anchor x="986.0319999999999" y="1414.0" name="UCtop"/>
  <anchor x="439.096" y="0.0" name="bottom"/>
  <outline>
    <contour>
      <point x="448.264" y="358.664" type="curve" smooth="yes"/>
      <point x="476.89599999999996" y="447.74399999999997" type="line" smooth="yes"/>
      <point x="545.88" y="664.952"/>
      <point x="685.192" y="821.664"/>
      <point x="798.72" y="821.664" type="curve" smooth="yes"/>
      <point x="865.208" y="821.664"/>
      <point x="895.1759999999999" y="780.808"/>
      <point x="895.1759999999999" y="692.528" type="curve" smooth="yes"/>
      <point x="895.1759999999999" y="431.424"/>
      <point x="712.872" y="142.304"/>
      <point x="551.688" y="142.304" type="curve" smooth="yes"/>
      <point x="471.272" y="142.304"/>
      <point x="429.024" y="184.568"/>
      <point x="429.024" y="256.11199999999997" type="curve" smooth="yes"/>
      <point x="429.024" y="284.704"/>
      <point x="435.968" y="319.536"/>
    </contour>
    <contour>
      <point x="352.64" y="1181.4640000000002" type="curve"/>
      <point x="120.096" y="400.088" type="line" smooth="yes"/>
      <point x="107.68799999999999" y="357.16"/>
      <point x="100.98400000000001" y="317.288"/>
      <point x="100.98400000000001" y="279.472" type="curve" smooth="yes"/>
      <point x="100.98400000000001" y="97.67999999999999"/>
      <point x="247.328" y="-26.48"/>
      <point x="512.2080000000001" y="-26.48" type="curve" smooth="yes"/>
      <point x="902.056" y="-26.48"/>
      <point x="1262.136" y="379.15200000000004"/>
      <point x="1262.136" y="762.48" type="curve" smooth="yes"/>
      <point x="1262.136" y="939.6239999999999"/>
      <point x="1158.712" y="1063.44"/>
      <point x="982.4" y="1063.44" type="curve" smooth="yes"/>
      <point x="838.5120000000001" y="1063.44"/>
      <point x="702.504" y="983.9920000000001"/>
      <point x="529.816" y="718.136" type="curve"/>
      <point x="495.152" y="718.136" type="line"/>
      <point x="823.608" y="1490.48" type="line"/>
      <point x="766.7040000000001" y="1490.48" type="line"/>
      <point x="174.528" y="1398.8" type="line"/>
      <point x="150.75199999999998" y="1301.288" type="line"/>
      <point x="208.752" y="1267.272"/>
      <point x="314.64000000000004" y="1203.592"/>
    </contour>
  </outline>
</glyph>
<glyph name="c" format="2">
	<unicode hex="0063"/>
	<advance width="1148.768"/>
	<outline>
		<contour>
			<point x="744.576" y="917.04" type="curve" smooth="yes"/>
			<point x="790.072" y="917.04"/>
			<point x="832.256" y="870.192"/>
			<point x="874.016" y="808.192" type="curve" smooth="yes"/>
			<point x="915.776" y="746.192"/>
			<point x="947.832" y="691.92"/>
			<point x="970.888" y="691.92" type="curve" smooth="yes"/>
			<point x="1062.936" y="691.92"/>
			<point x="1147.08" y="760.288"/>
			<point x="1147.08" y="859.096" type="curve" smooth="yes"/>
			<point x="1147.08" y="974.24"/>
			<point x="1042.024" y="1063.44"/>
			<point x="793.464" y="1063.44" type="curve" smooth="yes"/>
			<point x="349.352" y="1063.44"/>
			<point x="72.928" y="755.512"/>
			<point x="72.928" y="378.192" type="curve" smooth="yes"/>
			<point x="72.928" y="99.776"/>
			<point x="211.128" y="-26.48"/>
			<point x="507.04" y="-26.48" type="curve" smooth="yes"/>
			<point x="769.384" y="-26.48"/>
			<point x="941.896" y="98.336"/>
			<point x="1056.024" y="401.856" type="curve"/>
			<point x="951.08" y="401.856" type="line"/>
			<point x="865.264" y="264.352"/>
			<point x="769.168" y="207.704"/>
			<point x="635.28" y="207.704" type="curve" smooth="yes"/>
			<point x="484.856" y="207.704"/>
			<point x="428.056" y="264.704"/>
			<point x="428.056" y="442.928" type="curve" smooth="yes"/>
			<point x="428.056" y="720.512"/>
			<point x="552.048" y="917.04"/>
		</contour>
	</outline>
	<anchor name="top" x="766.48" y="1036.96"/>
	<anchor name="right" x="885.176" y="0"/>
	<anchor name="bottom" x="470.712" y="0"/>
</glyph>
<glyph name="d" format="2">
  <advance width="1465.76"/>
  <unicode hex="0064"/>
  <anchor x="1058.544" y="1414.0" name="UCtop"/>
  <anchor x="1553.288" y="1464.0" name="right"/>
  <anchor x="569.872" y="0.0" name="bottom"/>
  <anchor x="1278.8719999999998" y="1207.0" name="center"/>
  <outline>
    <contour>
      <point x="991.2959999999999" y="737.304" type="curve"/>
      <point x="1011.7919999999999" y="792.1759999999999" type="line"/>
      <point x="968.48" y="973.48"/>
      <point x="882.24" y="1063.44"/>
      <point x="733.224" y="1063.44" type="curve" smooth="yes"/>
      <point x="382.99199999999996" y="1063.44"/>
      <point x="33.928" y="615.448"/>
      <point x="33.928" y="254.216" type="curve" smooth="yes"/>
      <point x="33.928" y="64.408"/>
      <point x="173.736" y="-26.48"/>
      <point x="325.256" y="-26.48" type="curve" smooth="yes"/>
      <point x="492.584" y="-26.48"/>
      <point x="624.328" y="43.800000000000004"/>
      <point x="881.632" y="458.7679999999999" type="curve"/>
      <point x="912.464" y="458.7679999999999" type="line"/>
      <point x="784.976" y="134.12" type="line" smooth="yes"/>
      <point x="736.832" y="12.056000000000001"/>
      <point x="782.0319999999999" y="-26.48"/>
      <point x="917.984" y="-26.48" type="curve" smooth="yes"/>
      <point x="1056.84" y="-26.48"/>
      <point x="1233.424" y="24.072000000000003"/>
      <point x="1454.44" y="214.45600000000002" type="curve"/>
      <point x="1401.0720000000001" y="298.768" type="line"/>
      <point x="1254.904" y="203.008"/>
      <point x="1142.528" y="182.488"/>
      <point x="993.8" y="190.248" type="curve"/>
      <point x="1067.608" y="76.0" type="line"/>
      <point x="1562.2320000000002" y="1490.48" type="line"/>
      <point x="1505.328" y="1490.48" type="line"/>
      <point x="920.928" y="1398.8" type="line"/>
      <point x="897.1519999999999" y="1301.288" type="line"/>
      <point x="954.152" y="1266.821054726368"/>
      <point x="1061.096" y="1201.9365970149254"/>
      <point x="1097.096" y="1180.168" type="curve"/>
      <point x="944.952" y="739.984" type="line" smooth="yes"/>
      <point x="858.8720000000001" y="484.2"/>
      <point x="627.0000000000001" y="195.112"/>
      <point x="498.344" y="195.112" type="curve" smooth="yes"/>
      <point x="432.912" y="195.112"/>
      <point x="395.296" y="226.264"/>
      <point x="395.296" y="291.512" type="curve" smooth="yes"/>
      <point x="395.296" y="494.336"/>
      <point x="630.3520000000001" y="869.624"/>
      <point x="825.856" y="869.624" type="curve" smooth="yes"/>
      <point x="893.528" y="869.624"/>
      <point x="945.9599999999999" y="843.232"/>
    </contour>
  </outline>
</glyph>
<glyph name="e" format="2">
	<unicode hex="0065"/>
	<advance width="1187.544"/>
	<outline>
		<contour>
			<point x="752.168" y="914.632" type="curve" smooth="yes"/>
			<point x="829.84" y="914.632"/>
			<point x="865.992" y="873.832"/>
			<point x="865.992" y="807.512" type="curve" smooth="yes"/>
			<point x="865.992" y="687.904"/>
			<point x="847.808" y="658.792"/>
			<point x="341.592" y="562.072" type="curve"/>
			<point x="334.592" y="457.24" type="line"/>
			<point x="572.808" y="478.592"/>
			<point x="850.136" y="517.408"/>
			<point x="1103.28" y="578.928" type="curve"/>
			<point x="1146.056" y="659.848"/>
			<point x="1163.872" y="736.552"/>
			<point x="1163.872" y="806.2" type="curve" smooth="yes"/>
			<point x="1163.872" y="948.848"/>
			<point x="1060.896" y="1063.44"/>
			<point x="797.168" y="1063.44" type="curve" smooth="yes"/>
			<point x="326.232" y="1063.44"/>
			<point x="68.744" y="733.392"/>
			<point x="68.744" y="349.68" type="curve" smooth="yes"/>
			<point x="68.744" y="109.496"/>
			<point x="207.312" y="-26.48"/>
			<point x="490.912" y="-26.48" type="curve" smooth="yes"/>
			<point x="732.288" y="-26.48"/>
			<point x="926.32" y="76.776"/>
			<point x="1066.096" y="379.824" type="curve"/>
			<point x="959.208" y="379.824" type="line"/>
			<point x="869.096" y="254.744"/>
			<point x="762.112" y="207.704"/>
			<point x="632.76" y="207.704" type="curve" smooth="yes"/>
			<point x="475.208" y="207.704"/>
			<point x="425.168" y="264.704"/>
			<point x="425.168" y="442.928" type="curve" smooth="yes"/>
			<point x="425.168" y="762.136"/>
			<point x="587.064" y="914.632"/>
		</contour>
	</outline>
	<anchor name="top" x="751.76" y="1036.96"/>
	<anchor name="right" x="944.928" y="0"/>
	<anchor name="bottom" x="461.68" y="0"/>
</glyph>
<glyph name="f" format="2">
  <advance width="951.576"/>
  <unicode hex="0066"/>
  <anchor x="1011.16" y="1414.0" name="UCtop"/>
  <anchor x="119.00000000000001" y="-438.52" name="bottom"/>
  <outline>
    <contour>
      <point x="134.632" y="877.488" type="line"/>
      <point x="1050.6480000000001" y="877.488" type="line"/>
      <point x="1050.6480000000001" y="1036.96" type="line"/>
      <point x="134.632" y="1036.96" type="line"/>
    </contour>
    <contour>
      <point x="627.328" y="347.192" type="curve" smooth="yes"/>
      <point x="791.3120000000001" y="1095.9199999999998" type="line" smooth="yes"/>
      <point x="828.888" y="1269.376"/>
      <point x="897.432" y="1332.624"/>
      <point x="1033.16" y="1332.624" type="curve" smooth="yes"/>
      <point x="1084.1760000000002" y="1332.624"/>
      <point x="1116.6000000000001" y="1327.032"/>
      <point x="1138.952" y="1304.088" type="curve" smooth="yes"/>
      <point x="1161.3039999999999" y="1281.144"/>
      <point x="1171.0639999999999" y="1238.68"/>
      <point x="1174.344" y="1166.528" type="curve" smooth="yes"/>
      <point x="1354.016" y="1166.528"/>
      <point x="1410.016" y="1215.176"/>
      <point x="1410.016" y="1314.0800000000002" type="curve" smooth="yes"/>
      <point x="1410.016" y="1421.1680000000001"/>
      <point x="1323.904" y="1490.48"/>
      <point x="1071.976" y="1490.48" type="curve" smooth="yes"/>
      <point x="728.136" y="1490.48"/>
      <point x="473.81600000000003" y="1309.736"/>
      <point x="414.576" y="983.096" type="curve" smooth="yes"/>
      <point x="223.616" y="-69.784" type="line" smooth="yes"/>
      <point x="189.832" y="-249.76000000000002"/>
      <point x="125.06400000000001" y="-309.344"/>
      <point x="26.912" y="-309.344" type="curve" smooth="yes"/>
      <point x="-11.144000000000005" y="-309.344"/>
      <point x="-35.848000000000006" y="-303.992"/>
      <point x="-56.736" y="-276.752" type="curve" smooth="yes"/>
      <point x="-77.624" y="-249.51199999999997"/>
      <point x="-85.328" y="-198.088"/>
      <point x="-90.088" y="-105.592" type="curve" smooth="yes"/>
      <point x="-258.98400000000004" y="-105.592"/>
      <point x="-331.664" y="-158.95999999999998"/>
      <point x="-331.664" y="-265.99199999999996" type="curve" smooth="yes"/>
      <point x="-331.664" y="-395.28000000000003"/>
      <point x="-260.128" y="-465.0"/>
      <point x="-61.976" y="-465.0" type="curve" smooth="yes"/>
      <point x="244.184" y="-465.0"/>
      <point x="498.688" y="-233.872"/>
    </contour>
  </outline>
</glyph>
<glyph name="g" format="2">
	<unicode hex="0067"/>
	<advance width="1252.736"/>
	<outline>
		<contour>
			<point x="1273.256" y="847.504" type="curve" smooth="yes"/>
			<point x="1325.304" y="847.504"/>
			<point x="1413.968" y="998.96"/>
			<point x="1413.968" y="1046.568" type="curve" smooth="yes"/>
			<point x="1413.968" y="1059.104"/>
			<point x="1402.192" y="1063.4"/>
			<point x="1392.192" y="1063.4" type="curve" smooth="yes"/>
			<point x="1333.544" y="1063.4"/>
			<point x="1103.768" y="1038.904"/>
			<point x="842.528" y="1042.144" type="curve"/>
			<point x="828.608" y="948.48" type="line"/>
			<point x="1089.44" y="918.792"/>
			<point x="1256.032" y="847.504"/>
		</contour>
		<contour>
			<point x="553.664" y="480.048" type="curve"/>
			<point x="479.0076710577" y="479.3439939644"/>
			<point x="443.84" y="510.8373333333"/>
			<point x="443.192" y="598.984" type="curve" smooth="yes"/>
			<point x="441.896" y="722.7774117647"/>
			<point x="522.24" y="911.08"/>
			<point x="679.632" y="911.08" type="curve"/>
			<point x="753.64" y="911.08"/>
			<point x="789.456" y="879.9298113208"/>
			<point x="790.104" y="792.792" type="curve" smooth="yes"/>
			<point x="791.4" y="668.9985882353"/>
			<point x="709.760025649" y="480.40000015"/>
		</contour>
		<contour>
			<point x="696.76" y="1063.44" type="curve"/>
			<point x="330.616" y="1063.44"/>
			<point x="126.632" y="838.424"/>
			<point x="128.576" y="606.552" type="curve" smooth="yes"/>
			<point x="130.52" y="454.76"/>
			<point x="241.272" y="327.688"/>
			<point x="535.888" y="327.688" type="curve"/>
			<point x="902.032" y="327.688"/>
			<point x="1105.368" y="553.352"/>
			<point x="1103.424" y="784.872" type="curve" smooth="yes"/>
			<point x="1101.48" y="936.368"/>
			<point x="992.024" y="1063.44"/>
		</contour>
		<contour>
			<point x="353.152" y="-464.648" type="curve" smooth="yes"/>
			<point x="888.448" y="-464.648"/>
			<point x="1064.504" y="-306.376"/>
			<point x="1064.504" y="-93.344" type="curve" smooth="yes"/>
			<point x="1064.504" y="59.672"/>
			<point x="957.416" y="153.448"/>
			<point x="606.536" y="183.768" type="curve" smooth="yes"/>
			<point x="309.936" y="208.92"/>
			<point x="263.144" y="221.792"/>
			<point x="263.144" y="270.904" type="curve" smooth="yes"/>
			<point x="263.144" y="315.72"/>
			<point x="301.96" y="343.424"/>
			<point x="456.976" y="338.76" type="curve"/>
			<point x="494.648" y="373.296" type="line"/>
			<point x="219.888" y="374.864"/>
			<point x="35.288" y="315.408"/>
			<point x="35.288" y="145.64" type="curve" smooth="yes"/>
			<point x="35.288" y="32.056"/>
			<point x="92.152" y="-44.944"/>
			<point x="388.408" y="-76.336" type="curve" smooth="yes"/>
			<point x="710.568" y="-110.376"/>
			<point x="751.888" y="-132.064"/>
			<point x="751.888" y="-198.328" type="curve" smooth="yes"/>
			<point x="751.888" y="-274.648"/>
			<point x="650.44" y="-327.376"/>
			<point x="456.896" y="-327.376" type="curve" smooth="yes"/>
			<point x="199.36" y="-327.376"/>
			<point x="120.376" y="-272.28"/>
			<point x="120.376" y="-183.592" type="curve" smooth="yes"/>
			<point x="120.376" y="-111.656"/>
			<point x="155.088" y="-60.224"/>
			<point x="298.216" y="-51.152" type="curve"/>
			<point x="233.592" y="-1.936" type="line"/>
			<point x="222.48" y="-31.912" type="line"/>
			<point x="-71.808" y="-68.896"/>
			<point x="-155.992" y="-125.936"/>
			<point x="-155.992" y="-244.216" type="curve" smooth="yes"/>
			<point x="-155.992" y="-368.904"/>
			<point x="-59.76" y="-464.648"/>
		</contour>
	</outline>
	<anchor name="top" x="698.256" y="1036.96"/>
	<anchor name="bottom" x="413.568" y="-438.52"/>
</glyph>
<glyph name="h" format="2">
  <advance width="1457.984"/>
  <unicode hex="0068"/>
  <anchor x="967.5120000000001" y="1414.0" name="UCtop"/>
  <anchor x="569.112" y="0.0" name="bottom"/>
  <anchor x="570.144" y="1207.0" name="center"/>
  <outline>
    <contour>
      <point x="453.264" y="197.288" type="line"/>
      <point x="587.056" y="601.296"/>
      <point x="729.6320000000001" y="793.76"/>
      <point x="874.48" y="793.76" type="curve" smooth="yes"/>
      <point x="922.8" y="793.76"/>
      <point x="944.136" y="773.5360000000001"/>
      <point x="944.136" y="737.9599999999999" type="curve" smooth="yes"/>
      <point x="944.136" y="707.3679999999999"/>
      <point x="935.784" y="668.424"/>
      <point x="895.064" y="566.264" type="curve" smooth="yes"/>
      <point x="725.456" y="149.936" type="line" smooth="yes"/>
      <point x="677.624" y="30.848"/>
      <point x="736.6" y="-26.48"/>
      <point x="852.7040000000001" y="-26.48" type="curve" smooth="yes"/>
      <point x="1016.784" y="-26.48"/>
      <point x="1195.76" y="21.351999999999997"/>
      <point x="1434.2" y="209.512" type="curve"/>
      <point x="1382.664" y="298.47200000000004" type="line"/>
      <point x="1195.968" y="201.272"/>
      <point x="1095.168" y="184.416"/>
      <point x="971.952" y="196.248" type="curve"/>
      <point x="1062.288" y="88.888" type="line"/>
      <point x="1256.0" y="567.568" type="line" smooth="yes"/>
      <point x="1312.24" y="708.4159999999999"/>
      <point x="1328.184" y="788.024"/>
      <point x="1328.184" y="848.504" type="curve" smooth="yes"/>
      <point x="1328.184" y="970.24"/>
      <point x="1247.6319999999998" y="1063.44"/>
      <point x="1079.0639999999999" y="1063.44" type="curve" smooth="yes"/>
      <point x="846.456" y="1063.44"/>
      <point x="681.784" y="940.9920000000001"/>
      <point x="463.08" y="463.0" type="curve"/>
      <point x="423.48799999999994" y="463.0" type="line"/>
      <point x="843.72" y="1490.48" type="line"/>
      <point x="786.816" y="1490.48" type="line"/>
      <point x="202.416" y="1398.8" type="line"/>
      <point x="178.64" y="1301.288" type="line"/>
      <point x="235.64000000000001" y="1267.5723137254902"/>
      <point x="344.528" y="1202.7581176470587"/>
      <point x="380.52799999999996" y="1181.464" type="curve"/>
      <point x="21.560000000000002" y="0.0" type="line"/>
      <point x="388.224" y="0.0" type="line"/>
    </contour>
  </outline>
</glyph>
<glyph name="j" format="2">
	<unicode hex="006A"/>
	<advance width="808.504"/>
	<outline>
		<contour>
			<point x="455.76" y="1309.688" type="curve" smooth="yes"/>
			<point x="455.76" y="1226.488"/>
			<point x="523.496" y="1180.896"/>
			<point x="672.336" y="1180.896" type="curve" smooth="yes"/>
			<point x="866.744" y="1180.896"/>
			<point x="933.984" y="1257.32"/>
			<point x="933.984" y="1361.688" type="curve" smooth="yes"/>
			<point x="933.984" y="1444.888"/>
			<point x="866.248" y="1490.48"/>
			<point x="717.408" y="1490.48" type="curve" smooth="yes"/>
			<point x="523" y="1490.48"/>
			<point x="455.76" y="1414.056"/>
		</contour>
		<contour>
			<point x="543.832" y="201.664" type="curve" smooth="yes"/>
			<point x="729.744" y="822.68" type="line" smooth="yes"/>
			<point x="781.648" y="995.576"/>
			<point x="768.368" y="1063.44"/>
			<point x="584.056" y="1063.44" type="curve" smooth="yes"/>
			<point x="439.104" y="1063.44"/>
			<point x="277.72" y="1002.016"/>
			<point x="23.448" y="802.576" type="curve"/>
			<point x="84.464" y="714.264" type="line"/>
			<point x="249.432" y="823.784"/>
			<point x="347.048" y="848.008"/>
			<point x="482.608" y="841.36" type="curve"/>
			<point x="407.672" y="948.72" type="line"/>
			<point x="124.904" y="-26.776" type="line" smooth="yes"/>
			<point x="60.224" y="-245.56"/>
			<point x="13.864" y="-291.968"/>
			<point x="-57.176" y="-291.968" type="curve" smooth="yes"/>
			<point x="-70.12" y="-291.968"/>
			<point x="-101.136" y="-252.456"/>
			<point x="-139.248" y="-206.144" type="curve" smooth="yes"/>
			<point x="-177.36" y="-159.832"/>
			<point x="-212.248" y="-114.928"/>
			<point x="-224.728" y="-114.928" type="curve" smooth="yes"/>
			<point x="-331.696" y="-114.928"/>
			<point x="-385.216" y="-188.96"/>
			<point x="-385.216" y="-275.92" type="curve" smooth="yes"/>
			<point x="-385.216" y="-383.024"/>
			<point x="-318.888" y="-465"/>
			<point x="-135.904" y="-465" type="curve" smooth="yes"/>
			<point x="138.568" y="-465"/>
			<point x="399.04" y="-282.248"/>
		</contour>
	</outline>
	<anchor name="top" x="691.352" y="1414"/>
	<anchor name="bottom" x="5.664" y="-438.52"/>
</glyph>
<glyph name="k" format="2">
	<unicode hex="006B"/>
	<advance width="1427.08"/>
	<outline>
		<contour>
			<point x="843.016" y="1490.48" type="line"/>
			<point x="786.112" y="1490.48" type="line"/>
			<point x="204.176" y="1398.8" type="line"/>
			<point x="180.4" y="1301.288" type="line"/>
			<point x="237.4" y="1267.5723137255"/>
			<point x="346.288" y="1202.7581176471"/>
			<point x="382.288" y="1181.464" type="curve"/>
			<point x="20.152" y="0" type="line"/>
			<point x="387.424" y="0" type="line"/>
		</contour>
		<contour>
			<point x="541.648" y="560.984" type="line"/>
			<point x="698.544" y="73.272"/>
			<point x="780.456" y="-26.48"/>
			<point x="906.584" y="-26.48" type="curve" smooth="yes"/>
			<point x="1024" y="-26.48"/>
			<point x="1183.376" y="57.976"/>
			<point x="1352.32" y="255.2" type="curve"/>
			<point x="1290.784" y="333.176" type="line"/>
			<point x="1206.52" y="254.52"/>
			<point x="1160.296" y="224.608"/>
			<point x="1122.904" y="224.608" type="curve" smooth="yes"/>
			<point x="1052.384" y="224.608"/>
			<point x="996.512" y="317.888"/>
			<point x="825.248" y="769.176" type="curve"/>
			<point x="684.808" y="581.368" type="line"/>
			<point x="980.848" y="801.192"/>
			<point x="1026.896" y="826.272"/>
			<point x="1089.08" y="826.272" type="curve" smooth="yes"/>
			<point x="1117.688" y="826.272"/>
			<point x="1148.76" y="795.68"/>
			<point x="1177.24" y="760.736" type="curve" smooth="yes"/>
			<point x="1205.72" y="725.792"/>
			<point x="1233.2" y="682.072"/>
			<point x="1241.2" y="682.072" type="curve" smooth="yes"/>
			<point x="1320.416" y="682.072"/>
			<point x="1424.88" y="754.88"/>
			<point x="1424.88" y="895.432" type="curve" smooth="yes"/>
			<point x="1424.88" y="991"/>
			<point x="1361.68" y="1063.44"/>
			<point x="1233.352" y="1063.44" type="curve" smooth="yes"/>
			<point x="1078.776" y="1063.44"/>
			<point x="976.12" y="1002.08"/>
			<point x="567.736" y="609.144" type="curve"/>
		</contour>
	</outline>
	<anchor name="UCtop" x="918.088" y="1414"/>
	<anchor name="bottom" x="599.992" y="0"/>
</glyph>
<glyph name="l" format="2">
  <advance width="810.4879999999999"/>
  <unicode hex="006C"/>
  <anchor x="631.3679999999999" y="1414.0" name="UCtop"/>
  <anchor x="243.75199999999998" y="0.0" name="bottom"/>
  <anchor x="844.5360000000001" y="1464.0" name="right"/>
  <anchor x="851.304" y="576.8" name="mid"/>
  <outline>
    <contour>
      <point x="392.4" y="1181.4640000000002" type="curve"/>
      <point x="85.928" y="211.68800000000002" type="line" smooth="yes"/>
      <point x="31.616" y="40.696"/>
      <point x="80.128" y="-26.48"/>
      <point x="203.4" y="-26.48" type="curve" smooth="yes"/>
      <point x="366.20000000000005" y="-26.48"/>
      <point x="540.656" y="23.184"/>
      <point x="787.536" y="215.584" type="curve"/>
      <point x="733.464" y="303.896" type="line"/>
      <point x="592.8720000000001" y="220.08"/>
      <point x="472.352" y="193.488"/>
      <point x="312.904" y="208.56" type="curve"/>
      <point x="403.632" y="77.224" type="line"/>
      <point x="853.128" y="1490.48" type="line"/>
      <point x="796.2239999999999" y="1490.48" type="line"/>
      <point x="214.28799999999998" y="1398.8" type="line"/>
      <point x="190.512" y="1301.288" type="line"/>
      <point x="247.51199999999997" y="1267.5723137254902"/>
      <point x="356.40000000000003" y="1202.7581176470587"/>
    </contour>
  </outline>
</glyph>
<glyph name="m" format="2">
	<unicode hex="006D"/>
	<advance width="2171.16"/>
	<outline>
		<contour>
			<point x="1771.872" y="88.888" type="line"/>
			<point x="1968.824" y="567.568" type="line" smooth="yes"/>
			<point x="2026.36" y="707.768"/>
			<point x="2041.008" y="788.024"/>
			<point x="2041.008" y="848.504" type="curve" smooth="yes"/>
			<point x="2041.008" y="970.24"/>
			<point x="1956.976" y="1063.44"/>
			<point x="1782.448" y="1063.44" type="curve" smooth="yes"/>
			<point x="1590" y="1063.44"/>
			<point x="1432.384" y="946.824"/>
			<point x="1216.256" y="463" type="curve"/>
			<point x="1177.016" y="463" type="line"/>
			<point x="1244.384" y="665.4" type="line" smooth="yes"/>
			<point x="1275.072" y="757.112"/>
			<point x="1288.888" y="819.816"/>
			<point x="1288.888" y="876.744" type="curve" smooth="yes"/>
			<point x="1288.888" y="995.792"/>
			<point x="1222.56" y="1063.44"/>
			<point x="1083.712" y="1063.44" type="curve" smooth="yes"/>
			<point x="913.824" y="1063.44"/>
			<point x="784.056" y="964.544"/>
			<point x="569.872" y="463" type="curve"/>
			<point x="530.28" y="463" type="line"/>
			<point x="710.504" y="1054.904" type="line"/>
			<point x="635.328" y="1060.496"/>
			<point x="599.2" y="1060.848"/>
			<point x="528.32" y="1060.848" type="curve" smooth="yes"/>
			<point x="270.24" y="1060.848"/>
			<point x="124.872" y="978.704"/>
			<point x="57.096" y="677.032" type="curve"/>
			<point x="91.072" y="667.848" type="line"/>
			<point x="174.904" y="794.768"/>
			<point x="236.152" y="817.272"/>
			<point x="366.8" y="817.272" type="curve" smooth="yes"/>
			<point x="371.744" y="817.272"/>
			<point x="376.392" y="817.272"/>
			<point x="379.688" y="817.272" type="curve"/>
			<point x="130.296" y="0" type="line"/>
			<point x="495.016" y="0" type="line"/>
			<point x="560.056" y="197.288" type="line" smooth="yes"/>
			<point x="700.624" y="620.624"/>
			<point x="808.848" y="800.24"/>
			<point x="941.416" y="800.24" type="curve" smooth="yes"/>
			<point x="986.496" y="800.24"/>
			<point x="1003.424" y="778.72"/>
			<point x="1003.424" y="743.144" type="curve" smooth="yes"/>
			<point x="1003.424" y="715.144"/>
			<point x="994.776" y="675.552"/>
			<point x="958.76" y="571.448" type="curve" smooth="yes"/>
			<point x="762.864" y="0" type="line"/>
			<point x="1128.584" y="0" type="line"/>
			<point x="1198.2" y="205.736" type="line"/>
			<point x="1340.008" y="627.048"/>
			<point x="1468.416" y="800.24"/>
			<point x="1590.472" y="800.24" type="curve" smooth="yes"/>
			<point x="1640.68" y="800.24"/>
			<point x="1661.496" y="777.424"/>
			<point x="1661.496" y="738.608" type="curve" smooth="yes"/>
			<point x="1661.496" y="713.2"/>
			<point x="1651.848" y="674.256"/>
			<point x="1610.48" y="572.744" type="curve" smooth="yes"/>
			<point x="1435.04" y="149.936" type="line" smooth="yes"/>
			<point x="1385.912" y="30.848"/>
			<point x="1446.184" y="-26.48"/>
			<point x="1562.288" y="-26.48" type="curve" smooth="yes"/>
			<point x="1726.368" y="-26.48"/>
			<point x="1905.344" y="21.352"/>
			<point x="2143.784" y="209.512" type="curve"/>
			<point x="2092.248" y="298.472" type="line"/>
			<point x="1905.552" y="201.272"/>
			<point x="1804.752" y="184.416"/>
			<point x="1681.536" y="196.248" type="curve"/>
		</contour>
	</outline>
	<anchor name="top" x="1282.344" y="1036.96"/>
	<anchor name="bottom" x="963.4" y="0"/>
</glyph>
<glyph name="n" format="2">
	<unicode hex="006E"/>
	<advance width="1564.776"/>
	<outline>
		<contour>
			<point x="91.072" y="667.848" type="line"/>
			<point x="174.904" y="794.768"/>
			<point x="236.152" y="817.272"/>
			<point x="366.8" y="817.272" type="curve" smooth="yes"/>
			<point x="371.744" y="817.272"/>
			<point x="376.392" y="817.272"/>
			<point x="379.688" y="817.272" type="curve"/>
			<point x="130.296" y="0" type="line"/>
			<point x="495.016" y="0" type="line"/>
			<point x="560.056" y="197.288" type="line"/>
			<point x="693.848" y="601.296"/>
			<point x="836.424" y="793.76"/>
			<point x="981.272" y="793.76" type="curve" smooth="yes"/>
			<point x="1029.592" y="793.76"/>
			<point x="1050.928" y="773.536"/>
			<point x="1050.928" y="737.96" type="curve" smooth="yes"/>
			<point x="1050.928" y="707.368"/>
			<point x="1042.576" y="668.424"/>
			<point x="1001.856" y="566.264" type="curve" smooth="yes"/>
			<point x="832.248" y="149.936" type="line" smooth="yes"/>
			<point x="784.2770189334" y="30.7497785149"/>
			<point x="843.36" y="-26.48"/>
			<point x="959.496" y="-26.48" type="curve" smooth="yes"/>
			<point x="1123.576" y="-26.48"/>
			<point x="1302.552" y="21.352"/>
			<point x="1540.992" y="209.512" type="curve"/>
			<point x="1489.456" y="298.472" type="line"/>
			<point x="1302.76" y="201.272"/>
			<point x="1201.96" y="184.416"/>
			<point x="1078.744" y="196.248" type="curve"/>
			<point x="1169.08" y="88.888" type="line"/>
			<point x="1362.792" y="567.568" type="line" smooth="yes"/>
			<point x="1419.032" y="708.416"/>
			<point x="1434.976" y="788.024"/>
			<point x="1434.976" y="848.504" type="curve" smooth="yes"/>
			<point x="1434.976" y="970.24"/>
			<point x="1354.424" y="1063.44"/>
			<point x="1185.856" y="1063.44" type="curve" smooth="yes"/>
			<point x="953.248" y="1063.44"/>
			<point x="788.576" y="940.992"/>
			<point x="569.872" y="463" type="curve"/>
			<point x="530.28" y="463" type="line"/>
			<point x="710.504" y="1054.904" type="line"/>
			<point x="635.328" y="1060.496"/>
			<point x="599.2" y="1060.848"/>
			<point x="528.32" y="1060.848" type="curve" smooth="yes"/>
			<point x="270.24" y="1060.848"/>
			<point x="124.872" y="978.704"/>
			<point x="57.096" y="677.032" type="curve"/>
		</contour>
	</outline>
	<anchor name="top" x="931.184" y="1036.96"/>
	<anchor name="bottom" x="673.44" y="0"/>
</glyph>
<glyph name="o" format="2">
	<unicode hex="006F"/>
	<advance width="1285.992"/>
	<outline>
		<contour>
			<point x="750.768" y="1063.44" type="curve" smooth="yes"/>
			<point x="318.416" y="1063.44"/>
			<point x="72.872" y="727.96"/>
			<point x="72.872" y="375.36" type="curve" smooth="yes"/>
			<point x="72.872" y="149.624"/>
			<point x="210.352" y="-26.48"/>
			<point x="534.816" y="-26.48" type="curve" smooth="yes"/>
			<point x="967.168" y="-26.48"/>
			<point x="1212.712" y="309"/>
			<point x="1212.712" y="661.6" type="curve" smooth="yes"/>
			<point x="1212.712" y="887.336"/>
			<point x="1075.232" y="1063.44"/>
		</contour>
		<contour>
			<point x="555.072" y="186.408" type="curve" smooth="yes"/>
			<point x="466.768" y="186.408"/>
			<point x="421.984" y="233.896"/>
			<point x="421.984" y="343.104" type="curve" smooth="yes"/>
			<point x="421.984" y="564.144"/>
			<point x="535.552" y="850.552"/>
			<point x="730.512" y="850.552" type="curve" smooth="yes"/>
			<point x="818.816" y="850.552"/>
			<point x="863.6" y="803.064"/>
			<point x="863.6" y="693.856" type="curve" smooth="yes"/>
			<point x="863.6" y="472.816"/>
			<point x="750.032" y="186.408"/>
		</contour>
	</outline>
	<anchor name="top" x="775.992" y="1036.96"/>
	<anchor name="bottom" x="493.464" y="0"/>
	<anchor name="horn" x="955.368" y="1036.96"/>
	<anchor name="right" x="680.248" y="0"/>
</glyph>
<glyph name="q" format="2">
	<unicode hex="0071"/>
	<advance width="1387.888"/>
	<outline>
		<contour>
			<point x="640.664" y="-302.856" type="line"/>
			<point x="481.136" y="-336.32" type="line"/>
			<point x="450.304" y="-438.52" type="line"/>
			<point x="1100.52" y="-438.52" type="line"/>
			<point x="1133" y="-336.968" type="line"/>
			<point x="1008.64" y="-298.912" type="line"/>
			<point x="1379.496" y="1036.96" type="line"/>
			<point x="1116.344" y="1036.96" type="line"/>
			<point x="985.592" y="845.592" type="line"/>
			<point x="920.168" y="681.664" type="line" smooth="yes"/>
			<point x="830.9868094543" y="453.0998953613"/>
			<point x="633.4196294896" y="195.112"/>
			<point x="501.752" y="195.112" type="curve" smooth="yes"/>
			<point x="434.912" y="195.112"/>
			<point x="396.592" y="226.264"/>
			<point x="396.592" y="291.512" type="curve" smooth="yes"/>
			<point x="396.592" y="494.336"/>
			<point x="631.648" y="869.624"/>
			<point x="827.152" y="869.624" type="curve" smooth="yes"/>
			<point x="894.176" y="869.624"/>
			<point x="947.904" y="841.936"/>
			<point x="992.592" y="737.304" type="curve"/>
			<point x="1013.088" y="792.176" type="line"/>
			<point x="969.776" y="973.48"/>
			<point x="882.24" y="1063.44"/>
			<point x="733.224" y="1063.44" type="curve" smooth="yes"/>
			<point x="382.992" y="1063.44"/>
			<point x="33.928" y="615.448"/>
			<point x="33.928" y="254.216" type="curve" smooth="yes"/>
			<point x="33.928" y="64.408"/>
			<point x="173.736" y="-26.48"/>
			<point x="326.552" y="-26.48" type="curve" smooth="yes"/>
			<point x="487.2270701107" y="-26.48"/>
			<point x="620.344" y="29.368"/>
			<point x="856.528" y="407.024" type="curve"/>
			<point x="887.36" y="407.024" type="line"/>
		</contour>
	</outline>
	<anchor name="top" x="889" y="1036.96"/>
	<anchor name="bottom" x="783.088" y="-438.52"/>
</glyph>
<glyph name="r" format="2">
	<unicode hex="0072"/>
	<advance width="1225.808"/>
	<outline>
		<contour>
			<point x="379.688" y="817.272" type="curve"/>
			<point x="129.944" y="0" type="line"/>
			<point x="494.664" y="0" type="line"/>
			<point x="560.816" y="205.624" type="line" smooth="yes"/>
			<point x="677.496" y="566.48"/>
			<point x="823.584" y="790.2"/>
			<point x="947.584" y="790.2" type="curve" smooth="yes"/>
			<point x="969.952" y="790.2"/>
			<point x="1006.488" y="762.552"/>
			<point x="1039.728" y="732.96" type="curve" smooth="yes"/>
			<point x="1072.968" y="703.368"/>
			<point x="1108.744" y="669.24"/>
			<point x="1116.04" y="669.24" type="curve" smooth="yes"/>
			<point x="1190.808" y="669.24"/>
			<point x="1302.512" y="773.192"/>
			<point x="1302.512" y="900.08" type="curve" smooth="yes"/>
			<point x="1302.512" y="994.184"/>
			<point x="1242.312" y="1063.44"/>
			<point x="1114.816" y="1063.44" type="curve" smooth="yes"/>
			<point x="920.88" y="1063.44"/>
			<point x="772.824" y="915.28"/>
			<point x="577.968" y="487.64" type="curve"/>
			<point x="538.376" y="487.64" type="line"/>
			<point x="712.264" y="1054.904" type="line"/>
			<point x="649.4" y="1059.848"/>
			<point x="611.512" y="1060.848"/>
			<point x="528.32" y="1060.848" type="curve" smooth="yes"/>
			<point x="270.24" y="1060.848"/>
			<point x="124.872" y="978.704"/>
			<point x="57.096" y="677.032" type="curve"/>
			<point x="91.072" y="667.848" type="line"/>
			<point x="174.904" y="794.768"/>
			<point x="236.152" y="817.272"/>
			<point x="366.8" y="817.272" type="curve" smooth="yes"/>
			<point x="371.744" y="817.272"/>
			<point x="376.392" y="817.272"/>
		</contour>
	</outline>
	<anchor name="top" x="756.112" y="1036.96"/>
	<anchor name="bottom" x="312.48" y="0"/>
</glyph>
<glyph name="s" format="2">
	<unicode hex="0073"/>
	<advance width="1096.32"/>
	<outline>
		<contour>
			<point x="258.808" y="317.552" type="curve" smooth="yes"/>
			<point x="58.152" y="317.552"/>
			<point x="11.968" y="270.384"/>
			<point x="11.968" y="169.72" type="curve" smooth="yes"/>
			<point x="11.968" y="57.704"/>
			<point x="109.168" y="-26.48"/>
			<point x="390.616" y="-26.48" type="curve" smooth="yes"/>
			<point x="766.184" y="-26.48"/>
			<point x="966.704" y="105.408"/>
			<point x="966.704" y="370.248" type="curve" smooth="yes"/>
			<point x="966.704" y="514.76"/>
			<point x="901.192" y="592.8"/>
			<point x="704.304" y="653.544" type="curve" smooth="yes"/>
			<point x="507.416" y="714.288"/>
			<point x="482.36" y="744.456"/>
			<point x="482.36" y="807.624" type="curve" smooth="yes"/>
			<point x="482.36" y="879.424"/>
			<point x="544.832" y="921.576"/>
			<point x="680.368" y="921.576" type="curve" smooth="yes"/>
			<point x="729.904" y="921.576"/>
			<point x="763.68" y="914.688"/>
			<point x="793.16" y="890.448" type="curve" smooth="yes"/>
			<point x="822.64" y="866.208"/>
			<point x="843.176" y="818.912"/>
			<point x="858.584" y="740.336" type="curve" smooth="yes"/>
			<point x="1027.848" y="740.336"/>
			<point x="1080.48" y="788.208"/>
			<point x="1080.48" y="882.648" type="curve" smooth="yes"/>
			<point x="1080.48" y="993.592"/>
			<point x="979.96" y="1062.792"/>
			<point x="721.832" y="1062.792" type="curve" smooth="yes"/>
			<point x="376" y="1062.792"/>
			<point x="182.56" y="922.536"/>
			<point x="182.56" y="703.208" type="curve" smooth="yes"/>
			<point x="182.56" y="541.48"/>
			<point x="251.648" y="472.608"/>
			<point x="448.2" y="419.088" type="curve" smooth="yes"/>
			<point x="644.752" y="365.568"/>
			<point x="677.92" y="332.656"/>
			<point x="677.92" y="258.84" type="curve" smooth="yes"/>
			<point x="677.92" y="167.776"/>
			<point x="594.224" y="117.568"/>
			<point x="431.912" y="117.568" type="curve" smooth="yes"/>
			<point x="367.176" y="117.568"/>
			<point x="329.92" y="123.512"/>
			<point x="304.328" y="150.104" type="curve" smooth="yes"/>
			<point x="278.736" y="176.696"/>
			<point x="267.328" y="226.752"/>
		</contour>
	</outline>
	<anchor name="top" x="681.648" y="1036.96"/>
	<anchor name="bottom" x="460.8" y="0"/>
</glyph>
<glyph name="t" format="2">
	<unicode hex="0074"/>
	<advance width="995.536"/>
	<outline>
		<contour>
			<point x="135.912" y="877.488" type="line"/>
			<point x="1060.752" y="877.488" type="line"/>
			<point x="1060.752" y="1036.96" type="line"/>
			<point x="136.968" y="1036.96" type="line"/>
		</contour>
		<contour>
			<point x="613.504" y="495.16" type="curve" smooth="yes"/>
			<point x="890.136" y="1299.744" type="line"/>
			<point x="530.216" y="1299.744" type="line"/>
			<point x="250.936" y="449.928" type="line" smooth="yes"/>
			<point x="203.44" y="307.864"/>
			<point x="183.072" y="217.632"/>
			<point x="183.072" y="151.472" type="curve" smooth="yes"/>
			<point x="183.072" y="28.184"/>
			<point x="245.216" y="-26.48"/>
			<point x="361.576" y="-26.48" type="curve" smooth="yes"/>
			<point x="480.312" y="-26.48"/>
			<point x="648.232" y="11.432"/>
			<point x="904.088" y="247.512" type="curve"/>
			<point x="838.424" y="332.768" type="line"/>
			<point x="700.736" y="231.04"/>
			<point x="643.176" y="215.704"/>
			<point x="601.712" y="215.704" type="curve" smooth="yes"/>
			<point x="570.232" y="215.704"/>
			<point x="554.344" y="223.056"/>
			<point x="554.344" y="261.24" type="curve" smooth="yes"/>
			<point x="554.344" y="290.016"/>
			<point x="564.4" y="347.384"/>
		</contour>
	</outline>
	<anchor name="bottom" x="410.096" y="0"/>
	<anchor name="right" x="918.288" y="1535"/>
</glyph>
<glyph name="v" format="2">
  <advance width="1378"/>
  <unicode hex="0076"/>
  <anchor x="857.92" y="1036.96" name="top"/>
  <anchor x="585.952" y="0.0" name="bottom"/>
  <outline>
    <contour>
      <point x="1305.464" y="797.4159999999999" type="curve" smooth="yes"/>
      <point x="1305.464" y="992.032"/>
      <point x="1225.856" y="1063.44"/>
      <point x="1115.896" y="1063.44" type="curve" smooth="yes"/>
      <point x="981.0" y="1063.44"/>
      <point x="915.312" y="985.352"/>
      <point x="915.312" y="860.192" type="curve" smooth="yes"/>
      <point x="915.312" y="822.112"/>
      <point x="1088.144" y="815.52"/>
      <point x="1088.144" y="636.2479999999999" type="curve" smooth="yes"/>
      <point x="1088.144" y="386.24"/>
      <point x="888.184" y="192.04"/>
      <point x="691.5120000000001" y="192.04" type="curve" smooth="yes"/>
      <point x="601.3439999999999" y="192.04"/>
      <point x="558.472" y="220.92800000000003"/>
      <point x="558.472" y="288.872" type="curve" smooth="yes"/>
      <point x="558.472" y="317.64799999999997"/>
      <point x="566.064" y="353.016"/>
      <point x="579.952" y="396.62399999999997" type="curve" smooth="yes"/>
      <point x="798.4799999999999" y="1054.904" type="line"/>
      <point x="710.176" y="1061.7920000000001"/>
      <point x="665.992" y="1063.44"/>
      <point x="582.984" y="1063.44" type="curve" smooth="yes"/>
      <point x="250.83999999999997" y="1063.44"/>
      <point x="131.208" y="977.408"/>
      <point x="54.432" y="677.032" type="curve"/>
      <point x="88.408" y="667.848" type="line"/>
      <point x="172.24" y="794.768"/>
      <point x="233.488" y="817.2719999999999"/>
      <point x="364.13599999999997" y="817.2719999999999" type="curve" smooth="yes"/>
      <point x="369.08" y="817.2719999999999"/>
      <point x="373.728" y="817.2719999999999"/>
      <point x="377.024" y="817.2719999999999" type="curve"/>
      <point x="237.752" y="399.0" type="line" smooth="yes"/>
      <point x="217.16" y="336.336"/>
      <point x="206.864" y="279.968"/>
      <point x="206.864" y="230.544" type="curve" smooth="yes"/>
      <point x="206.864" y="63.664"/>
      <point x="323.432" y="-26.48"/>
      <point x="563.288" y="-26.48" type="curve" smooth="yes"/>
      <point x="952.5920000000001" y="-26.48"/>
      <point x="1305.464" y="327.856"/>
    </contour>
  </outline>
</glyph>
<glyph name="w" format="2">
	<unicode hex="0077"/>
	<advance width="1958.504"/>
	<outline>
		<contour>
			<point x="1055.8" y="1036.96" type="line"/>
			<point x="932.464" y="593.088" type="line" smooth="yes"/>
			<point x="843.424" y="272.528"/>
			<point x="735.856" y="192.04"/>
			<point x="629.832" y="192.04" type="curve" smooth="yes"/>
			<point x="571.088" y="192.04"/>
			<point x="540.864" y="212.096"/>
			<point x="540.864" y="264.264" type="curve" smooth="yes"/>
			<point x="540.864" y="287.264"/>
			<point x="546.216" y="316.264"/>
			<point x="558.216" y="352.56" type="curve" smooth="yes"/>
			<point x="790.352" y="1054.904" type="line"/>
			<point x="702.048" y="1060.496"/>
			<point x="657.864" y="1063.44"/>
			<point x="574.856" y="1063.44" type="curve" smooth="yes"/>
			<point x="242.712" y="1063.44"/>
			<point x="123.08" y="977.408"/>
			<point x="46.304" y="677.032" type="curve"/>
			<point x="80.28" y="667.848" type="line"/>
			<point x="164.112" y="794.768"/>
			<point x="225.36" y="817.272"/>
			<point x="356.008" y="817.272" type="curve" smooth="yes"/>
			<point x="361.656" y="817.272"/>
			<point x="364.544" y="817.272"/>
			<point x="368.896" y="817.272" type="curve"/>
			<point x="229.624" y="399" type="line" smooth="yes"/>
			<point x="207.736" y="332.448"/>
			<point x="196.792" y="271.84"/>
			<point x="196.792" y="218.528" type="curve" smooth="yes"/>
			<point x="196.792" y="65.312"/>
			<point x="287.568" y="-26.48"/>
			<point x="469.744" y="-26.48" type="curve" smooth="yes"/>
			<point x="681.792" y="-26.48"/>
			<point x="850.048" y="92.576"/>
			<point x="1001.568" y="466" type="curve"/>
			<point x="1040.992" y="466" type="line"/>
			<point x="1002.672" y="312.456" type="line" smooth="yes"/>
			<point x="990.8" y="266.176"/>
			<point x="985.04" y="224.656"/>
			<point x="985.04" y="189.544" type="curve" smooth="yes"/>
			<point x="985.04" y="39.96"/>
			<point x="1074.184" y="-26.48"/>
			<point x="1241.952" y="-26.48" type="curve" smooth="yes"/>
			<point x="1543.048" y="-26.48"/>
			<point x="1887.504" y="272.872"/>
			<point x="1887.504" y="797.416" type="curve" smooth="yes"/>
			<point x="1887.504" y="1000.456"/>
			<point x="1817.616" y="1063.44"/>
			<point x="1708.304" y="1063.44" type="curve" smooth="yes"/>
			<point x="1576" y="1063.44"/>
			<point x="1505.128" y="969.8"/>
			<point x="1505.128" y="853.712" type="curve" smooth="yes"/>
			<point x="1505.128" y="815.632"/>
			<point x="1680.552" y="809.04"/>
			<point x="1680.552" y="636.248" type="curve" smooth="yes"/>
			<point x="1680.552" y="379.504"/>
			<point x="1491.688" y="192.04"/>
			<point x="1326.472" y="192.04" type="curve" smooth="yes"/>
			<point x="1251.936" y="192.04"/>
			<point x="1216.768" y="221.224"/>
			<point x="1216.768" y="290.76" type="curve" smooth="yes"/>
			<point x="1216.768" y="320.832"/>
			<point x="1223.712" y="359.144"/>
			<point x="1235.952" y="405.696" type="curve" smooth="yes"/>
			<point x="1406.704" y="1036.96" type="line"/>
		</contour>
	</outline>
	<anchor name="top" x="1207.688" y="1036.96"/>
	<anchor name="bottom" x="915.72" y="0"/>
</glyph>
<glyph name="x" format="2">
  <advance width="1368.496"/>
  <unicode hex="0078"/>
  <anchor x="840.32" y="1036.96" name="top"/>
  <anchor x="522.432" y="0.0" name="bottom"/>
  <outline>
    <contour>
      <point x="736.4879999999999" y="423.072" type="line"/>
      <point x="880.488" y="589.0" type="line" smooth="yes"/>
      <point x="977.12" y="701.3199999999999"/>
      <point x="1074.616" y="789.736"/>
      <point x="1126.576" y="789.736" type="curve" smooth="yes"/>
      <point x="1145.888" y="789.736"/>
      <point x="1174.184" y="770.9200000000001"/>
      <point x="1201.48" y="748.512" type="curve" smooth="yes"/>
      <point x="1228.776" y="726.104"/>
      <point x="1256.128" y="700.7520000000001"/>
      <point x="1267.3120000000001" y="700.7520000000001" type="curve" smooth="yes"/>
      <point x="1316.2160000000001" y="700.7520000000001"/>
      <point x="1424.528" y="788.08"/>
      <point x="1424.528" y="904.0400000000001" type="curve" smooth="yes"/>
      <point x="1424.528" y="1000.256"/>
      <point x="1362.4560000000001" y="1063.44"/>
      <point x="1252.92" y="1063.44" type="curve" smooth="yes"/>
      <point x="1131.0" y="1063.44"/>
      <point x="1053.1280000000002" y="1016.144"/>
      <point x="879.048" y="794.328" type="curve" smooth="yes"/>
      <point x="692.304" y="554.88" type="line"/>
      <point x="628.1759999999999" y="610.856" type="line"/>
      <point x="482.264" y="447.96000000000004" type="line" smooth="yes"/>
      <point x="338.568" y="287.448"/>
      <point x="271.936" y="247.224"/>
      <point x="235.528" y="247.224" type="curve" smooth="yes"/>
      <point x="214.272" y="247.224"/>
      <point x="184.68" y="268.984"/>
      <point x="157.68" y="291.392" type="curve" smooth="yes"/>
      <point x="130.68" y="313.79999999999995"/>
      <point x="105.328" y="336.20799999999997"/>
      <point x="94.792" y="336.20799999999997" type="curve" smooth="yes"/>
      <point x="45.888" y="336.20799999999997"/>
      <point x="-61.776" y="248.88"/>
      <point x="-61.776" y="132.92000000000002" type="curve" smooth="yes"/>
      <point x="-61.776" y="36.704"/>
      <point x="0.29600000000000004" y="-26.48"/>
      <point x="109.83200000000001" y="-26.48" type="curve" smooth="yes"/>
      <point x="240.17600000000002" y="-26.48"/>
      <point x="311.512" y="36.072"/>
      <point x="483.704" y="242.632" type="curve" smooth="yes"/>
      <point x="670.8960000000001" y="469.10400000000004" type="line"/>
    </contour>
    <contour>
      <point x="1290.848" y="271.52799999999996" type="curve"/>
      <point x="1226.8880000000001" y="352.616" type="line"/>
      <point x="1080.168" y="243.672"/>
      <point x="988.624" y="204.98399999999998"/>
      <point x="959.752" y="204.98399999999998" type="curve" smooth="yes"/>
      <point x="947.048" y="204.98399999999998"/>
      <point x="944.696" y="211.688"/>
      <point x="936.232" y="244.37599999999998" type="curve" smooth="yes"/>
      <point x="779.128" y="868.9200000000001" type="line" smooth="yes"/>
      <point x="743.76" y="1014.592"/>
      <point x="704.096" y="1063.44"/>
      <point x="594.216" y="1063.44" type="curve" smooth="yes"/>
      <point x="438.76800000000003" y="1063.44"/>
      <point x="294.104" y="970.552"/>
      <point x="98.50399999999999" y="713.056" type="curve"/>
      <point x="175.33599999999998" y="641.32" type="line"/>
      <point x="310.976" y="777.152"/>
      <point x="389.816" y="829.808"/>
      <point x="417.20799999999997" y="829.808" type="curve" smooth="yes"/>
      <point x="426.616" y="829.808"/>
      <point x="428.67199999999997" y="824.696"/>
      <point x="436.32000000000005" y="794.16" type="curve" smooth="yes"/>
      <point x="595.72" y="166.744" type="line" smooth="yes"/>
      <point x="631.736" y="20.720000000000002"/>
      <point x="670.048" y="-26.48"/>
      <point x="778.52" y="-26.48" type="curve" smooth="yes"/>
      <point x="899.0079999999999" y="-26.48"/>
      <point x="1043.912" y="39.42399999999999"/>
    </contour>
  </outline>
</glyph>
<glyph name="y" format="2">
	<unicode hex="0079"/>
	<advance width="1310.52"/>
	<outline>
		<contour>
			<point x="125.352" y="542.304" type="line"/>
			<point x="220.28" y="718.176"/>
			<point x="278.936" y="771.424"/>
			<point x="308.824" y="771.424" type="curve" smooth="yes"/>
			<point x="327.12" y="771.424"/>
			<point x="342.656" y="743.832"/>
			<point x="398.392" y="584.656" type="curve" smooth="yes"/>
			<point x="454.128" y="425.48"/>
			<point x="525.72" y="182.048"/>
			<point x="617.976" y="-233.744" type="curve"/>
			<point x="874.712" y="59.64" type="line"/>
			<point x="775.328" y="545.856"/>
			<point x="689.936" y="815.016"/>
			<point x="635.976" y="921.96" type="curve" smooth="yes"/>
			<point x="582.016" y="1028.904"/>
			<point x="537.744" y="1063.44"/>
			<point x="467.656" y="1063.44" type="curve" smooth="yes"/>
			<point x="335.04" y="1063.44"/>
			<point x="208.352" y="987.704"/>
			<point x="25.744" y="586.84" type="curve"/>
		</contour>
		<contour>
			<point x="684.08" y="-7.176" type="line"/>
			<point x="557.112" y="-181.568"/>
			<point x="420.944" y="-246.328"/>
			<point x="303.896" y="-246.328" type="curve" smooth="yes"/>
			<point x="285.6" y="-246.328"/>
			<point x="245.416" y="-206.664"/>
			<point x="213.416" y="-173.184" type="curve" smooth="yes"/>
			<point x="181.416" y="-139.704"/>
			<point x="150.768" y="-110.112"/>
			<point x="139.584" y="-110.112" type="curve" smooth="yes"/>
			<point x="38.448" y="-110.112"/>
			<point x="-33.216" y="-187.384"/>
			<point x="-33.216" y="-278.232" type="curve" smooth="yes"/>
			<point x="-33.216" y="-385.336"/>
			<point x="33.112" y="-465"/>
			<point x="183.048" y="-465" type="curve" smooth="yes"/>
			<point x="412.88" y="-465"/>
			<point x="688.344" y="-281.416"/>
			<point x="913.04" y="51.096" type="curve" smooth="yes"/>
			<point x="1117" y="353.8"/>
			<point x="1293.744" y="774.488"/>
			<point x="1316.976" y="991.776" type="curve" smooth="yes"/>
			<point x="1319.792" y="1032.072"/>
			<point x="1289.624" y="1055.256"/>
			<point x="1211.352" y="1055.608" type="curve" smooth="yes"/>
			<point x="1126.992" y="1055.96"/>
			<point x="1057.52" y="1047.776"/>
			<point x="1015.776" y="1037.016" type="curve"/>
			<point x="991.904" y="579.712"/>
			<point x="877.952" y="242.936"/>
			<point x="711.68" y="0.056" type="curve"/>
		</contour>
	</outline>
	<anchor name="top" x="787.096" y="1036.96"/>
	<anchor name="bottom" x="1003.272" y="-105.784"/>
</glyph>
<glyph name="z" format="2">
	<unicode hex="007A"/>
	<advance width="1220.088"/>
	<outline>
		<contour>
			<point x="9.8" y="89.88" type="line"/>
			<point x="103.352" y="-28.944" type="line"/>
			<point x="1221.176" y="949.912" type="line"/>
			<point x="1123.44" y="1065.552" type="line"/>
		</contour>
		<contour>
			<point x="192.872" y="634.36" type="line"/>
			<point x="330.88" y="806.744"/>
			<point x="348.528" y="807.352"/>
			<point x="519.304" y="739.816" type="curve" smooth="yes"/>
			<point x="793.28" y="631.504" type="line"/>
			<point x="1021.24" y="900.96" type="line"/>
			<point x="635.048" y="1035.848" type="line" smooth="yes"/>
			<point x="454.816" y="1098.624"/>
			<point x="307.04" y="1078.2"/>
			<point x="91.968" y="701.576" type="curve"/>
		</contour>
		<contour>
			<point x="566.048" y="15.944" type="line" smooth="yes"/>
			<point x="733.8" y="-72.848"/>
			<point x="887.696" y="-43.648"/>
			<point x="1175.432" y="320.08" type="curve"/>
			<point x="1110.36" y="383.32" type="line"/>
			<point x="923.28" y="222.608"/>
			<point x="884.304" y="221.792"/>
			<point x="728.952" y="311.808" type="curve" smooth="yes"/>
			<point x="504.384" y="443.264" type="line"/>
			<point x="226.136" y="195.88" type="line"/>
		</contour>
	</outline>
	<anchor name="top" x="721.472" y="1036.96"/>
	<anchor name="bottom" x="476.544" y="0"/>
</glyph>
<glyph name="braceleft" format="2">
	<unicode hex="007B"/>
	<advance width="801.912"/>
	<outline>
		<contour>
			<point x="67.616" y="540.432" type="line"/>
			<point x="137.968" y="538.136" type="line" smooth="yes"/>
			<point x="210.32" y="535.84"/>
			<point x="239.784" y="514.024"/>
			<point x="239.784" y="463.856" type="curve" smooth="yes"/>
			<point x="239.784" y="344.928"/>
			<point x="102.224" y="157.456"/>
			<point x="102.224" y="6.456" type="curve" smooth="yes"/>
			<point x="102.224" y="-112.504"/>
			<point x="205.496" y="-220.056"/>
			<point x="369.696" y="-236" type="curve" smooth="yes"/>
			<point x="480.968" y="-246.944" type="line"/>
			<point x="548.184" y="-72.088" type="line"/>
			<point x="466.76" y="-60.144" type="line" smooth="yes"/>
			<point x="409.368" y="-52.792"/>
			<point x="383.848" y="-27.328"/>
			<point x="383.848" y="25.6" type="curve" smooth="yes"/>
			<point x="383.848" y="136.584"/>
			<point x="493.28" y="356.224"/>
			<point x="493.28" y="466.04" type="curve" smooth="yes"/>
			<point x="493.28" y="553.28"/>
			<point x="455.464" y="616.704"/>
			<point x="291.824" y="654.904" type="curve"/>
			<point x="271.696" y="588.28" type="line"/>
			<point x="496.76" y="615"/>
			<point x="600.184" y="720.848"/>
			<point x="640.536" y="851.608" type="curve" smooth="yes"/>
			<point x="672.352" y="955.76"/>
			<point x="677.592" y="1066.136"/>
			<point x="708.648" y="1164.952" type="curve" smooth="yes"/>
			<point x="735.408" y="1251.936"/>
			<point x="780.04" y="1292.384"/>
			<point x="881.712" y="1305.44" type="curve" smooth="yes"/>
			<point x="970.784" y="1317.384" type="line"/>
			<point x="1005.928" y="1491.888" type="line"/>
			<point x="823.664" y="1478.648" type="line" smooth="yes"/>
			<point x="596.704" y="1461.944"/>
			<point x="458.32" y="1341.52"/>
			<point x="417.024" y="1205.688" type="curve" smooth="yes"/>
			<point x="375.08" y="1067.56"/>
			<point x="391.024" y="942.224"/>
			<point x="358.912" y="835.536" type="curve" smooth="yes"/>
			<point x="330.744" y="743.976"/>
			<point x="285.168" y="710.456"/>
			<point x="189.112" y="706.808" type="curve" smooth="yes"/>
			<point x="117.816" y="704.864" type="line"/>
		</contour>
	</outline>
</glyph>
<glyph name="bar" format="2">
	<unicode hex="007C"/>
	<advance width="641.208"/>
	<outline>
		<contour>
			<point x="-97.16" y="-465" type="line"/>
			<point x="143.704" y="-465" type="line"/>
			<point x="749.072" y="1535" type="line"/>
			<point x="507.856" y="1535" type="line"/>
		</contour>
	</outline>
</glyph>
<glyph name="braceright" format="2">
	<unicode hex="007D"/>
	<advance width="803.208"/>
	<outline>
		<contour>
			<point x="797.648" y="704.512" type="line"/>
			<point x="727.296" y="706.808" type="line" smooth="yes"/>
			<point x="654.944" y="709.104"/>
			<point x="625.48" y="730.92"/>
			<point x="625.48" y="781.088" type="curve" smooth="yes"/>
			<point x="625.48" y="900.016"/>
			<point x="763.04" y="1087.488"/>
			<point x="763.04" y="1238.488" type="curve" smooth="yes"/>
			<point x="763.04" y="1357.448"/>
			<point x="659.768" y="1465"/>
			<point x="495.568" y="1480.944" type="curve" smooth="yes"/>
			<point x="384.296" y="1491.888" type="line"/>
			<point x="317.08" y="1317.032" type="line"/>
			<point x="398.504" y="1305.088" type="line" smooth="yes"/>
			<point x="455.896" y="1297.736"/>
			<point x="481.416" y="1272.272"/>
			<point x="481.416" y="1219.344" type="curve" smooth="yes"/>
			<point x="481.416" y="1108.36"/>
			<point x="371.984" y="888.72"/>
			<point x="371.984" y="778.904" type="curve" smooth="yes"/>
			<point x="371.984" y="691.664"/>
			<point x="409.8" y="628.24"/>
			<point x="573.44" y="590.04" type="curve"/>
			<point x="593.568" y="656.664" type="line"/>
			<point x="368.504" y="629.944"/>
			<point x="265.08" y="524.096"/>
			<point x="224.728" y="393.336" type="curve" smooth="yes"/>
			<point x="192.912" y="289.184"/>
			<point x="187.672" y="178.808"/>
			<point x="156.616" y="79.992" type="curve" smooth="yes"/>
			<point x="129.856" y="-6.992"/>
			<point x="85.224" y="-47.44"/>
			<point x="-16.448" y="-60.496" type="curve" smooth="yes"/>
			<point x="-105.52" y="-72.44" type="line"/>
			<point x="-140.664" y="-246.944" type="line"/>
			<point x="41.6" y="-233.704" type="line" smooth="yes"/>
			<point x="268.56" y="-217"/>
			<point x="406.944" y="-96.576"/>
			<point x="448.24" y="39.256" type="curve" smooth="yes"/>
			<point x="490.184" y="177.384"/>
			<point x="474.24" y="302.72"/>
			<point x="506.352" y="409.408" type="curve" smooth="yes"/>
			<point x="534.52" y="500.968"/>
			<point x="580.096" y="534.488"/>
			<point x="676.152" y="538.136" type="curve" smooth="yes"/>
			<point x="747.448" y="540.08" type="line"/>
		</contour>
	</outline>
</glyph>
<glyph name="asciitilde" format="2">
	<unicode hex="007E"/>
	<advance width="1200"/>
	<outline>
		<contour>
			<point x="1083.68" y="691.88" type="curve"/>
			<point x="878.44" y="691.88" type="line"/>
			<point x="847.808" y="585.36"/>
			<point x="808.824" y="554.912"/>
			<point x="751.504" y="554.912" type="curve" smooth="yes"/>
			<point x="657.904" y="554.912"/>
			<point x="583.52" y="703.472"/>
			<point x="433.536" y="703.472" type="curve" smooth="yes"/>
			<point x="289.744" y="703.472"/>
			<point x="185.208" y="620.68"/>
			<point x="116.264" y="346.544" type="curve"/>
			<point x="321.504" y="346.544" type="line"/>
			<point x="352.488" y="452.712"/>
			<point x="391.472" y="483.16"/>
			<point x="448.44" y="483.16" type="curve" smooth="yes"/>
			<point x="542.04" y="483.16"/>
			<point x="616.424" y="334.6"/>
			<point x="766.408" y="334.6" type="curve" smooth="yes"/>
			<point x="910.2" y="334.6"/>
			<point x="1014.736" y="417.392"/>
		</contour>
	</outline>
</glyph>
<glyph name="exclamdown" format="2">
	<unicode hex="00A1"/>
	<advance width="684.52"/>
	<outline>
		<contour>
			<point x="-126.432" y="-309.864" type="line" smooth="yes"/>
			<point x="-147.448" y="-369.376"/>
			<point x="-130.04" y="-402.224"/>
			<point x="63.344" y="-402.224" type="curve" smooth="yes"/>
			<point x="254.376" y="-402.224"/>
			<point x="291.744" y="-369.376"/>
			<point x="307.224" y="-309.864" type="curve" smooth="yes"/>
			<point x="328.872" y="-228.792" type="line" smooth="yes"/>
			<point x="353.128" y="-133.176"/>
			<point x="399.048" y="267.736"/>
			<point x="451.448" y="515.608" type="curve"/>
			<point x="234.472" y="515.608" type="line"/>
			<point x="134.912" y="267.736"/>
			<point x="-64.216" y="-133.176"/>
			<point x="-98.248" y="-228.792" type="curve" smooth="yes"/>
		</contour>
		<contour>
			<point x="391.48" y="673.872" type="curve" smooth="yes"/>
			<point x="585.704" y="673.872"/>
			<point x="665.904" y="786.032"/>
			<point x="665.904" y="917.376" type="curve" smooth="yes"/>
			<point x="665.904" y="1005.352"/>
			<point x="611.352" y="1055.904"/>
			<point x="504.36" y="1055.904" type="curve" smooth="yes"/>
			<point x="310.136" y="1055.904"/>
			<point x="229.936" y="943.744"/>
			<point x="229.936" y="812.752" type="curve" smooth="yes"/>
			<point x="229.936" y="724.424"/>
			<point x="284.488" y="673.872"/>
		</contour>
	</outline>
</glyph>
<glyph name="currency" format="2">
	<unicode hex="00A4"/>
	<advance width="1165"/>
	<outline>
		<contour>
			<point x="213.728" y="860.272" type="line"/>
			<point x="340" y="666.448" type="line"/>
			<point x="519.816" y="788.4" type="line"/>
			<point x="394.84" y="978.576" type="line"/>
		</contour>
		<contour>
			<point x="981.784" y="932.152" type="line"/>
			<point x="780.104" y="777.656" type="line"/>
			<point x="903.888" y="620.208" type="line"/>
			<point x="1089.848" y="761.872" type="line"/>
		</contour>
		<contour>
			<point x="947.92" y="178.8" type="line"/>
			<point x="821.648" y="372.624" type="line"/>
			<point x="641.832" y="250.672" type="line"/>
			<point x="766.808" y="60.144" type="line"/>
		</contour>
		<contour>
			<point x="71.8" y="277.2" type="line"/>
			<point x="179.864" y="106.92" type="line"/>
			<point x="381.544" y="261.416" type="line"/>
			<point x="257.76" y="418.864" type="line"/>
		</contour>
		<contour>
			<point x="649.616" y="893.488" type="curve" smooth="yes"/>
			<point x="352.352" y="893.488"/>
			<point x="186.744" y="695.864"/>
			<point x="186.744" y="446.928" type="curve" smooth="yes"/>
			<point x="186.744" y="267.248"/>
			<point x="311.352" y="145.584"/>
			<point x="512.032" y="145.584" type="curve" smooth="yes"/>
			<point x="809.296" y="145.584"/>
			<point x="974.904" y="342.856"/>
			<point x="974.904" y="592.144" type="curve" smooth="yes"/>
			<point x="974.904" y="771.824"/>
			<point x="850.296" y="893.488"/>
		</contour>
		<contour>
			<point x="544.584" y="318.568" type="curve" smooth="yes"/>
			<point x="440.544" y="318.568"/>
			<point x="379.152" y="381.144"/>
			<point x="379.152" y="476.832" type="curve" smooth="yes"/>
			<point x="379.152" y="610.872"/>
			<point x="462.304" y="720.504"/>
			<point x="617.064" y="720.504" type="curve" smooth="yes"/>
			<point x="721.104" y="720.504"/>
			<point x="782.496" y="657.928"/>
			<point x="782.496" y="561.888" type="curve" smooth="yes"/>
			<point x="782.496" y="428.2"/>
			<point x="699.344" y="318.568"/>
		</contour>
	</outline>
</glyph>
<glyph name="brokenbar" format="2">
  <advance width="641.2080000000001"/>
  <unicode hex="00A6"/>
  <outline>
    <contour>
      <point x="507.408" y="737.672" type="line"/>
      <point x="749.072" y="1535.0" type="line"/>
      <point x="507.856" y="1535.0" type="line"/>
      <point x="266.192" y="737.672" type="line"/>
    </contour>
    <contour>
      <point x="-97.16000000000001" y="-465.0" type="line"/>
      <point x="143.704" y="-465.0" type="line"/>
      <point x="385.72" y="332.328" type="line"/>
      <point x="144.50400000000002" y="332.328" type="line"/>
    </contour>
  </outline>
</glyph>
<glyph name="section" format="2">
	<unicode hex="00A7"/>
	<advance width="1398.144"/>
	<outline>
		<contour>
			<point x="749.832" y="759.92" type="curve"/>
			<point x="591.168" y="800.68" type="line"/>
			<point x="262.616" y="800.032"/>
			<point x="93.376" y="680.328"/>
			<point x="93.376" y="471.736" type="curve" smooth="yes"/>
			<point x="93.376" y="98.312"/>
			<point x="733.288" y="254.144"/>
			<point x="733.288" y="63.872" type="curve" smooth="yes"/>
			<point x="733.288" y="0.328"/>
			<point x="679.56" y="-59.808"/>
			<point x="496.408" y="-59.808" type="curve" smooth="yes"/>
			<point x="274.736" y="-59.808"/>
			<point x="207.752" y="83.472"/>
			<point x="180.808" y="83.472" type="curve" smooth="yes"/>
			<point x="89.888" y="83.472"/>
			<point x="21.056" y="26.4"/>
			<point x="20.704" y="-66.968" type="curve" smooth="yes"/>
			<point x="20.352" y="-163.592"/>
			<point x="103.008" y="-245.592"/>
			<point x="437.2" y="-245.592" type="curve" smooth="yes"/>
			<point x="894.624" y="-245.592"/>
			<point x="1092.952" y="-57.32"/>
			<point x="1092.952" y="167.472" type="curve" smooth="yes"/>
			<point x="1092.952" y="578.408"/>
			<point x="454.984" y="393.576"/>
			<point x="454.984" y="601.24" type="curve" smooth="yes"/>
			<point x="454.984" y="684.64"/>
			<point x="523.92" y="750.088"/>
		</contour>
		<contour>
			<point x="991.16" y="593.648" type="curve" smooth="yes"/>
			<point x="991.16" y="510.248"/>
			<point x="922.224" y="444.8"/>
			<point x="696.312" y="434.968" type="curve"/>
			<point x="854.976" y="394.208" type="line"/>
			<point x="1183.528" y="394.856"/>
			<point x="1352.768" y="514.56"/>
			<point x="1352.768" y="723.152" type="curve" smooth="yes"/>
			<point x="1352.768" y="1096.576"/>
			<point x="712.856" y="940.744"/>
			<point x="712.856" y="1131.016" type="curve" smooth="yes"/>
			<point x="712.856" y="1194.56"/>
			<point x="766.584" y="1254.696"/>
			<point x="949.736" y="1254.696" type="curve" smooth="yes"/>
			<point x="1171.408" y="1254.696"/>
			<point x="1238.392" y="1111.416"/>
			<point x="1265.336" y="1111.416" type="curve" smooth="yes"/>
			<point x="1356.256" y="1111.416"/>
			<point x="1425.088" y="1168.488"/>
			<point x="1425.44" y="1261.856" type="curve" smooth="yes"/>
			<point x="1425.792" y="1358.48"/>
			<point x="1343.136" y="1440.48"/>
			<point x="1008.944" y="1440.48" type="curve" smooth="yes"/>
			<point x="551.52" y="1440.48"/>
			<point x="353.192" y="1252.208"/>
			<point x="353.192" y="1027.416" type="curve" smooth="yes"/>
			<point x="353.192" y="616.48"/>
			<point x="991.16" y="801.312"/>
		</contour>
	</outline>
</glyph>
<glyph name="copyright" format="2">
  <advance width="1778.016"/>
  <unicode hex="00A9"/>
  <outline>
    <contour>
      <point x="981.92" y="444.528" type="curve" smooth="yes"/>
      <point x="836.32" y="444.528"/>
      <point x="763.24" y="497.77599999999995"/>
      <point x="763.24" y="615.56" type="curve" smooth="yes"/>
      <point x="763.24" y="803.976"/>
      <point x="863.672" y="970.5840000000001"/>
      <point x="1065.0320000000002" y="970.5840000000001" type="curve" smooth="yes"/>
      <point x="1148.96" y="970.5840000000001"/>
      <point x="1202.72" y="955.2320000000001"/>
      <point x="1257.128" y="916.528" type="curve"/>
      <point x="1198.448" y="1027.376" type="line"/>
      <point x="1203.48" y="813.5440000000001" type="line"/>
      <point x="1306.456" y="813.544" type="line"/>
      <point x="1406.1760000000002" y="1140.0" type="line"/>
      <point x="1324.9759999999999" y="1140.0" type="line"/>
      <point x="1236.944" y="1063.4080000000001" type="line"/>
      <point x="1314.664" y="1086.8319999999999" type="line"/>
      <point x="1245.184" y="1110.592"/>
      <point x="1163.944" y="1123.0"/>
      <point x="1081.96" y="1123.0" type="curve" smooth="yes"/>
      <point x="682.0079999999999" y="1123.0"/>
      <point x="496.984" y="885.896"/>
      <point x="496.984" y="603.376" type="curve" smooth="yes"/>
      <point x="496.984" y="403.22400000000005"/>
      <point x="625.7280000000001" y="301.0"/>
      <point x="892.152" y="301.0" type="curve" smooth="yes"/>
      <point x="997.8720000000001" y="301.0"/>
      <point x="1076.944" y="315.05600000000004"/>
      <point x="1174.2" y="344.648" type="curve"/>
      <point x="1274.992" y="592.1600000000001" type="line"/>
      <point x="1178.552" y="592.1600000000001" type="line"/>
      <point x="1023.688" y="376.032" type="line"/>
      <point x="1158.792" y="478.288" type="line"/>
      <point x="1097.792" y="455.528"/>
      <point x="1033.68" y="444.528"/>
    </contour>
    <contour>
      <point x="866.408" y="89.76" type="curve" smooth="yes"/>
      <point x="506.12800000000004" y="89.76"/>
      <point x="307.70399999999995" y="253.056"/>
      <point x="307.70399999999995" y="545.9839999999999" type="curve" smooth="yes"/>
      <point x="307.70399999999995" y="956.5680000000001"/>
      <point x="550.256" y="1324.24"/>
      <point x="1026.96" y="1324.24" type="curve" smooth="yes"/>
      <point x="1387.24" y="1324.24"/>
      <point x="1585.664" y="1160.9440000000002"/>
      <point x="1585.664" y="868.0160000000001" type="curve" smooth="yes"/>
      <point x="1585.664" y="457.432"/>
      <point x="1343.112" y="89.76"/>
    </contour>
    <contour>
      <point x="1033.48" y="1440.48" type="curve" smooth="yes"/>
      <point x="467.0" y="1440.48"/>
      <point x="173.928" y="1008.552"/>
      <point x="173.928" y="527.3919999999999" type="curve" smooth="yes"/>
      <point x="173.928" y="169.8"/>
      <point x="428.848" y="-26.48"/>
      <point x="859.888" y="-26.48" type="curve" smooth="yes"/>
      <point x="1426.368" y="-26.48"/>
      <point x="1719.44" y="405.448"/>
      <point x="1719.44" y="886.6080000000001" type="curve" smooth="yes"/>
      <point x="1719.44" y="1244.2"/>
      <point x="1464.52" y="1440.48"/>
    </contour>
  </outline>
</glyph>
<glyph name="ordfeminine" format="2">
	<unicode hex="00AA"/>
	<advance width="1117.576"/>
	<outline>
		<contour>
			<point x="169.008" y="446.496" type="line"/>
			<point x="939.408" y="446.496" type="line"/>
			<point x="993.72" y="624.32" type="line"/>
			<point x="223.968" y="624.32" type="line"/>
		</contour>
		<contour>
			<point x="738.312" y="868.48" type="line" smooth="yes"/>
			<point x="703.888" y="767.968"/>
			<point x="740.144" y="743.08"/>
			<point x="826.768" y="743.08" type="curve" smooth="yes"/>
			<point x="918.392" y="743.08"/>
			<point x="996.096" y="763.968"/>
			<point x="1144.592" y="860.928" type="curve"/>
			<point x="1121.76" y="923.72" type="line"/>
			<point x="1023.536" y="885.792"/>
			<point x="966.072" y="880.088"/>
			<point x="859.208" y="886.736" type="curve"/>
			<point x="949.48" y="799.52" type="line"/>
			<point x="1159.832" y="1414" type="line"/>
			<point x="928.312" y="1414" type="line"/>
			<point x="849.576" y="1294.688" type="line"/>
			<point x="806.224" y="1187.352" type="line" smooth="yes"/>
			<point x="748.336" y="1044.24"/>
			<point x="648.96" y="907.808"/>
			<point x="582.248" y="907.808" type="curve" smooth="yes"/>
			<point x="541.392" y="907.808"/>
			<point x="526.112" y="925.384"/>
			<point x="526.112" y="963.24" type="curve" smooth="yes"/>
			<point x="526.112" y="1082.504"/>
			<point x="659.856" y="1301.416"/>
			<point x="759.032" y="1301.416" type="curve" smooth="yes"/>
			<point x="797.128" y="1301.416"/>
			<point x="827.816" y="1285.84"/>
			<point x="853.928" y="1222.488" type="curve"/>
			<point x="871.928" y="1251.672" type="line"/>
			<point x="841.224" y="1372.056"/>
			<point x="785.928" y="1431.592"/>
			<point x="692.336" y="1431.592" type="curve" smooth="yes"/>
			<point x="468.408" y="1431.592"/>
			<point x="251.264" y="1155.904"/>
			<point x="251.264" y="923.872" type="curve" smooth="yes"/>
			<point x="251.264" y="800.784"/>
			<point x="332.464" y="743.08"/>
			<point x="438.816" y="743.08" type="curve" smooth="yes"/>
			<point x="548.056" y="743.08"/>
			<point x="637.28" y="786.896"/>
			<point x="780.112" y="1032.576" type="curve"/>
			<point x="797.296" y="1032.576" type="line"/>
		</contour>
	</outline>
</glyph>
<glyph name="guillemotleft" format="2">
	<unicode hex="00AB"/>
	<advance width="1345.6"/>
	<outline>
		<contour>
			<point x="393.232" y="541.776" type="line"/>
			<point x="361.864" y="439.024" type="line"/>
			<point x="795.664" y="879.112" type="line"/>
			<point x="669.824" y="1041.264" type="line"/>
			<point x="123" y="638.064" type="line"/>
			<point x="51.784" y="405.936" type="line"/>
			<point x="376.96" y="2.736" type="line"/>
			<point x="561.072" y="99.32" type="line"/>
		</contour>
		<contour>
			<point x="966.72" y="541.776" type="line"/>
			<point x="935.352" y="439.024" type="line"/>
			<point x="1369.152" y="879.112" type="line"/>
			<point x="1243.312" y="1041.264" type="line"/>
			<point x="696.488" y="638.064" type="line"/>
			<point x="625.272" y="405.936" type="line"/>
			<point x="950.448" y="2.736" type="line"/>
			<point x="1134.56" y="99.32" type="line"/>
		</contour>
	</outline>
</glyph>
<glyph name="logicalnot" format="2">
  <advance width="1200.0"/>
  <unicode hex="00AC"/>
  <outline>
    <contour>
      <point x="238.81599999999997" y="820.6" type="line"/>
      <point x="172.304" y="602.9359999999999" type="line"/>
      <point x="847.056" y="602.9359999999999" type="line"/>
      <point x="727.944" y="214.6" type="line"/>
      <point x="936.128" y="214.6" type="line"/>
      <point x="1120.752" y="820.6" type="line"/>
    </contour>
  </outline>
</glyph>
<glyph name="degree" format="2">
	<unicode hex="00B0"/>
	<advance width="779.432"/>
	<outline>
		<contour>
			<point x="606.152" y="1434" type="curve" smooth="yes"/>
			<point x="397.672" y="1434"/>
			<point x="265.152" y="1276.352"/>
			<point x="265.152" y="1096.888" type="curve" smooth="yes"/>
			<point x="265.152" y="944.408"/>
			<point x="377.632" y="846"/>
			<point x="537.984" y="846" type="curve" smooth="yes"/>
			<point x="746.464" y="846"/>
			<point x="878.984" y="1003.648"/>
			<point x="878.984" y="1183.112" type="curve" smooth="yes"/>
			<point x="878.984" y="1335.592"/>
			<point x="766.504" y="1434"/>
		</contour>
		<contour>
			<point x="553.52" y="978.36" type="curve" smooth="yes"/>
			<point x="465.2" y="978.36"/>
			<point x="411.048" y="1029.456"/>
			<point x="411.048" y="1114.664" type="curve" smooth="yes"/>
			<point x="411.048" y="1215.912"/>
			<point x="478.776" y="1301.64"/>
			<point x="588.968" y="1301.64" type="curve" smooth="yes"/>
			<point x="678.936" y="1301.64"/>
			<point x="733.088" y="1250.544"/>
			<point x="733.088" y="1165.336" type="curve" smooth="yes"/>
			<point x="733.088" y="1064.088"/>
			<point x="665.36" y="978.36"/>
		</contour>
	</outline>
</glyph>
<glyph name="plusminus" format="2">
  <advance width="1200"/>
  <unicode hex="00B1"/>
  <outline>
    <contour>
      <point x="656.472" y="1039.0720000000001" type="line"/>
      <point x="382.512" y="143.35999999999999" type="line"/>
      <point x="590.696" y="143.35999999999999" type="line"/>
      <point x="864.656" y="1039.0720000000001" type="line"/>
    </contour>
    <contour>
      <point x="226.35199999999998" y="700.048" type="line"/>
      <point x="159.84" y="482.384" type="line"/>
      <point x="1020.816" y="482.384" type="line"/>
      <point x="1087.328" y="700.048" type="line"/>
    </contour>
    <contour>
      <point x="79.496" y="217.664" type="line"/>
      <point x="12.632" y="0.0" type="line"/>
      <point x="873.6080000000001" y="0.0" type="line"/>
      <point x="940.472" y="217.664" type="line"/>
    </contour>
  </outline>
</glyph>
<glyph name="uni00B2" format="2">
	<unicode hex="00B2"/>
	<advance width="834.176"/>
	<outline>
		<contour>
			<point x="613.792" y="752.368" type="line"/>
			<point x="840.944" y="874.152" type="line"/>
			<point x="388.096" y="874.152" type="line"/>
			<point x="368.064" y="822.448" type="line"/>
			<point x="579.408" y="926.072" type="line" smooth="yes"/>
			<point x="854.416" y="1052.52"/>
			<point x="904.08" y="1134.688"/>
			<point x="904.08" y="1252.352" type="curve" smooth="yes"/>
			<point x="904.08" y="1374.832"/>
			<point x="802.656" y="1435.888"/>
			<point x="635.976" y="1435.888" type="curve" smooth="yes"/>
			<point x="446.072" y="1435.888"/>
			<point x="344.128" y="1363.24"/>
			<point x="249.968" y="1171.352" type="curve"/>
			<point x="341.448" y="1116.912" type="line"/>
			<point x="395.872" y="1210.472"/>
			<point x="443.984" y="1245.624"/>
			<point x="522.136" y="1245.624" type="curve" smooth="yes"/>
			<point x="591.36" y="1245.624"/>
			<point x="630.824" y="1218.584"/>
			<point x="630.824" y="1167.6" type="curve" smooth="yes"/>
			<point x="630.824" y="1105.784"/>
			<point x="602.064" y="1062.56"/>
			<point x="412.216" y="939.504" type="curve" smooth="yes"/>
			<point x="203.984" y="798.4" type="line"/>
			<point x="161.912" y="662" type="line"/>
			<point x="658.976" y="662" type="line"/>
			<point x="689.416" y="627.944" type="line"/>
			<point x="750.304" y="627.944" type="line"/>
			<point x="910.688" y="953.064" type="line"/>
			<point x="821.688" y="953.064" type="line"/>
		</contour>
	</outline>
</glyph>
<glyph name="uni00B3" format="2">
	<unicode hex="00B3"/>
	<advance width="793.64"/>
	<outline>
		<contour>
			<point x="420.152" y="973.672" type="line"/>
			<point x="479.352" y="975.08" type="line" smooth="yes"/>
			<point x="561.656" y="978.952"/>
			<point x="596.84" y="958.376"/>
			<point x="596.84" y="901.504" type="curve" smooth="yes"/>
			<point x="596.84" y="817.056"/>
			<point x="530.616" y="764.792"/>
			<point x="414.888" y="764.792" type="curve" smooth="yes"/>
			<point x="304.776" y="764.792"/>
			<point x="260.888" y="851.256"/>
			<point x="246.296" y="851.256" type="curve" smooth="yes"/>
			<point x="183.688" y="851.256"/>
			<point x="145.968" y="810.72"/>
			<point x="145.968" y="752.704" type="curve" smooth="yes"/>
			<point x="145.968" y="698.52"/>
			<point x="197.208" y="646.168"/>
			<point x="386.128" y="646.168" type="curve" smooth="yes"/>
			<point x="702.008" y="646.168"/>
			<point x="846.784" y="768.52"/>
			<point x="846.784" y="941.296" type="curve" smooth="yes"/>
			<point x="846.784" y="1038.832"/>
			<point x="776.656" y="1104.128"/>
			<point x="646.416" y="1102.72" type="curve"/>
			<point x="646.416" y="1097.424" type="line"/>
			<point x="821.448" y="1118.96"/>
			<point x="874.304" y="1189.424"/>
			<point x="874.304" y="1278.464" type="curve" smooth="yes"/>
			<point x="874.304" y="1368.632"/>
			<point x="818.672" y="1434.48"/>
			<point x="660.88" y="1434.48" type="curve" smooth="yes"/>
			<point x="453.032" y="1434.48"/>
			<point x="351.056" y="1351.48"/>
			<point x="279.264" y="1202.448" type="curve"/>
			<point x="366.52" y="1152.488" type="line"/>
			<point x="409.28" y="1231.528"/>
			<point x="461.928" y="1267.064"/>
			<point x="535.56" y="1267.064" type="curve" smooth="yes"/>
			<point x="598.432" y="1267.064"/>
			<point x="631.952" y="1245.712"/>
			<point x="631.952" y="1192.952" type="curve" smooth="yes"/>
			<point x="631.952" y="1129.616"/>
			<point x="598.376" y="1088.52"/>
			<point x="425.432" y="1074.056" type="curve"/>
		</contour>
	</outline>
</glyph>
<glyph name="uni00B5" format="2">
	<unicode hex="00B5"/>
	<advance width="1555.8"/>
	<outline>
		<contour>
			<point x="939.504" y="767.864" type="line"/>
			<point x="785.32" y="329.728"/>
			<point x="675.344" y="231.088"/>
			<point x="572.64" y="231.088" type="curve" smooth="yes"/>
			<point x="524.152" y="231.088"/>
			<point x="504.76" y="251.536"/>
			<point x="504.76" y="288.872" type="curve" smooth="yes"/>
			<point x="504.76" y="317.168"/>
			<point x="515.056" y="357.352"/>
			<point x="547.144" y="450.84" type="curve" smooth="yes"/>
			<point x="741.408" y="1036.96" type="line"/>
			<point x="376.04" y="1036.96" type="line"/>
			<point x="-81.792" y="-459.536" type="line"/>
			<point x="-29.48" y="-459.536" type="line"/>
			<point x="222.76" y="-435.168" type="line"/>
			<point x="276.04" y="142.872" type="line"/>
			<point x="239.896" y="185.64" type="line"/>
			<point x="240.6" y="64.256"/>
			<point x="286.68" y="-26.48"/>
			<point x="449.728" y="-26.48" type="curve" smooth="yes"/>
			<point x="615.064" y="-26.48"/>
			<point x="701.4" y="32.168"/>
			<point x="915.832" y="467" type="curve"/>
			<point x="952.016" y="468" type="line"/>
			<point x="838.216" y="141.192" type="line" smooth="yes"/>
			<point x="796.016" y="21.128"/>
			<point x="839.808" y="-26.48"/>
			<point x="945.024" y="-26.48" type="curve" smooth="yes"/>
			<point x="1056.016" y="-26.48"/>
			<point x="1242.32" y="31.2"/>
			<point x="1467.872" y="218.992" type="curve"/>
			<point x="1411.912" y="307.84" type="line"/>
			<point x="1254.08" y="210.136"/>
			<point x="1139.112" y="182.488"/>
			<point x="994.92" y="191.544" type="curve"/>
			<point x="1086.872" y="68.872" type="line"/>
			<point x="1402.704" y="1036.96" type="line"/>
			<point x="1037.984" y="1036.96" type="line"/>
		</contour>
	</outline>
</glyph>
<glyph name="paragraph" format="2">
	<unicode hex="00B6"/>
	<advance width="1391.152"/>
	<outline>
		<contour>
			<point x="582.872" y="-218.76" type="line"/>
			<point x="1036.856" y="1264.952" type="line"/>
			<point x="1271.096" y="1264.952" type="line"/>
			<point x="1316.464" y="1414" type="line"/>
			<point x="913.512" y="1414" type="line"/>
			<point x="413.808" y="-218.76" type="line"/>
		</contour>
		<contour>
			<point x="900.776" y="-218.76" type="line"/>
			<point x="1355.056" y="1266.544" type="line"/>
			<point x="1538.616" y="1306.152" type="line"/>
			<point x="1571.8" y="1414" type="line"/>
			<point x="1231.416" y="1414" type="line"/>
			<point x="732.064" y="-218.76" type="line"/>
		</contour>
		<contour>
			<point x="1032.408" y="1414" type="line"/>
			<point x="743.264" y="1414" type="line" smooth="yes"/>
			<point x="355.736" y="1414"/>
			<point x="203.56" y="1158.672"/>
			<point x="203.56" y="893.68" type="curve" smooth="yes"/>
			<point x="203.56" y="715.872"/>
			<point x="313.296" y="636.56"/>
			<point x="532.288" y="636.56" type="curve" smooth="yes"/>
			<point x="794.952" y="636.56" type="line"/>
		</contour>
	</outline>
</glyph>
<glyph name="uni00B9" format="2">
	<unicode hex="00B9"/>
	<advance width="693.496"/>
	<outline>
		<contour>
			<point x="325.304" y="772.128" type="line"/>
			<point x="199.928" y="738.536" type="line"/>
			<point x="176.984" y="662" type="line"/>
			<point x="669.96" y="662" type="line"/>
			<point x="692.904" y="738.536" type="line"/>
			<point x="594.616" y="772.128" type="line"/>
			<point x="791.32" y="1414" type="line"/>
			<point x="599.096" y="1414" type="line"/>
			<point x="253.672" y="1265.688" type="line"/>
			<point x="281.504" y="1165.264" type="line"/>
			<point x="545.36" y="1237.432" type="line"/>
			<point x="502.656" y="1350.592" type="line"/>
		</contour>
	</outline>
</glyph>
<glyph name="ordmasculine" format="2">
	<unicode hex="00BA"/>
	<advance width="1058.04"/>
	<outline>
		<contour>
			<point x="119.008" y="446.496" type="line"/>
			<point x="889.408" y="446.496" type="line"/>
			<point x="943.72" y="624.32" type="line"/>
			<point x="173.968" y="624.32" type="line"/>
		</contour>
		<contour>
			<point x="788.328" y="1440.48" type="curve" smooth="yes"/>
			<point x="458.448" y="1440.48"/>
			<point x="301.32" y="1223.016"/>
			<point x="301.32" y="990.168" type="curve" smooth="yes"/>
			<point x="301.32" y="832.912"/>
			<point x="412.224" y="743.08"/>
			<point x="628.512" y="743.08" type="curve" smooth="yes"/>
			<point x="958.392" y="743.08"/>
			<point x="1115.872" y="960.544"/>
			<point x="1115.872" y="1193.392" type="curve" smooth="yes"/>
			<point x="1115.872" y="1351"/>
			<point x="1004.616" y="1440.48"/>
		</contour>
		<contour>
			<point x="663.416" y="910.864" type="curve" smooth="yes"/>
			<point x="603.448" y="910.864"/>
			<point x="564.056" y="939.7723851852"/>
			<point x="564.056" y="1012.704" type="curve" smooth="yes"/>
			<point x="564.056" y="1138.0489003215"/>
			<point x="634.376" y="1273.048"/>
			<point x="753.776" y="1273.048" type="curve" smooth="yes"/>
			<point x="813.744" y="1273.048"/>
			<point x="852.784" y="1243.7948235294"/>
			<point x="852.784" y="1170.856" type="curve" smooth="yes"/>
			<point x="852.784" y="1045.5132903226"/>
			<point x="782.816" y="910.864"/>
		</contour>
	</outline>
</glyph>
<glyph name="guillemotright" format="2">
	<unicode hex="00BB"/>
	<advance width="1374.6"/>
	<outline>
		<contour>
			<point x="390.584" y="502.872" type="line"/>
			<point x="421.952" y="605.624" type="line"/>
			<point x="-11.848" y="165.536" type="line"/>
			<point x="113.992" y="3.384" type="line"/>
			<point x="660.816" y="406.584" type="line"/>
			<point x="732.032" y="638.712" type="line"/>
			<point x="406.856" y="1041.912" type="line"/>
			<point x="222.744" y="945.328" type="line"/>
		</contour>
		<contour>
			<point x="964.072" y="502.872" type="line"/>
			<point x="995.44" y="605.624" type="line"/>
			<point x="561.64" y="165.536" type="line"/>
			<point x="687.48" y="3.384" type="line"/>
			<point x="1234.304" y="406.584" type="line"/>
			<point x="1305.52" y="638.712" type="line"/>
			<point x="980.344" y="1041.912" type="line"/>
			<point x="796.232" y="945.328" type="line"/>
		</contour>
	</outline>
</glyph>
<glyph name="questiondown" format="2">
	<unicode hex="00BF"/>
	<advance width="1359.464"/>
	<outline>
		<contour>
			<point x="750.776" y="674.224" type="curve" smooth="yes"/>
			<point x="945" y="674.224"/>
			<point x="1025.2" y="786.384"/>
			<point x="1025.2" y="917.728" type="curve" smooth="yes"/>
			<point x="1025.2" y="1005.704"/>
			<point x="970.648" y="1056.256"/>
			<point x="863.656" y="1056.256" type="curve" smooth="yes"/>
			<point x="669.432" y="1056.256"/>
			<point x="589.232" y="944.096"/>
			<point x="589.232" y="813.104" type="curve" smooth="yes"/>
			<point x="589.232" y="724.776"/>
			<point x="643.784" y="674.224"/>
		</contour>
		<contour>
			<point x="581.696" y="-410" type="curve" smooth="yes"/>
			<point x="957.84" y="-410"/>
			<point x="1088.848" y="-310.024"/>
			<point x="1088.848" y="-167.648" type="curve" smooth="yes"/>
			<point x="1088.848" y="-80.656"/>
			<point x="1024.872" y="-19.736"/>
			<point x="930.232" y="-19.736" type="curve" smooth="yes"/>
			<point x="891.88" y="-19.736"/>
			<point x="810.96" y="-194.616"/>
			<point x="581.856" y="-194.616" type="curve" smooth="yes"/>
			<point x="413.072" y="-194.616"/>
			<point x="332.272" y="-112.032"/>
			<point x="332.272" y="9.104" type="curve" smooth="yes"/>
			<point x="332.272" y="153.336"/>
			<point x="419.496" y="215.896"/>
			<point x="762.816" y="191.84" type="curve"/>
			<point x="840.224" y="537.808" type="line"/>
			<point x="598.864" y="537.808" type="line"/>
			<point x="474.904" y="309.312" type="line"/>
			<point x="617.392" y="396.96" type="line"/>
			<point x="137.664" y="430.92"/>
			<point x="-41.552" y="281.328"/>
			<point x="-41.552" y="23.68" type="curve" smooth="yes"/>
			<point x="-41.552" y="-208.88"/>
			<point x="156.584" y="-410"/>
		</contour>
	</outline>
</glyph>
<glyph name="AE" format="2">
	<unicode hex="00C6"/>
	<advance width="2401.36"/>
	<outline>
		<contour>
			<point x="297.472" y="156.016" type="line"/>
			<point x="1314.656" y="1232.064" type="line"/>
			<point x="1310.048" y="1236.6" type="line"/>
			<point x="977.712" y="160.552" type="line"/>
			<point x="801.264" y="105.184" type="line"/>
			<point x="768.968" y="0" type="line"/>
			<point x="1333.816" y="0" type="line"/>
			<point x="1769.056" y="1414" type="line"/>
			<point x="871.488" y="1414" type="line"/>
			<point x="839.84" y="1308.816" type="line"/>
			<point x="1055.616" y="1240.544" type="line"/>
			<point x="26.544" y="156.016" type="line"/>
			<point x="-133.496" y="105.184" type="line"/>
			<point x="-167.088" y="0" type="line"/>
			<point x="416.216" y="0" type="line"/>
			<point x="448.808" y="105.184" type="line"/>
		</contour>
		<contour>
			<point x="1885.016" y="-92.088" type="line"/>
			<point x="2029.344" y="-92.088" type="line"/>
			<point x="2334.816" y="468.008" type="line"/>
			<point x="2160.936" y="468.008" type="line"/>
			<point x="1784.192" y="84.96" type="line"/>
			<point x="1986.376" y="203.024" type="line"/>
			<point x="1198.664" y="203.024" type="line"/>
			<point x="1137.704" y="0" type="line"/>
			<point x="1849.608" y="0" type="line"/>
		</contour>
		<contour>
			<point x="496.176" y="438.272" type="line"/>
			<point x="1194.36" y="438.272" type="line"/>
			<point x="1261.152" y="634.168" type="line"/>
			<point x="562.616" y="634.168" type="line"/>
		</contour>
		<contour>
			<point x="1765.52" y="480" type="line"/>
			<point x="1920.624" y="480" type="line"/>
			<point x="1998.624" y="735" type="line"/>
			<point x="2076.624" y="990" type="line"/>
			<point x="1921.52" y="990" type="line"/>
			<point x="1855.704" y="828.792" type="line"/>
			<point x="1391.536" y="828.792" type="line"/>
			<point x="1334.52" y="645.208" type="line"/>
			<point x="1800.336" y="645.208" type="line"/>
		</contour>
		<contour>
			<point x="2231.776" y="1008.952" type="line"/>
			<point x="2404.304" y="1008.952" type="line"/>
			<point x="2531.528" y="1502.144" type="line"/>
			<point x="2407.088" y="1502.144" type="line"/>
			<point x="2283.056" y="1414" type="line"/>
			<point x="1569.704" y="1414" type="line"/>
			<point x="1510.04" y="1210.976" type="line"/>
			<point x="2288" y="1210.976" type="line"/>
			<point x="2238.816" y="1333.576" type="line"/>
		</contour>
	</outline>
	<anchor name="UCtop" x="1564.096" y="1414"/>
	<anchor name="bottom" x="1131.096" y="0"/>
</glyph>
<glyph name="Ccedilla" format="2">
	<unicode hex="00C7"/>
	<advance width="1573.32"/>
	<outline>
		<contour>
			<point x="1231.976" y="235.808" type="line"/>
			<point x="1132.712" y="203.472"/>
			<point x="1023.04" y="182.84"/>
			<point x="946.048" y="182.84" type="curve" smooth="yes"/>
			<point x="693.56" y="182.84"/>
			<point x="552.296" y="300.864"/>
			<point x="552.296" y="571.608" type="curve" smooth="yes"/>
			<point x="552.296" y="960.648"/>
			<point x="740.024" y="1215.792"/>
			<point x="1151.8" y="1215.792" type="curve" smooth="yes"/>
			<point x="1252.656" y="1215.792"/>
			<point x="1342.472" y="1195.904"/>
			<point x="1407.96" y="1150.216" type="curve"/>
			<point x="1324.808" y="1317.472" type="line"/>
			<point x="1365.552" y="918.528" type="line"/>
			<point x="1552.616" y="918.528" type="line"/>
			<point x="1647.168" y="1502.144" type="line"/>
			<point x="1510.896" y="1502.144" type="line"/>
			<point x="1356.44" y="1363.872" type="line"/>
			<point x="1550.464" y="1374.648" type="line"/>
			<point x="1442.856" y="1415.48"/>
			<point x="1323.024" y="1440.48"/>
			<point x="1170.472" y="1440.48" type="curve" smooth="yes"/>
			<point x="475.712" y="1440.48"/>
			<point x="156.448" y="1060.888"/>
			<point x="156.448" y="556.608" type="curve" smooth="yes"/>
			<point x="156.448" y="213.68"/>
			<point x="356.04" y="-26.48"/>
			<point x="828.416" y="-26.48" type="curve" smooth="yes"/>
			<point x="1032.04" y="-26.48"/>
			<point x="1178.672" y="0.28"/>
			<point x="1305.688" y="38.208" type="curve"/>
			<point x="1488.848" y="480.008" type="line"/>
			<point x="1308.208" y="480.008" type="line"/>
			<point x="998.704" y="90.648" type="line"/>
		</contour>
		<contour>
			<point x="607.712" y="-371.136" type="curve" smooth="yes"/>
			<point x="539.712" y="-371.136"/>
			<point x="493.808" y="-323.616"/>
			<point x="472.976" y="-323.616" type="curve" smooth="yes"/>
			<point x="440.384" y="-323.616"/>
			<point x="415.496" y="-353.504"/>
			<point x="415.496" y="-391.928" type="curve" smooth="yes"/>
			<point x="415.496" y="-442.296"/>
			<point x="453.976" y="-465"/>
			<point x="566.344" y="-465" type="curve"/>
			<point x="820.312" y="-465"/>
			<point x="912.256" y="-369.408"/>
			<point x="912.256" y="-236.56" type="curve" smooth="yes"/>
			<point x="912.256" y="-161.784"/>
			<point x="860.072" y="-104.952"/>
			<point x="690.392" y="-79.784" type="curve"/>
			<point x="668.6" y="-182.256" type="line"/>
			<point x="917.568" y="38.44" type="line"/>
			<point x="783.392" y="38.44" type="line"/>
			<point x="538.328" y="-183.648" type="line"/>
			<point x="527.144" y="-219.848" type="line"/>
			<point x="680.4" y="-235.424"/>
			<point x="717.808" y="-257.296"/>
			<point x="717.808" y="-293.464" type="curve" smooth="yes"/>
			<point x="717.808" y="-341.8"/>
			<point x="683.824" y="-371.136"/>
		</contour>
	</outline>
</glyph>
<glyph name="multiply" format="2">
  <advance width="1200.0"/>
  <unicode hex="00D7"/>
  <outline>
    <contour>
      <point x="106.19200000000001" y="268.40000000000003" type="line"/>
      <point x="213.904" y="98.472" type="line"/>
      <point x="1093.104" y="770.672" type="line"/>
      <point x="985.3919999999999" y="940.6" type="line"/>
    </contour>
    <contour>
      <point x="290.36" y="822.296" type="line"/>
      <point x="728.176" y="98.472" type="line"/>
      <point x="911.88" y="210.888" type="line"/>
      <point x="471.472" y="940.6" type="line"/>
    </contour>
  </outline>
</glyph>
<glyph name="Oslash" format="2">
  <advance width="1766.44"/>
  <unicode hex="00D8"/>
  <guideline x="220.536" y="886.184" angle="1.068109686655987" identifier="1lh4T5epEW"/>
  <guideline x="1676.864" y="579.5840000000001" angle="1.068109686655987" identifier="7WIL8gm0mk"/>
  <anchor x="1109.016" y="1414.0" name="UCtop"/>
  <anchor x="744.832" y="0.0" name="bottom"/>
  <outline>
    <contour>
      <point x="1951.2640000000001" y="1414.0" type="line"/>
      <point x="1660.488" y="1414.0" type="line"/>
      <point x="1455.176" y="1247.056" type="line"/>
      <point x="1362.5919999999999" y="1178.56" type="line"/>
      <point x="424.352" y="380.74399999999997" type="line"/>
      <point x="307.45599999999996" y="306.064" type="line"/>
      <point x="-69.47200000000001" y="0.0" type="line"/>
      <point x="221.304" y="0.0" type="line"/>
      <point x="426.61600000000004" y="166.94400000000002" type="line"/>
      <point x="519.2" y="235.44" type="line"/>
      <point x="1457.44" y="1033.256" type="line"/>
      <point x="1574.3359999999998" y="1107.9360000000001" type="line"/>
    </contour>
    <contour>
      <point x="545.408" y="497.56" type="curve" smooth="yes"/>
      <point x="545.408" y="857.088"/>
      <point x="722.1999999999999" y="1210.256"/>
      <point x="1054.584" y="1210.256" type="curve" smooth="yes"/>
      <point x="1244.952" y="1210.256"/>
      <point x="1336.384" y="1110.2079999999999"/>
      <point x="1336.384" y="916.4399999999999" type="curve" smooth="yes"/>
      <point x="1336.384" y="556.912"/>
      <point x="1159.5919999999999" y="203.744"/>
      <point x="827.208" y="203.744" type="curve" smooth="yes"/>
      <point x="636.84" y="203.744"/>
      <point x="545.408" y="303.79200000000003"/>
    </contour>
    <contour>
      <point x="1721.104" y="883.1519999999999" type="curve" smooth="yes"/>
      <point x="1721.104" y="1235.312"/>
      <point x="1507.384" y="1440.48"/>
      <point x="1065.472" y="1440.48" type="curve" smooth="yes"/>
      <point x="505.65599999999995" y="1440.48"/>
      <point x="160.688" y="1040.1200000000001"/>
      <point x="160.688" y="530.848" type="curve" smooth="yes"/>
      <point x="160.688" y="178.68800000000002"/>
      <point x="374.40799999999996" y="-26.48"/>
      <point x="816.32" y="-26.48" type="curve" smooth="yes"/>
      <point x="1376.136" y="-26.48"/>
      <point x="1721.104" y="373.88"/>
    </contour>
  </outline>
</glyph>
<glyph name="Thorn" format="2">
	<unicode hex="00DE"/>
	<advance width="1542.016"/>
	<outline>
		<contour>
			<point x="867.528" y="471.824" type="curve" smooth="yes"/>
			<point x="451.952" y="471.824" type="line"/>
			<point x="351.76" y="268.8" type="line"/>
			<point x="892.496" y="268.8" type="line" smooth="yes"/>
			<point x="1331.824" y="268.8"/>
			<point x="1519.808" y="526.16"/>
			<point x="1519.808" y="814.48" type="curve" smooth="yes"/>
			<point x="1519.808" y="1032.848"/>
			<point x="1386.808" y="1158.864"/>
			<point x="1022.432" y="1158.864" type="curve" smooth="yes"/>
			<point x="631.848" y="1158.864" type="line"/>
			<point x="618.192" y="955.84" type="line"/>
			<point x="921.44" y="955.84" type="line" smooth="yes"/>
			<point x="1079.344" y="955.84"/>
			<point x="1139.44" y="908.168"/>
			<point x="1139.44" y="811.848" type="curve" smooth="yes"/>
			<point x="1139.44" y="647.52"/>
			<point x="1056.024" y="471.824"/>
		</contour>
		<contour>
			<point x="493.6" y="1256.04" type="line"/>
			<point x="154.784" y="160.552" type="line"/>
			<point x="-21.664" y="105.184" type="line"/>
			<point x="-53.96" y="0" type="line"/>
			<point x="690.632" y="0" type="line"/>
			<point x="721.28" y="105.184" type="line"/>
			<point x="558.776" y="157.96" type="line"/>
			<point x="897.592" y="1253.448" type="line"/>
			<point x="1074.04" y="1308.816" type="line"/>
			<point x="1104.688" y="1414" type="line"/>
			<point x="361.744" y="1414" type="line"/>
			<point x="330.096" y="1308.816" type="line"/>
		</contour>
	</outline>
</glyph>
<glyph name="germandbls" format="2">
  <advance width="1678"/>
  <unicode hex="00DF"/>
  <outline>
    <contour>
      <point x="134.632" y="877.488" type="line"/>
      <point x="562.432" y="877.488" type="line"/>
      <point x="562.432" y="1036.96" type="line"/>
      <point x="134.632" y="1036.96" type="line"/>
    </contour>
    <contour>
      <point x="627.328" y="347.192" type="curve" smooth="yes"/>
      <point x="791.3120000000001" y="1095.9199999999998" type="line" smooth="yes"/>
      <point x="829.5360000000001" y="1270.672"/>
      <point x="883.432" y="1332.624"/>
      <point x="1044.4799999999998" y="1332.624" type="curve" smooth="yes"/>
      <point x="1177.52" y="1332.624"/>
      <point x="1224.392" y="1287.104"/>
      <point x="1224.392" y="1212.08" type="curve" smooth="yes"/>
      <point x="1224.392" y="1123.952"/>
      <point x="1187.5040000000001" y="1059.8960000000002"/>
      <point x="1064.1119999999999" y="972.376" type="curve" smooth="yes"/>
      <point x="936.184" y="881.616"/>
      <point x="896.9440000000001" y="805.264"/>
      <point x="896.9440000000001" y="708.0799999999999" type="curve" smooth="yes"/>
      <point x="896.9440000000001" y="614.728"/>
      <point x="941.128" y="543.6"/>
      <point x="1069.704" y="466.32" type="curve" smooth="yes"/>
      <point x="1198.28" y="389.03999999999996"/>
      <point x="1235.9440000000002" y="336.8"/>
      <point x="1235.9440000000002" y="270.336" type="curve" smooth="yes"/>
      <point x="1235.9440000000002" y="160.0"/>
      <point x="1180.232" y="117.56800000000001"/>
      <point x="1079.744" y="117.56800000000001" type="curve" smooth="yes"/>
      <point x="1036.7440000000001" y="117.56800000000001"/>
      <point x="1005.504" y="123.512"/>
      <point x="983.5600000000001" y="149.16" type="curve" smooth="yes"/>
      <point x="961.616" y="174.80800000000002"/>
      <point x="945.264" y="225.104"/>
      <point x="938.392" y="317.552" type="curve" smooth="yes"/>
      <point x="741.904" y="317.552"/>
      <point x="692.1999999999999" y="272.848"/>
      <point x="692.1999999999999" y="169.72" type="curve" smooth="yes"/>
      <point x="692.1999999999999" y="55.760000000000005"/>
      <point x="782.2719999999999" y="-26.48"/>
      <point x="1037.8" y="-26.48" type="curve" smooth="yes"/>
      <point x="1372.2240000000002" y="-26.48"/>
      <point x="1537.688" y="114.48000000000002"/>
      <point x="1537.688" y="362.048" type="curve" smooth="yes"/>
      <point x="1537.688" y="481.06399999999996"/>
      <point x="1478.84" y="578.376"/>
      <point x="1353.968" y="660.544" type="curve" smooth="yes"/>
      <point x="1229.096" y="742.712"/>
      <point x="1195.784" y="784.952"/>
      <point x="1195.784" y="828.5279999999999" type="curve" smooth="yes"/>
      <point x="1195.784" y="886.752"/>
      <point x="1224.0079999999998" y="922.736"/>
      <point x="1359.6" y="988.2400000000001" type="curve" smooth="yes"/>
      <point x="1495.192" y="1053.7440000000001"/>
      <point x="1546.248" y="1125.672"/>
      <point x="1546.248" y="1234.024" type="curve" smooth="yes"/>
      <point x="1546.248" y="1384.336"/>
      <point x="1431.528" y="1490.48"/>
      <point x="1108.632" y="1490.48" type="curve" smooth="yes"/>
      <point x="721.28" y="1490.48"/>
      <point x="477.576" y="1330.24"/>
      <point x="414.576" y="983.096" type="curve" smooth="yes"/>
      <point x="223.616" y="-69.784" type="line" smooth="yes"/>
      <point x="189.832" y="-249.76000000000002"/>
      <point x="125.06400000000001" y="-309.344"/>
      <point x="26.912" y="-309.344" type="curve" smooth="yes"/>
      <point x="-11.144000000000005" y="-309.344"/>
      <point x="-35.848000000000006" y="-303.992"/>
      <point x="-56.736" y="-276.752" type="curve" smooth="yes"/>
      <point x="-77.624" y="-249.51199999999997"/>
      <point x="-85.328" y="-198.088"/>
      <point x="-90.088" y="-105.592" type="curve" smooth="yes"/>
      <point x="-258.98400000000004" y="-105.592"/>
      <point x="-331.664" y="-158.95999999999998"/>
      <point x="-331.664" y="-265.99199999999996" type="curve" smooth="yes"/>
      <point x="-331.664" y="-395.28000000000003"/>
      <point x="-260.128" y="-465.0"/>
      <point x="-61.976" y="-465.0" type="curve" smooth="yes"/>
      <point x="244.184" y="-465.0"/>
      <point x="498.688" y="-233.872"/>
    </contour>
  </outline>
</glyph>
<glyph name="ae" format="2">
  <advance width="2001.424"/>
  <unicode hex="00E6"/>
  <anchor x="1184.048" y="1036.96" name="top"/>
  <anchor x="820.8000000000001" y="0.0" name="bottom"/>
  <outline>
    <contour>
      <point x="1272.312" y="868.504" type="line"/>
      <point x="1315.288" y="1036.96" type="line"/>
      <point x="1113.528" y="1036.96" type="line"/>
      <point x="985.5920000000001" y="845.5920000000001" type="line"/>
      <point x="929.32" y="713.344" type="line" smooth="yes"/>
      <point x="833.408" y="479.512"/>
      <point x="626.5360000000001" y="195.112"/>
      <point x="499.64" y="195.112" type="curve" smooth="yes"/>
      <point x="434.208" y="195.112"/>
      <point x="396.59200000000004" y="226.264"/>
      <point x="396.59200000000004" y="291.512" type="curve" smooth="yes"/>
      <point x="396.59200000000004" y="494.336"/>
      <point x="631.6479999999999" y="869.624"/>
      <point x="827.1519999999999" y="869.624" type="curve" smooth="yes"/>
      <point x="894.176" y="869.624"/>
      <point x="947.904" y="841.936"/>
      <point x="992.592" y="737.304" type="curve"/>
      <point x="1013.088" y="792.176" type="line"/>
      <point x="969.776" y="973.48"/>
      <point x="882.24" y="1063.44"/>
      <point x="733.2239999999999" y="1063.44" type="curve" smooth="yes"/>
      <point x="382.992" y="1063.44"/>
      <point x="33.928" y="615.448"/>
      <point x="33.928" y="254.21599999999998" type="curve" smooth="yes"/>
      <point x="33.928" y="64.408"/>
      <point x="173.736" y="-26.48"/>
      <point x="326.55199999999996" y="-26.48" type="curve" smooth="yes"/>
      <point x="493.88" y="-26.48"/>
      <point x="625.624" y="43.8"/>
      <point x="882.928" y="458.7679999999999" type="curve"/>
      <point x="913.76" y="458.768" type="line"/>
      <point x="865.672" y="154.592"/>
      <point x="1003.24" y="-26.48"/>
      <point x="1304.792" y="-26.48" type="curve" smooth="yes"/>
      <point x="1546.1680000000001" y="-26.48"/>
      <point x="1740.2" y="76.776"/>
      <point x="1879.976" y="379.82399999999996" type="curve"/>
      <point x="1773.0880000000002" y="379.82399999999996" type="line"/>
      <point x="1682.9759999999999" y="254.74400000000003"/>
      <point x="1575.992" y="207.704"/>
      <point x="1446.64" y="207.704" type="curve" smooth="yes"/>
      <point x="1289.0880000000002" y="207.704"/>
      <point x="1239.048" y="264.704"/>
      <point x="1239.048" y="442.928" type="curve" smooth="yes"/>
      <point x="1239.048" y="762.136"/>
      <point x="1400.9440000000002" y="914.632"/>
      <point x="1566.048" y="914.632" type="curve" smooth="yes"/>
      <point x="1643.72" y="914.632"/>
      <point x="1679.872" y="873.832"/>
      <point x="1679.872" y="807.512" type="curve" smooth="yes"/>
      <point x="1679.872" y="687.904"/>
      <point x="1661.688" y="658.7919999999999"/>
      <point x="1155.472" y="562.072" type="curve"/>
      <point x="1148.472" y="457.24" type="line"/>
      <point x="1386.688" y="478.592"/>
      <point x="1664.016" y="517.408"/>
      <point x="1917.1599999999999" y="578.928" type="curve"/>
      <point x="1959.936" y="659.8480000000001"/>
      <point x="1977.752" y="736.552"/>
      <point x="1977.752" y="806.2" type="curve" smooth="yes"/>
      <point x="1977.752" y="948.8480000000001"/>
      <point x="1899.92" y="1063.44"/>
      <point x="1699.848" y="1063.44" type="curve" smooth="yes"/>
      <point x="1501.824" y="1063.44"/>
      <point x="1378.6" y="985.3520000000001"/>
      <point x="1279.8400000000001" y="868.504" type="curve"/>
    </contour>
  </outline>
</glyph>
<glyph name="ccedilla" format="2">
	<unicode hex="00E7"/>
	<advance width="1149.12"/>
	<outline>
		<contour>
			<point x="253.088" y="-465" type="curve"/>
			<point x="507.056" y="-465"/>
			<point x="599" y="-369.408"/>
			<point x="599" y="-236.56" type="curve" smooth="yes"/>
			<point x="599" y="-161.784"/>
			<point x="546.816" y="-104.952"/>
			<point x="377.136" y="-79.784" type="curve"/>
			<point x="355.344" y="-182.256" type="line"/>
			<point x="604.312" y="38.44" type="line"/>
			<point x="470.136" y="38.44" type="line"/>
			<point x="225.072" y="-183.648" type="line"/>
			<point x="213.888" y="-219.848" type="line"/>
			<point x="367.144" y="-235.424"/>
			<point x="404.552" y="-257.296"/>
			<point x="404.552" y="-293.464" type="curve" smooth="yes"/>
			<point x="404.552" y="-341.8"/>
			<point x="370.568" y="-371.136"/>
			<point x="294.456" y="-371.136" type="curve" smooth="yes"/>
			<point x="226.456" y="-371.136"/>
			<point x="180.552" y="-323.616"/>
			<point x="159.72" y="-323.616" type="curve" smooth="yes"/>
			<point x="127.128" y="-323.616"/>
			<point x="102.24" y="-353.504"/>
			<point x="102.24" y="-391.928" type="curve" smooth="yes"/>
			<point x="102.24" y="-442.296"/>
			<point x="140.72" y="-465"/>
		</contour>
		<contour>
			<point x="744.576" y="917.04" type="curve" smooth="yes"/>
			<point x="790.072" y="917.04"/>
			<point x="832.256" y="870.192"/>
			<point x="874.016" y="808.192" type="curve" smooth="yes"/>
			<point x="915.776" y="746.192"/>
			<point x="947.832" y="691.92"/>
			<point x="970.888" y="691.92" type="curve" smooth="yes"/>
			<point x="1062.936" y="691.92"/>
			<point x="1147.08" y="760.288"/>
			<point x="1147.08" y="859.096" type="curve" smooth="yes"/>
			<point x="1147.08" y="974.24"/>
			<point x="1042.024" y="1063.44"/>
			<point x="793.464" y="1063.44" type="curve" smooth="yes"/>
			<point x="349.352" y="1063.44"/>
			<point x="72.928" y="755.512"/>
			<point x="72.928" y="378.192" type="curve" smooth="yes"/>
			<point x="72.928" y="99.776"/>
			<point x="211.128" y="-26.48"/>
			<point x="507.04" y="-26.48" type="curve" smooth="yes"/>
			<point x="769.384" y="-26.48"/>
			<point x="941.896" y="98.336"/>
			<point x="1056.024" y="401.856" type="curve"/>
			<point x="951.08" y="401.856" type="line"/>
			<point x="865.264" y="264.352"/>
			<point x="769.168" y="207.704"/>
			<point x="635.28" y="207.704" type="curve" smooth="yes"/>
			<point x="484.856" y="207.704"/>
			<point x="428.056" y="264.704"/>
			<point x="428.056" y="442.928" type="curve" smooth="yes"/>
			<point x="428.056" y="720.512"/>
			<point x="552.048" y="917.04"/>
		</contour>
	</outline>
</glyph>
<glyph name="eth" format="2">
	<unicode hex="00F0"/>
	<advance width="1290.712"/>
	<outline>
		<contour>
			<point x="909.984" y="630.688" type="line"/>
			<point x="908.224" y="825.976"/>
			<point x="833.72" y="984.784"/>
			<point x="594.16" y="984.784" type="curve" smooth="yes"/>
			<point x="300.008" y="984.784"/>
			<point x="67.336" y="704.664"/>
			<point x="67.336" y="345.568" type="curve" smooth="yes"/>
			<point x="67.336" y="136.552"/>
			<point x="204.168" y="-26.48"/>
			<point x="526.688" y="-26.48" type="curve" smooth="yes"/>
			<point x="984.368" y="-26.48"/>
			<point x="1232.448" y="350.896"/>
			<point x="1232.448" y="775.872" type="curve" smooth="yes"/>
			<point x="1232.448" y="1133.728"/>
			<point x="1027.2" y="1423.624"/>
			<point x="370.048" y="1490.48" type="curve"/>
			<point x="331.384" y="1325.272" type="line"/>
			<point x="888.64" y="1219.368"/>
			<point x="968.384" y="1033.488"/>
			<point x="839.256" y="507.568" type="curve"/>
		</contour>
		<contour>
			<point x="552.128" y="183.816" type="curve" smooth="yes"/>
			<point x="463.176" y="183.816"/>
			<point x="419.04" y="228.1297777778"/>
			<point x="419.04" y="328.568" type="curve" smooth="yes"/>
			<point x="419.04" y="535.9847645051"/>
			<point x="531.96" y="801.704"/>
			<point x="726.272" y="801.704" type="curve" smooth="yes"/>
			<point x="814.576" y="801.704"/>
			<point x="858.712" y="757.3902222222"/>
			<point x="858.712" y="655.656" type="curve" smooth="yes"/>
			<point x="858.712" y="448.8872354949"/>
			<point x="746.44" y="183.816"/>
		</contour>
		<contour>
			<point x="536.2" y="1024.488" type="line"/>
			<point x="1158.728" y="1382.112" type="line"/>
			<point x="1097.896" y="1490.48" type="line"/>
			<point x="475.368" y="1132.856" type="line"/>
		</contour>
	</outline>
</glyph>
<glyph name="divide" format="2">
	<unicode hex="00F7"/>
	<advance width="1200"/>
	<outline>
		<contour>
			<point x="203.24" y="628.192" type="line"/>
			<point x="136.728" y="410.88" type="line"/>
			<point x="997.704" y="410.88" type="line"/>
			<point x="1064.216" y="628.192" type="line"/>
		</contour>
		<contour>
			<point x="747.624" y="1047.6" type="curve" smooth="yes"/>
			<point x="625.688" y="1047.6"/>
			<point x="552.248" y="959.608"/>
			<point x="552.248" y="860.168" type="curve" smooth="yes"/>
			<point x="552.248" y="786.28"/>
			<point x="598.488" y="737.912"/>
			<point x="681.8" y="737.912" type="curve" smooth="yes"/>
			<point x="803.736" y="737.912"/>
			<point x="876.824" y="825.904"/>
			<point x="876.824" y="925.344" type="curve" smooth="yes"/>
			<point x="876.824" y="999.584"/>
			<point x="830.584" y="1047.6"/>
		</contour>
		<contour>
			<point x="519.144" y="301.16" type="curve" smooth="yes"/>
			<point x="397.208" y="301.16"/>
			<point x="323.768" y="213.168"/>
			<point x="323.768" y="113.728" type="curve" smooth="yes"/>
			<point x="323.768" y="39.84"/>
			<point x="370.008" y="-8.528"/>
			<point x="453.32" y="-8.528" type="curve" smooth="yes"/>
			<point x="575.256" y="-8.528"/>
			<point x="648.344" y="79.464"/>
			<point x="648.344" y="178.904" type="curve" smooth="yes"/>
			<point x="648.344" y="253.144"/>
			<point x="602.104" y="301.16"/>
		</contour>
	</outline>
</glyph>
<glyph name="oslash" format="2">
  <advance width="1330.216"/>
  <unicode hex="00F8"/>
  <guideline x="122.464" y="574.208" angle="2.0067812286864637" identifier="mD8XTzRra8"/>
  <guideline x="1208.64" y="461.808" angle="2.0067812286864637" identifier="VMiJIYugiO"/>
  <anchor x="798.7520000000001" y="1036.96" name="top"/>
  <anchor x="516.2239999999999" y="0.0" name="bottom"/>
  <outline>
    <contour>
      <point x="773.528" y="1063.44" type="curve" smooth="yes"/>
      <point x="341.176" y="1063.44"/>
      <point x="95.63199999999999" y="727.9599999999999"/>
      <point x="95.63199999999999" y="375.36" type="curve" smooth="yes"/>
      <point x="95.63199999999999" y="149.624"/>
      <point x="233.11200000000002" y="-26.48"/>
      <point x="557.5759999999999" y="-26.48" type="curve" smooth="yes"/>
      <point x="989.928" y="-26.48"/>
      <point x="1235.472" y="309.0"/>
      <point x="1235.472" y="661.6" type="curve" smooth="yes"/>
      <point x="1235.472" y="887.336"/>
      <point x="1097.9920000000002" y="1063.44"/>
    </contour>
    <contour>
      <point x="577.832" y="186.40800000000002" type="curve" smooth="yes"/>
      <point x="489.528" y="186.40800000000002"/>
      <point x="444.74399999999997" y="233.896"/>
      <point x="444.74399999999997" y="343.104" type="curve" smooth="yes"/>
      <point x="444.74399999999997" y="564.144"/>
      <point x="558.312" y="850.552"/>
      <point x="753.2719999999999" y="850.552" type="curve" smooth="yes"/>
      <point x="841.576" y="850.552"/>
      <point x="886.36" y="803.064"/>
      <point x="886.36" y="693.856" type="curve" smooth="yes"/>
      <point x="886.36" y="472.816"/>
      <point x="772.792" y="186.40800000000002"/>
    </contour>
    <contour>
      <point x="1209.696" y="1036.96" type="line"/>
      <point x="1030.3519999999999" y="893.352" type="line"/>
      <point x="972.672" y="871.7199999999999" type="line"/>
      <point x="283.52" y="257.4" type="line"/>
      <point x="217.896" y="236.416" type="line"/>
      <point x="-79.808" y="0.0" type="line"/>
      <point x="121.056" y="0.0" type="line"/>
      <point x="300.40000000000003" y="143.256" type="line"/>
      <point x="358.08" y="165.24" type="line"/>
      <point x="1047.584" y="779.5600000000001" type="line"/>
      <point x="1113.2079999999999" y="800.544" type="line"/>
      <point x="1410.56" y="1036.96" type="line"/>
    </contour>
  </outline>
</glyph>
<glyph name="thorn" format="2">
  <advance width="1337"/>
  <unicode hex="00FE"/>
  <outline>
    <contour>
      <point x="445.336" y="316.16" type="curve" smooth="yes"/>
      <point x="479.61600000000004" y="441.11199999999997" type="line" smooth="yes"/>
      <point x="528.672" y="620.224"/>
      <point x="679.8" y="825.0160000000001"/>
      <point x="802.552" y="825.0160000000001" type="curve" smooth="yes"/>
      <point x="870.5039999999999" y="825.0160000000001"/>
      <point x="906.824" y="781.68"/>
      <point x="906.824" y="679.688" type="curve" smooth="yes"/>
      <point x="906.824" y="412.816"/>
      <point x="746.096" y="126.288"/>
      <point x="568.096" y="126.288" type="curve" smooth="yes"/>
      <point x="479.824" y="126.288"/>
      <point x="433.152" y="173.792"/>
      <point x="433.152" y="244.184" type="curve" smooth="yes"/>
      <point x="433.152" y="262.12800000000004"/>
      <point x="435.8" y="281.368"/>
    </contour>
    <contour>
      <point x="466.512" y="664.352" type="line"/>
      <point x="797.2479999999999" y="1490.48" type="line"/>
      <point x="740.344" y="1490.48" type="line"/>
      <point x="197.288" y="1398.8" type="line"/>
      <point x="173.512" y="1301.288" type="line"/>
      <point x="230.51200000000003" y="1267.5723137254902"/>
      <point x="339.4" y="1202.7581176470587"/>
      <point x="375.4" y="1181.4640000000002" type="curve"/>
      <point x="-62.83200000000001" y="-302.8" type="line"/>
      <point x="-192.32" y="-336.968" type="line"/>
      <point x="-220.912" y="-438.52" type="line"/>
      <point x="421.54400000000004" y="-438.52" type="line"/>
      <point x="452.432" y="-336.32" type="line"/>
      <point x="288.592" y="-302.152" type="line"/>
      <point x="425.40799999999996" y="163.31199999999998" type="line"/>
      <point x="269.89599999999996" y="163.31199999999998" type="line"/>
      <point x="282.36" y="37.112"/>
      <point x="408.504" y="-25.832"/>
      <point x="589.6640000000001" y="-25.832" type="curve" smooth="yes"/>
      <point x="970.5120000000001" y="-25.832"/>
      <point x="1282.0240000000001" y="336.392"/>
      <point x="1282.0240000000001" y="735.4079999999999" type="curve" smooth="yes"/>
      <point x="1282.0240000000001" y="933.904"/>
      <point x="1180.432" y="1063.44"/>
      <point x="979.64" y="1063.44" type="curve" smooth="yes"/>
      <point x="797.536" y="1063.44"/>
      <point x="652.144" y="947.3679999999999"/>
      <point x="499.23199999999997" y="664.352" type="curve"/>
    </contour>
  </outline>
</glyph>
<glyph name="Aogonek" format="2">
	<unicode hex="0104"/>
	<advance width="1752.088"/>
	<outline>
		<contour>
			<point x="384.248" y="418.272" type="line"/>
			<point x="1087.632" y="418.272" type="line"/>
			<point x="1154.424" y="614.168" type="line"/>
			<point x="450.688" y="614.168" type="line"/>
		</contour>
		<contour>
			<point x="1471.16" y="157.96" type="line"/>
			<point x="1351.904" y="1421.04" type="line"/>
			<point x="891.264" y="1421.04" type="line"/>
			<point x="66.04" y="156.016" type="line"/>
			<point x="-94" y="105.184" type="line"/>
			<point x="-127.592" y="0" type="line"/>
			<point x="432.048" y="0" type="line"/>
			<point x="464.64" y="105.184" type="line"/>
			<point x="313.304" y="156.016" type="line"/>
			<point x="1042.048" y="1302.304" type="line"/>
			<point x="983.592" y="1295.176" type="line"/>
			<point x="1069.888" y="156.664" type="line"/>
			<point x="894.144" y="105.184" type="line"/>
			<point x="859.904" y="0" type="line"/>
			<point x="1604.456" y="0" type="line"/>
			<point x="1638.048" y="105.184" type="line"/>
		</contour>
		<contour>
			<point x="1156.6" y="-262.064" type="curve" smooth="yes"/>
			<point x="1156.6" y="-218.768"/>
			<point x="1168.416" y="-180.192"/>
			<point x="1247.656" y="-73.136" type="curve" smooth="yes"/>
			<point x="1358.264" y="75.88" type="line"/>
			<point x="1265.824" y="75.88" type="line"/>
			<point x="1156.512" y="-30.528" type="line" smooth="yes"/>
			<point x="1000.816" y="-181.488"/>
			<point x="970.224" y="-239.248"/>
			<point x="970.224" y="-321.56" type="curve" smooth="yes"/>
			<point x="970.224" y="-399.632"/>
			<point x="1015.408" y="-465"/>
			<point x="1127.792" y="-465" type="curve" smooth="yes"/>
			<point x="1193.792" y="-465"/>
			<point x="1258.864" y="-447.76"/>
			<point x="1358.064" y="-390.872" type="curve"/>
			<point x="1358.064" y="-297.064" type="line"/>
			<point x="1304.712" y="-319.232"/>
			<point x="1275.304" y="-325.88"/>
			<point x="1236.952" y="-325.88" type="curve" smooth="yes"/>
			<point x="1181.36" y="-325.88"/>
			<point x="1156.6" y="-306.36"/>
		</contour>
	</outline>
</glyph>
<glyph name="aogonek" format="2">
	<unicode hex="0105"/>
	<advance width="1473.872"/>
	<outline>
		<contour>
			<point x="1448.608" y="214.456" type="curve"/>
			<point x="1395.24" y="298.768" type="line"/>
			<point x="1249.072" y="203.008"/>
			<point x="1136.696" y="182.488"/>
			<point x="987.968" y="190.248" type="curve"/>
			<point x="1061.776" y="76" type="line"/>
			<point x="1403.608" y="1036.96" type="line"/>
			<point x="1124.088" y="1036.96" type="line"/>
			<point x="985.592" y="845.592" type="line"/>
			<point x="929.32" y="713.344" type="line" smooth="yes"/>
			<point x="833.408" y="479.512"/>
			<point x="626.536" y="195.112"/>
			<point x="499.64" y="195.112" type="curve" smooth="yes"/>
			<point x="434.208" y="195.112"/>
			<point x="396.592" y="226.264"/>
			<point x="396.592" y="291.512" type="curve" smooth="yes"/>
			<point x="396.592" y="494.336"/>
			<point x="631.648" y="869.624"/>
			<point x="827.152" y="869.624" type="curve" smooth="yes"/>
			<point x="894.176" y="869.624"/>
			<point x="947.904" y="841.936"/>
			<point x="992.592" y="737.304" type="curve"/>
			<point x="1013.088" y="792.176" type="line"/>
			<point x="969.776" y="973.48"/>
			<point x="882.24" y="1063.44"/>
			<point x="733.224" y="1063.44" type="curve" smooth="yes"/>
			<point x="382.992" y="1063.44"/>
			<point x="33.928" y="615.448"/>
			<point x="33.928" y="254.216" type="curve" smooth="yes"/>
			<point x="33.928" y="64.408"/>
			<point x="173.736" y="-26.48"/>
			<point x="326.552" y="-26.48" type="curve" smooth="yes"/>
			<point x="493.88" y="-26.48"/>
			<point x="625.624" y="43.8"/>
			<point x="882.928" y="458.768" type="curve"/>
			<point x="913.76" y="458.768" type="line"/>
			<point x="784.976" y="136.712" type="line" smooth="yes"/>
			<point x="735.536" y="15.296"/>
			<point x="776.2" y="-26.48"/>
			<point x="912.152" y="-26.48" type="curve" smooth="yes"/>
			<point x="988.016" y="-26.48"/>
			<point x="1077.568" y="-11.184"/>
			<point x="1181.16" y="36.984" type="curve"/>
			<point x="1166.328" y="57.76" type="line"/>
			<point x="1064.28" y="-24.696" type="line" smooth="yes"/>
			<point x="879.416" y="-168.88"/>
			<point x="832.624" y="-232.768"/>
			<point x="832.624" y="-321.56" type="curve" smooth="yes"/>
			<point x="832.624" y="-399.632"/>
			<point x="877.808" y="-465"/>
			<point x="990.192" y="-465" type="curve" smooth="yes"/>
			<point x="1056.192" y="-465"/>
			<point x="1121.264" y="-447.76"/>
			<point x="1220.464" y="-390.872" type="curve"/>
			<point x="1220.464" y="-297.064" type="line"/>
			<point x="1167.112" y="-319.232"/>
			<point x="1137.704" y="-325.88"/>
			<point x="1099.352" y="-325.88" type="curve" smooth="yes"/>
			<point x="1043.76" y="-325.88"/>
			<point x="1018" y="-306.36"/>
			<point x="1018" y="-262.064" type="curve" smooth="yes"/>
			<point x="1018" y="-217.712"/>
			<point x="1031.888" y="-173.064"/>
			<point x="1144.536" y="-70.952" type="curve" smooth="yes"/>
			<point x="1254.952" y="30.52" type="line" smooth="yes"/>
			<point x="1315.968" y="86.296"/>
			<point x="1384.056" y="151.144"/>
		</contour>
	</outline>
</glyph>
<glyph name="Dcroat" format="2">
  <advance width="1710"/>
  <unicode hex="0110"/>
  <outline>
    <contour>
      <point x="140.208" y="619.728" type="line"/>
      <point x="968.96" y="619.728" type="line"/>
      <point x="1027.104" y="809.344" type="line"/>
      <point x="198.352" y="809.344" type="line"/>
    </contour>
    <contour>
      <point x="739.864" y="203.024" type="curve" smooth="yes"/>
      <point x="396.23199999999997" y="203.024" type="line"/>
      <point x="302.224" y="0.0" type="line"/>
      <point x="713.1519999999999" y="0.0" type="line" smooth="yes"/>
      <point x="1296.0240000000001" y="0.0"/>
      <point x="1677.624" y="340.32000000000005"/>
      <point x="1677.624" y="910.48" type="curve" smooth="yes"/>
      <point x="1677.624" y="1208.728"/>
      <point x="1519.768" y="1414.0"/>
      <point x="1039.176" y="1414.0" type="curve" smooth="yes"/>
      <point x="734.2239999999999" y="1414.0" type="line"/>
      <point x="707.608" y="1210.9759999999999" type="line"/>
      <point x="981.856" y="1210.9759999999999" type="line" smooth="yes"/>
      <point x="1194.456" y="1210.9759999999999"/>
      <point x="1283.4240000000002" y="1112.856"/>
      <point x="1283.4240000000002" y="943.88" type="curve" smooth="yes"/>
      <point x="1283.4240000000002" y="634.992"/>
      <point x="1102.6319999999998" y="203.024"/>
    </contour>
    <contour>
      <point x="497.896" y="1256.0400000000002" type="line"/>
      <point x="159.08" y="160.552" type="line"/>
      <point x="-17.368000000000002" y="105.18400000000001" type="line"/>
      <point x="-49.664" y="0.0" type="line"/>
      <point x="515.1840000000001" y="0.0" type="line"/>
      <point x="950.424" y="1414.0" type="line"/>
      <point x="366.04" y="1414.0" type="line"/>
      <point x="334.392" y="1308.816" type="line"/>
    </contour>
  </outline>
</glyph>
<glyph name="dcroat" format="2">
	<unicode hex="0111"/>
	<advance width="1466.76"/>
	<outline>
		<contour>
			<point x="991.296" y="737.304" type="curve"/>
			<point x="1011.792" y="792.176" type="line"/>
			<point x="968.48" y="973.48"/>
			<point x="882.24" y="1063.44"/>
			<point x="733.224" y="1063.44" type="curve" smooth="yes"/>
			<point x="382.992" y="1063.44"/>
			<point x="33.928" y="615.448"/>
			<point x="33.928" y="254.216" type="curve" smooth="yes"/>
			<point x="33.928" y="64.408"/>
			<point x="173.736" y="-26.48"/>
			<point x="325.256" y="-26.48" type="curve" smooth="yes"/>
			<point x="492.584" y="-26.48"/>
			<point x="624.328" y="43.8"/>
			<point x="881.632" y="458.768" type="curve"/>
			<point x="912.464" y="458.768" type="line"/>
			<point x="784.976" y="134.12" type="line" smooth="yes"/>
			<point x="736.832" y="12.056"/>
			<point x="782.032" y="-26.48"/>
			<point x="917.984" y="-26.48" type="curve" smooth="yes"/>
			<point x="1056.84" y="-26.48"/>
			<point x="1233.424" y="24.072"/>
			<point x="1454.44" y="214.456" type="curve"/>
			<point x="1401.072" y="298.768" type="line"/>
			<point x="1254.904" y="203.008"/>
			<point x="1142.528" y="182.488"/>
			<point x="993.8" y="190.248" type="curve"/>
			<point x="1067.608" y="76" type="line"/>
			<point x="1562.232" y="1490.48" type="line"/>
			<point x="1505.328" y="1490.48" type="line"/>
			<point x="1049.88" y="1446.752" type="line"/>
			<point x="1026.104" y="1349.24" type="line"/>
			<point x="1061.72" y="1327.6266666667"/>
			<point x="1109.696" y="1302.512"/>
			<point x="1135.328" y="1284.496" type="curve"/>
			<point x="944.952" y="739.984" type="line" smooth="yes"/>
			<point x="859.52" y="485.496"/>
			<point x="627" y="195.112"/>
			<point x="498.344" y="195.112" type="curve" smooth="yes"/>
			<point x="432.912" y="195.112"/>
			<point x="395.296" y="226.264"/>
			<point x="395.296" y="291.512" type="curve" smooth="yes"/>
			<point x="395.296" y="494.336"/>
			<point x="630.352" y="869.624"/>
			<point x="825.856" y="869.624" type="curve" smooth="yes"/>
			<point x="893.528" y="869.624"/>
			<point x="945.96" y="843.232"/>
		</contour>
		<contour>
			<point x="807.248" y="1143.76" type="line"/>
			<point x="1628.96" y="1143.76" type="line"/>
			<point x="1666.904" y="1270.24" type="line"/>
			<point x="845.192" y="1270.24" type="line"/>
		</contour>
	</outline>
</glyph>
<glyph name="Eogonek" format="2">
	<unicode hex="0118"/>
	<advance width="1578.432"/>
	<outline>
		<contour>
			<point x="493.6" y="1256.04" type="line"/>
			<point x="154.784" y="160.552" type="line"/>
			<point x="-21.664" y="105.184" type="line"/>
			<point x="-53.96" y="0" type="line"/>
			<point x="510.888" y="0" type="line"/>
			<point x="946.128" y="1414" type="line"/>
			<point x="361.744" y="1414" type="line"/>
			<point x="330.096" y="1308.816" type="line"/>
		</contour>
		<contour>
			<point x="942.592" y="480" type="line"/>
			<point x="1097.696" y="480" type="line"/>
			<point x="1175.696" y="735" type="line"/>
			<point x="1253.696" y="990" type="line"/>
			<point x="1098.592" y="990" type="line"/>
			<point x="1032.776" y="828.792" type="line"/>
			<point x="568.608" y="828.792" type="line"/>
			<point x="511.592" y="645.208" type="line"/>
			<point x="977.408" y="645.208" type="line"/>
		</contour>
		<contour>
			<point x="1581.376" y="1008.952" type="line"/>
			<point x="1708.6" y="1502.144" type="line"/>
			<point x="1584.16" y="1502.144" type="line"/>
			<point x="1460.128" y="1414" type="line"/>
			<point x="746.776" y="1414" type="line"/>
			<point x="687.112" y="1210.976" type="line"/>
			<point x="1465.072" y="1210.976" type="line"/>
			<point x="1415.888" y="1333.576" type="line"/>
			<point x="1408.848" y="1008.952" type="line"/>
		</contour>
		<contour>
			<point x="1062.088" y="-92.088" type="line"/>
			<point x="1206.416" y="-92.088" type="line"/>
			<point x="1511.888" y="468.008" type="line"/>
			<point x="1338.008" y="468.008" type="line"/>
			<point x="961.264" y="84.96" type="line"/>
			<point x="1163.448" y="203.024" type="line"/>
			<point x="375.736" y="203.024" type="line"/>
			<point x="314.776" y="0" type="line"/>
			<point x="1026.68" y="0" type="line"/>
		</contour>
		<contour>
			<point x="880.112" y="-262.064" type="curve" smooth="yes"/>
			<point x="880.112" y="-218.768"/>
			<point x="893.24" y="-187.192"/>
			<point x="991.216" y="-82.432" type="curve" smooth="yes"/>
			<point x="1142.408" y="75.88" type="line"/>
			<point x="1049.968" y="75.88" type="line"/>
			<point x="901.664" y="-37.232" type="line" smooth="yes"/>
			<point x="723.344" y="-172.992"/>
			<point x="693.736" y="-231.472"/>
			<point x="693.736" y="-321.56" type="curve" smooth="yes"/>
			<point x="693.736" y="-399.632"/>
			<point x="738.92" y="-465"/>
			<point x="851.304" y="-465" type="curve" smooth="yes"/>
			<point x="917.304" y="-465"/>
			<point x="982.376" y="-447.76"/>
			<point x="1081.576" y="-390.872" type="curve"/>
			<point x="1081.576" y="-297.064" type="line"/>
			<point x="1028.224" y="-319.232"/>
			<point x="998.816" y="-325.88"/>
			<point x="960.464" y="-325.88" type="curve" smooth="yes"/>
			<point x="904.872" y="-325.88"/>
			<point x="880.112" y="-306.36"/>
		</contour>
	</outline>
</glyph>
<glyph name="eogonek" format="2">
	<unicode hex="0119"/>
	<advance width="1187.544"/>
	<outline>
		<contour>
			<point x="960.264" y="200.328" type="line" smooth="yes"/>
			<point x="999.208" y="250.216"/>
			<point x="1032.504" y="306.456"/>
			<point x="1066.096" y="379.824" type="curve"/>
			<point x="959.208" y="379.824" type="line"/>
			<point x="869.096" y="254.744"/>
			<point x="762.112" y="207.704"/>
			<point x="632.76" y="207.704" type="curve" smooth="yes"/>
			<point x="475.208" y="207.704"/>
			<point x="425.168" y="264.704"/>
			<point x="425.168" y="442.928" type="curve" smooth="yes"/>
			<point x="425.168" y="762.136"/>
			<point x="587.064" y="914.632"/>
			<point x="752.168" y="914.632" type="curve" smooth="yes"/>
			<point x="829.84" y="914.632"/>
			<point x="865.992" y="873.832"/>
			<point x="865.992" y="807.512" type="curve" smooth="yes"/>
			<point x="865.992" y="687.904"/>
			<point x="847.808" y="658.792"/>
			<point x="341.592" y="562.072" type="curve"/>
			<point x="334.592" y="457.24" type="line"/>
			<point x="572.808" y="478.592"/>
			<point x="850.136" y="517.408"/>
			<point x="1103.28" y="578.928" type="curve"/>
			<point x="1146.056" y="659.848"/>
			<point x="1163.872" y="736.552"/>
			<point x="1163.872" y="806.2" type="curve" smooth="yes"/>
			<point x="1163.872" y="948.848"/>
			<point x="1060.896" y="1063.44"/>
			<point x="797.168" y="1063.44" type="curve" smooth="yes"/>
			<point x="326.232" y="1063.44"/>
			<point x="68.744" y="733.392"/>
			<point x="68.744" y="349.68" type="curve" smooth="yes"/>
			<point x="68.744" y="109.496"/>
			<point x="207.312" y="-26.48"/>
			<point x="490.912" y="-26.48" type="curve" smooth="yes"/>
			<point x="595.128" y="-26.48"/>
			<point x="690.216" y="-7.592"/>
			<point x="776.12" y="38.832" type="curve"/>
			<point x="746.16" y="75.088" type="line"/>
			<point x="695.168" y="20.224" type="line" smooth="yes"/>
			<point x="531.784" y="-147.144"/>
			<point x="477.328" y="-230.176"/>
			<point x="477.328" y="-321.56" type="curve" smooth="yes"/>
			<point x="477.328" y="-399.632"/>
			<point x="522.512" y="-465"/>
			<point x="634.896" y="-465" type="curve" smooth="yes"/>
			<point x="700.896" y="-465"/>
			<point x="765.968" y="-447.76"/>
			<point x="865.168" y="-390.872" type="curve"/>
			<point x="865.168" y="-297.064" type="line"/>
			<point x="811.816" y="-319.232"/>
			<point x="782.408" y="-325.88"/>
			<point x="744.056" y="-325.88" type="curve" smooth="yes"/>
			<point x="688.464" y="-325.88"/>
			<point x="663.704" y="-306.36"/>
			<point x="663.704" y="-262.064" type="curve" smooth="yes"/>
			<point x="663.704" y="-218.768"/>
			<point x="689.96" y="-145.568"/>
			<point x="783.312" y="-25.68" type="curve" smooth="yes"/>
		</contour>
	</outline>
</glyph>
<glyph name="Hbar" format="2">
	<unicode hex="0126"/>
	<advance width="1878.336"/>
	<outline>
		<contour>
			<point x="496.632" y="620.432" type="line"/>
			<point x="1452.632" y="620.432" type="line"/>
			<point x="1505.352" y="823.456" type="line"/>
			<point x="550.352" y="823.456" type="line"/>
		</contour>
		<contour>
			<point x="248.152" y="978.152" type="line"/>
			<point x="1914.8" y="978.152" type="line"/>
			<point x="1972.944" y="1167.768" type="line"/>
			<point x="306.296" y="1167.768" type="line"/>
		</contour>
		<contour>
			<point x="496.896" y="1256.04" type="line"/>
			<point x="158.08" y="160.552" type="line"/>
			<point x="-18.368" y="105.184" type="line"/>
			<point x="-50.664" y="0" type="line"/>
			<point x="693.928" y="0" type="line"/>
			<point x="724.576" y="105.184" type="line"/>
			<point x="562.072" y="157.96" type="line"/>
			<point x="900.888" y="1253.448" type="line"/>
			<point x="1077.336" y="1308.816" type="line"/>
			<point x="1107.984" y="1414" type="line"/>
			<point x="365.04" y="1414" type="line"/>
			<point x="333.392" y="1308.816" type="line"/>
		</contour>
		<contour>
			<point x="1430.616" y="1256.04" type="line"/>
			<point x="1092.448" y="160.552" type="line"/>
			<point x="915.352" y="105.184" type="line"/>
			<point x="884.704" y="0" type="line"/>
			<point x="1627.648" y="0" type="line"/>
			<point x="1659.944" y="105.184" type="line"/>
			<point x="1495.792" y="157.96" type="line"/>
			<point x="1834.608" y="1253.448" type="line"/>
			<point x="2011.056" y="1308.816" type="line"/>
			<point x="2042.352" y="1414" type="line"/>
			<point x="1298.76" y="1414" type="line"/>
			<point x="1268.112" y="1308.816" type="line"/>
		</contour>
	</outline>
</glyph>
<glyph name="hbar" format="2">
	<unicode hex="0127"/>
	<advance width="1458.632"/>
	<outline>
		<contour>
			<point x="453.912" y="197.288" type="line"/>
			<point x="587.704" y="601.296"/>
			<point x="730.28" y="793.76"/>
			<point x="875.128" y="793.76" type="curve" smooth="yes"/>
			<point x="923.448" y="793.76"/>
			<point x="944.784" y="773.536"/>
			<point x="944.784" y="737.96" type="curve" smooth="yes"/>
			<point x="944.784" y="707.368"/>
			<point x="936.432" y="668.424"/>
			<point x="895.712" y="566.264" type="curve" smooth="yes"/>
			<point x="726.104" y="149.936" type="line" smooth="yes"/>
			<point x="678.272" y="30.848"/>
			<point x="737.248" y="-26.48"/>
			<point x="853.352" y="-26.48" type="curve" smooth="yes"/>
			<point x="1017.432" y="-26.48"/>
			<point x="1196.408" y="21.352"/>
			<point x="1434.848" y="209.512" type="curve"/>
			<point x="1383.312" y="298.472" type="line"/>
			<point x="1196.616" y="201.272"/>
			<point x="1095.816" y="184.416"/>
			<point x="972.6" y="196.248" type="curve"/>
			<point x="1062.936" y="88.888" type="line"/>
			<point x="1256.648" y="567.568" type="line" smooth="yes"/>
			<point x="1312.888" y="708.416"/>
			<point x="1328.832" y="788.024"/>
			<point x="1328.832" y="848.504" type="curve" smooth="yes"/>
			<point x="1328.832" y="970.24"/>
			<point x="1248.28" y="1063.44"/>
			<point x="1079.712" y="1063.44" type="curve" smooth="yes"/>
			<point x="847.104" y="1063.44"/>
			<point x="682.432" y="940.992"/>
			<point x="463.728" y="463" type="curve"/>
			<point x="424.136" y="463" type="line"/>
			<point x="844.368" y="1490.48" type="line"/>
			<point x="787.464" y="1490.48" type="line"/>
			<point x="297.672" y="1446.752" type="line"/>
			<point x="273.896" y="1349.24" type="line"/>
			<point x="330.896" y="1317.9255404531"/>
			<point x="374.336" y="1299.0895533981"/>
			<point x="410.336" y="1279.312" type="curve"/>
			<point x="22.208" y="0" type="line"/>
			<point x="388.872" y="0" type="line"/>
		</contour>
		<contour>
			<point x="183.408" y="1143.76" type="line"/>
			<point x="1005.12" y="1143.76" type="line"/>
			<point x="1043.064" y="1270.24" type="line"/>
			<point x="221.352" y="1270.24" type="line"/>
		</contour>
	</outline>
</glyph>
<glyph name="Iogonek" format="2">
  <advance width="937.672"/>
  <unicode hex="012E"/>
  <outline>
    <contour>
      <point x="493.6" y="1256.0400000000002" type="line"/>
      <point x="154.784" y="160.552" type="line"/>
      <point x="-21.664" y="105.18400000000001" type="line"/>
      <point x="-53.96" y="0.0" type="line"/>
      <point x="690.6320000000001" y="0.0" type="line"/>
      <point x="721.28" y="105.18400000000001" type="line"/>
      <point x="558.7760000000001" y="157.96" type="line"/>
      <point x="897.592" y="1253.4479999999999" type="line"/>
      <point x="1074.04" y="1308.816" type="line"/>
      <point x="1104.6879999999999" y="1414.0" type="line"/>
      <point x="361.744" y="1414.0" type="line"/>
      <point x="330.096" y="1308.816" type="line"/>
    </contour>
    <contour>
      <point x="215.048" y="-262.064" type="curve" smooth="yes"/>
      <point x="215.048" y="-218.768"/>
      <point x="223.272" y="-184.376"/>
      <point x="312.16" y="-79.616" type="curve" smooth="yes"/>
      <point x="446.08" y="76.52799999999999" type="line"/>
      <point x="353.64000000000004" y="76.52799999999999" type="line"/>
      <point x="223.312" y="-33.768" type="line" smooth="yes"/>
      <point x="59.504000000000005" y="-171.71200000000002"/>
      <point x="28.671999999999997" y="-232.76800000000003"/>
      <point x="28.671999999999997" y="-321.56" type="curve" smooth="yes"/>
      <point x="28.671999999999997" y="-399.632"/>
      <point x="73.856" y="-465.0"/>
      <point x="186.24" y="-465.0" type="curve" smooth="yes"/>
      <point x="252.24" y="-465.0"/>
      <point x="317.312" y="-447.76"/>
      <point x="416.512" y="-390.87199999999996" type="curve"/>
      <point x="416.512" y="-297.064" type="line"/>
      <point x="363.16" y="-319.232"/>
      <point x="333.752" y="-325.88"/>
      <point x="295.4" y="-325.88" type="curve" smooth="yes"/>
      <point x="239.808" y="-325.88"/>
      <point x="215.048" y="-306.36"/>
    </contour>
  </outline>
</glyph>
